<svg xmlns="http://www.w3.org/2000/svg" width="256" height="44" viewBox="0 0 256 44">
    <g fill="none" fill-rule="evenodd">
        <g fill="#FFF">
            <path d="M120.572 17.633c-.693-.935-1.625-1.416-2.773-1.416-1.143 0-2.079.48-2.801 1.416-.694.935-1.055 2.08-1.055 3.466 0 2.773 1.536 4.611 3.856 4.611s3.859-1.838 3.859-4.611c0-1.385-.363-2.53-1.086-3.466zm2.411 8.98c-1.358 1.478-3.104 2.232-5.184 2.232-2.079 0-3.826-.754-5.213-2.232-1.356-1.476-2.049-3.374-2.049-5.632 0-2.29.693-4.191 2.049-5.669 1.387-1.508 3.134-2.258 5.213-2.258 2.08 0 3.826.75 5.184 2.258 1.388 1.478 2.08 3.378 2.08 5.67 0 2.257-.692 4.155-2.08 5.631zM135.96 21.164c.844 1.022 2.17 2.588 4.007 4.729.363.482.545.934.545 1.388 0 .875-.754 1.625-1.6 1.625-.602 0-1.112-.27-1.535-.783l-3.585-4.31-3.557 4.282c-.453.54-.935.81-1.45.81-.868 0-1.656-.81-1.656-1.747 0-.42.153-.813.453-1.145l4.04-4.85-4.25-5.003c-.39-.513-.603-1.026-.603-1.538 0-.513.242-.963.723-1.293.27-.185.54-.275.873-.275.572 0 1.087.275 1.538.783l3.889 4.703 3.887-4.703c.42-.508.904-.783 1.476-.783.874 0 1.658.815 1.658 1.688 0 .392-.12.755-.393 1.088l-4.46 5.334M57.007 28.794h-.842c-1.54 0-2.74-.546-3.647-1.658-.785-.995-1.172-2.23-1.172-3.709v-7.262h-.788c-1.206 0-1.806-.482-1.806-1.445 0-.967.843-1.66 1.806-1.66h.788V9.654c0-.99.72-1.836 1.654-1.836.931 0 1.655.845 1.655 1.836v3.406h2.202c.963 0 1.808.693 1.808 1.66 0 .963-.603 1.445-1.808 1.445h-2.232v6.9c0 1.658.785 2.503 2.382 2.536.813.027 1.658.63 1.658 1.503 0 .935-.692 1.69-1.658 1.69M70.831 17.633c-.695-.935-1.628-1.416-2.773-1.416-1.145 0-2.08.48-2.803 1.416-.693.935-1.058 2.08-1.058 3.466 0 2.773 1.54 4.611 3.861 4.611 2.32 0 3.856-1.838 3.856-4.611 0-1.385-.36-2.53-1.083-3.466zm2.41 8.98c-1.356 1.478-3.105 2.232-5.183 2.232-2.08 0-3.829-.754-5.214-2.232-1.355-1.476-2.049-3.374-2.049-5.632 0-2.29.694-4.191 2.05-5.669 1.384-1.508 3.132-2.258 5.213-2.258 2.078 0 3.827.75 5.184 2.258 1.385 1.478 2.078 3.378 2.078 5.67 0 2.257-.693 4.155-2.078 5.631zM84.717 20.834l4.914 4.909c.45.452.66.904.66 1.417 0 .874-.723 1.565-1.596 1.565-.483 0-.935-.18-1.325-.572l-5.395-5.454-.029 4.128c0 1.056-.663 1.87-1.66 1.87-.996 0-1.688-.814-1.688-1.87V6.487c0-1.053.724-1.81 1.687-1.81.966 0 1.69.757 1.69 1.81v11.571l.481.484 5.124-5.128c.423-.388.872-.6 1.355-.6.847 0 1.568.692 1.568 1.568 0 .45-.212.903-.6 1.297l-5.186 5.155M96.635 20.951c0 2.773 1.562 4.611 3.883 4.611 2.323 0 3.86-1.838 3.86-4.611 0-1.385-.364-2.53-1.084-3.466-.695-.935-1.63-1.415-2.776-1.415h-1.332v-3.164h1.332c2.081 0 3.829.75 5.186 2.259 1.386 1.477 2.078 3.377 2.078 5.669 0 2.258-.692 4.156-2.078 5.632-1.357 1.477-3.105 2.232-5.186 2.232-2.08 0-3.829-.755-5.211-2.232-1.358-1.476-2.048-3.374-2.048-5.632V6.487c0-1.053.722-1.81 1.685-1.81.968 0 1.69.757 1.69 1.81V20.95M21.041 24.292a3.43 3.43 0 1 1 0-6.858 3.43 3.43 0 0 1 0 6.858zM20.86 0H0v20.944c0 11.567 9.336 20.944 20.902 20.944 11.569 0 20.923-9.377 20.923-20.944C41.825 9.377 32.428 0 20.86 0zM144.38 11.857h.167c.193 0 .35-.065.35-.222 0-.138-.102-.23-.323-.23a.847.847 0 0 0-.194.018v.434zm-.01.858h-.35v-1.513c.139-.028.332-.046.581-.046.286 0 .416.046.526.11a.42.42 0 0 1 .148.333c0 .166-.13.295-.314.35v.018c.147.056.23.167.277.37.046.23.074.322.11.378h-.378c-.046-.056-.073-.194-.12-.37-.027-.166-.12-.24-.313-.24h-.166v.61zm-.931-.794c0 .674.498 1.209 1.18 1.209.665 0 1.154-.535 1.154-1.2 0-.673-.49-1.217-1.162-1.217-.674 0-1.172.544-1.172 1.208zm2.721 0c0 .858-.673 1.532-1.55 1.532-.866 0-1.558-.674-1.558-1.532 0-.84.692-1.513 1.559-1.513.876 0 1.55.674 1.55 1.513z"/>
        </g>
        <path fill="#9F9F9F" fill-rule="nonzero" stroke="#979797" stroke-width=".3" d="M158.49 41.448h-.924l-.574-1.45h-3.23l-.574 1.45h-.924l2.617-6.489h1.002l2.607 6.49zm-1.732-2.16l-1.381-3.502-1.372 3.502h2.753zm8.046 2.16h-1.002l-2.617-6.489h.924l2.189 5.604 2.189-5.604h.924l-2.607 6.49zm5.477.117c-1.43 0-2.326-1.11-2.326-2.471 0-1.362.895-2.461 2.326-2.461 1.43 0 2.325 1.099 2.325 2.46 0 1.363-.895 2.472-2.325 2.472zm0-.652c1.002 0 1.556-.856 1.556-1.82 0-.952-.554-1.809-1.556-1.809s-1.557.857-1.557 1.81c0 .963.555 1.82 1.557 1.82zm7.412.535h-.72v-3.074c0-.837-.427-1.09-1.06-1.09-.574 0-1.109.35-1.391.73v3.434h-.73V36.75h.73v.681c.33-.398.973-.797 1.683-.797.973 0 1.488.496 1.488 1.517v3.298zm5.137 0h-.73v-.535c-.38.428-.924.652-1.556.652-.788 0-1.635-.535-1.635-1.557 0-1.06.837-1.546 1.635-1.546.642 0 1.177.204 1.556.632v-.846c0-.623-.506-.983-1.187-.983-.564 0-1.021.195-1.44.652l-.34-.506c.506-.525 1.11-.778 1.878-.778 1.002 0 1.819.447 1.819 1.585v3.23zm-2.014-.408c.506 0 1.002-.195 1.284-.584v-.895c-.282-.38-.778-.574-1.284-.574-.69 0-1.167.428-1.167 1.021 0 .604.477 1.032 1.167 1.032zm5.37 2.315c-.788 0-1.333-.156-1.897-.71l.37-.526c.389.458.856.633 1.527.633.778 0 1.518-.38 1.518-1.372v-.71c-.35.477-.924.837-1.586.837-1.226 0-2.091-.915-2.091-2.433 0-1.507.856-2.441 2.091-2.441.632 0 1.206.311 1.586.827v-.71h.73v4.63c0 1.488-1.1 1.975-2.248 1.975zm.117-2.5a1.76 1.76 0 0 0 1.4-.76v-2.061c-.262-.4-.826-.75-1.4-.75-.953 0-1.518.75-1.518 1.79 0 1.032.565 1.78 1.518 1.78zm5.72.71c-1.4 0-2.403-1.002-2.403-2.471 0-1.362.973-2.461 2.316-2.461 1.42 0 2.257 1.109 2.257 2.52v.184h-3.794c.058.885.67 1.625 1.683 1.625.544 0 1.08-.214 1.459-.603l.35.476c-.477.467-1.109.73-1.868.73zm1.45-2.773c-.01-.69-.477-1.556-1.547-1.556-1.002 0-1.498.846-1.537 1.556h3.084zm10 2.656h-.924l-.574-1.45h-3.23l-.574 1.45h-.924l2.617-6.489h1.002l2.607 6.49zm-1.731-2.16l-1.382-3.502-1.371 3.502h2.753zm3.385 2.16h-.807V34.96h2.607c1.303 0 2.033.895 2.033 1.956 0 1.06-.74 1.955-2.033 1.955h-1.8v2.578zm1.703-3.298c.768 0 1.293-.506 1.293-1.235 0-.73-.525-1.236-1.293-1.236h-1.703v2.471h1.703zm4.008 3.298h-.808V34.96h.808v6.49zm7.11.117c-1.867 0-3.336-1.362-3.336-3.356 0-1.995 1.47-3.357 3.337-3.357 1.148 0 1.946.545 2.461 1.285l-.671.379a2.182 2.182 0 0 0-1.79-.944c-1.42 0-2.5 1.08-2.5 2.637 0 1.537 1.08 2.636 2.5 2.636.74 0 1.42-.399 1.79-.944l.68.37c-.544.75-1.322 1.294-2.47 1.294zm5.527 0c-1.43 0-2.325-1.11-2.325-2.471 0-1.362.895-2.461 2.325-2.461 1.43 0 2.325 1.099 2.325 2.46 0 1.363-.895 2.472-2.325 2.472zm0-.652c1.002 0 1.556-.856 1.556-1.82 0-.952-.554-1.809-1.556-1.809s-1.557.857-1.557 1.81c0 .963.555 1.82 1.557 1.82zm9.913.535h-.73v-3.19c0-.594-.253-.974-.866-.974-.486 0-1.002.34-1.245.72v3.444h-.73v-3.19c0-.594-.243-.974-.865-.974-.477 0-.983.35-1.236.73v3.434h-.73V36.75h.73v.681c.204-.301.827-.797 1.527-.797.71 0 1.12.389 1.255.875.263-.428.895-.875 1.576-.875.856 0 1.314.476 1.314 1.42v3.395zm3.774.117c-.642 0-1.196-.311-1.585-.827v2.5h-.73V36.75h.73v.7c.34-.476.924-.816 1.585-.816 1.236 0 2.092.934 2.092 2.46 0 1.519-.856 2.472-2.092 2.472zm-.185-.652c.944 0 1.508-.778 1.508-1.82 0-1.04-.564-1.809-1.508-1.809-.574 0-1.148.34-1.4.75v2.12c.252.409.826.76 1.4.76zm7.102.535h-.73v-.535c-.379.428-.924.652-1.556.652-.788 0-1.634-.535-1.634-1.557 0-1.06.836-1.546 1.634-1.546.642 0 1.177.204 1.556.632v-.846c0-.623-.505-.983-1.186-.983-.565 0-1.022.195-1.44.652l-.34-.506c.505-.525 1.108-.778 1.877-.778 1.002 0 1.819.447 1.819 1.585v3.23zm-2.014-.408c.506 0 1.002-.195 1.284-.584v-.895c-.282-.38-.778-.574-1.284-.574-.69 0-1.167.428-1.167 1.021 0 .604.477 1.032 1.167 1.032zm7.384.408h-.72v-3.074c0-.837-.428-1.09-1.06-1.09-.574 0-1.11.35-1.391.73v3.434h-.73V36.75h.73v.681c.33-.398.972-.797 1.683-.797.972 0 1.488.496 1.488 1.517v3.298zm1.216 1.839l.107-.662c.107.049.282.078.399.078.32 0 .535-.107.7-.496l.312-.71-1.965-4.748h.797l1.557 3.853 1.566-3.853h.788l-2.354 5.653c-.282.68-.759.943-1.382.953-.155 0-.399-.03-.525-.068z"/>
        <path fill="#BDBDBD" d="M145.441 43.336l.723.194 2.712-10.12-.723-.193z"/>
        <path fill="#FFF" fill-rule="nonzero" d="M57.39 41.468h-.796l-3.868-5.308v5.308H51.9v-6.655h.846l3.818 5.198v-5.198h.825v6.655zm3.62.12c-1.463 0-2.378-1.138-2.378-2.534 0-1.397.915-2.525 2.377-2.525 1.462 0 2.377 1.128 2.377 2.525 0 1.396-.915 2.534-2.377 2.534zm0-.669c1.023 0 1.59-.878 1.59-1.865 0-.978-.567-1.856-1.59-1.856-1.025 0-1.592.878-1.592 1.856 0 .987.567 1.865 1.591 1.865zm8.501.55h-.756l-1.253-3.872-1.253 3.871h-.745l-1.532-4.82h.776l1.173 3.842 1.263-3.841h.647l1.252 3.841 1.174-3.841h.785l-1.531 4.82zm7.329.119c-.657 0-1.223-.32-1.621-.848v2.564h-.746v-6.655h.746v.718a2.006 2.006 0 0 1 1.62-.838c1.264 0 2.139.958 2.139 2.525 0 1.556-.875 2.534-2.138 2.534zm-.19-.669c.965 0 1.542-.798 1.542-1.865 0-1.068-.577-1.856-1.541-1.856-.587 0-1.174.349-1.432.768v2.175c.258.42.845.778 1.432.778zm7.26.55h-.746v-.55c-.388.44-.945.669-1.591.669-.806 0-1.67-.549-1.67-1.597 0-1.087.855-1.586 1.67-1.586.656 0 1.203.21 1.591.649v-.869c0-.638-.517-1.007-1.213-1.007-.577 0-1.044.2-1.472.668l-.348-.519c.517-.538 1.134-.798 1.92-.798 1.023 0 1.859.46 1.859 1.627v3.312zm-2.059-.42c.517 0 1.025-.2 1.313-.599v-.918c-.288-.389-.796-.588-1.313-.588-.706 0-1.193.439-1.193 1.047 0 .619.487 1.058 1.193 1.058zm4.306.42h-.746v-4.82h.746v.768c.388-.499.945-.878 1.601-.878v.768c-.09-.01-.179-.02-.288-.02-.468 0-1.094.38-1.313.769v3.412zm3.759.119c-.716 0-1.074-.41-1.074-1.128v-3.153h-.796v-.658h.796v-1.317h.756v1.317h.974v.658h-.974v2.994c0 .359.159.618.477.618.219 0 .408-.1.507-.21l.219.57c-.19.18-.458.309-.885.309zm6.374 0c-1.462 0-2.377-1.138-2.377-2.534 0-1.397.915-2.525 2.377-2.525 1.462 0 2.376 1.128 2.376 2.525 0 1.396-.914 2.534-2.376 2.534zm0-.669c1.024 0 1.59-.878 1.59-1.865 0-.978-.566-1.856-1.59-1.856s-1.591.878-1.591 1.856c0 .987.567 1.865 1.59 1.865zm4.544.55h-.746v-4.162h-.795v-.658h.795v-.37c0-.987.547-1.566 1.393-1.566.387 0 .715.09 1.014.37l-.308.478a.86.86 0 0 0-.587-.23c-.497 0-.766.33-.766.949v.369h.975v.658h-.975v4.161z"/>
        <path fill="#FFF" d="M105.816 35.137h1.18v.935h.026c.301-.64 1.088-1.09 2.045-1.09 1.206 0 2.254.706 2.254 2.321v3.911h-1.18v-3.59c0-1.141-.668-1.564-1.415-1.564-.983 0-1.73.615-1.73 2.025v3.13h-1.18v-6.078M116.848 37.676c-.026-1.013-.593-1.77-1.766-1.77-1.147 0-1.894.962-1.894 1.77h3.66zm-3.66.924c0 1.064.992 1.77 2.062 1.77.709 0 1.224-.36 1.675-.911l.876.667c-.644.834-1.533 1.244-2.706 1.244-1.933 0-3.145-1.385-3.145-3.194 0-1.821 1.328-3.193 3.158-3.193 2.152 0 2.977 1.641 2.977 3.206v.41h-4.897z"/>
        <path fill="#FFF" d="M120.272 37.971l-2.189-2.833h1.511l1.5 2.154 1.471-2.154h1.42l-2.11 2.833 2.502 3.243h-1.512l-1.824-2.55-1.824 2.55h-1.447l2.502-3.243M124.691 35.137h1.089v.948h.026c.117-.359.868-1.102 1.97-1.102.907 0 1.53.384 1.918 1.128.402-.744 1.206-1.128 1.944-1.128 1.893 0 2.333 1.333 2.333 2.692v3.54h-1.166v-3.386c0-.923-.194-1.77-1.322-1.77-1.128 0-1.568.757-1.568 1.834v3.321h-1.167v-3.18c0-1.154-.168-1.974-1.296-1.974-.843 0-1.594.628-1.594 2v3.154h-1.167v-6.077"/>
        <path fill="#2E69A5" d="M139.005 38.098c0 .43-.352.78-.787.78a.783.783 0 0 1-.786-.78c0-.43.352-.779.786-.779.435 0 .787.349.787.78"/>
        <path fill="#FFF" d="M138.085 36.039c1.066 0 1.95.741 2.135 1.719h-.417l1.015.963 1.018-.963h-.509c-.194-1.563-1.571-2.775-3.242-2.775-1.355 0-2.518.797-3.012 1.932l1.019.385a2.177 2.177 0 0 1 1.993-1.261M138.085 40.298a2.138 2.138 0 0 1-2.092-1.689h.453l-1-.978-1.003.978h.455a3.213 3.213 0 0 0 3.187 2.76 3.22 3.22 0 0 0 2.965-1.952l-1.005-.391a2.142 2.142 0 0 1-1.96 1.272"/>
    </g>
</svg>
