<svg xmlns="http://www.w3.org/2000/svg" xmlns:xlink="http://www.w3.org/1999/xlink" width="334" height="47" viewBox="0 0 334 47">
    <defs>
        <path id="a" d="M0 0h46.301v46.372H.001V0z"/>
    </defs>
    <g fill="none" fill-rule="evenodd">
        <g transform="translate(.69)">
            <mask id="b" fill="#fff">
                <use xlink:href="#a"/>
            </mask>
            <path fill="#FFF" d="M23.293 26.892a3.796 3.796 0 1 1 0-7.592 3.796 3.796 0 0 1 0 7.592M23.093 0H0v23.186C0 35.99 10.335 46.372 23.14 46.372c12.806 0 23.161-10.38 23.161-23.186C46.301 10.38 35.9 0 23.092 0" mask="url(#b)"/>
        </g>
        <path fill="#FFF" d="M136.886 20.255c-.766-1.035-1.8-1.568-3.07-1.568-1.265 0-2.301.533-3.101 1.568-.769 1.035-1.167 2.303-1.167 3.837 0 3.07 1.7 5.105 4.267 5.105 2.57 0 4.272-2.036 4.272-5.105 0-1.534-.4-2.802-1.201-3.837m2.67 9.941c-1.504 1.636-3.436 2.472-5.74 2.472-2.301 0-4.236-.836-5.771-2.472-1.502-1.633-2.267-3.735-2.267-6.234 0-2.536.765-4.64 2.267-6.276 1.535-1.67 3.47-2.5 5.77-2.5 2.305 0 4.237.83 5.74 2.5 1.537 1.636 2.303 3.74 2.303 6.276 0 2.5-.766 4.601-2.303 6.234M154.138 24.128a400.965 400.965 0 0 0 4.438 5.235c.401.534.603 1.035.603 1.537 0 .968-.835 1.798-1.77 1.798-.669 0-1.233-.298-1.702-.866l-3.968-4.772-3.938 4.74c-.5.6-1.035.898-1.604.898-.962 0-1.834-.898-1.834-1.935 0-.465.169-.9.502-1.267l4.473-5.368-4.706-5.54c-.432-.568-.668-1.135-.668-1.703 0-.567.269-1.066.8-1.43.3-.205.599-.305.967-.305.634 0 1.204.304 1.703.867l4.305 5.207 4.303-5.207c.466-.563 1.001-.867 1.634-.867.967 0 1.836.902 1.836 1.869 0 .434-.133.835-.435 1.203l-4.939 5.906zM66.219 32.668h-.932c-1.706 0-3.035-.604-4.037-1.835-.869-1.102-1.298-2.47-1.298-4.106v-8.04h-.872c-1.335 0-2-.534-2-1.6 0-1.07.934-1.837 2-1.837h.872v-3.77c0-1.097.797-2.034 1.832-2.034 1.03 0 1.83.937 1.83 2.033v3.77h2.439c1.066 0 2.001.767 2.001 1.838 0 1.066-.667 1.6-2.001 1.6H63.58v7.639c0 1.836.87 2.771 2.638 2.806.9.031 1.835.698 1.835 1.665 0 1.035-.766 1.87-1.835 1.87M81.7 20.255c-.77-1.035-1.802-1.568-3.07-1.568-1.268 0-2.304.533-3.103 1.568-.768 1.035-1.171 2.303-1.171 3.837 0 3.07 1.705 5.105 4.274 5.105 2.57 0 4.268-2.036 4.268-5.105 0-1.534-.398-2.802-1.198-3.837m2.669 9.941c-1.503 1.636-3.439 2.472-5.739 2.472-2.304 0-4.239-.836-5.772-2.472-1.5-1.633-2.268-3.735-2.268-6.234 0-2.536.767-4.64 2.268-6.276 1.533-1.67 3.468-2.5 5.772-2.5 2.3 0 4.236.83 5.739 2.5 1.533 1.636 2.3 3.74 2.3 6.276 0 2.5-.767 4.601-2.3 6.234M97.175 23.962l5.44 5.434c.498.5.73 1.002.73 1.569 0 .967-.8 1.733-1.765 1.733-.535 0-1.036-.198-1.467-.633l-5.972-6.038-.033 4.57c0 1.169-.734 2.071-1.839 2.071-1.101 0-1.868-.902-1.868-2.071V8.079c0-1.165.802-2.003 1.868-2.003 1.07 0 1.872.838 1.872 2.003v12.81l.532.537 5.673-5.678c.467-.43.965-.665 1.5-.665.938 0 1.735.767 1.735 1.736 0 .499-.235 1-.664 1.437l-5.742 5.706zM110.45 24.091c0 3.07 1.73 5.106 4.3 5.106s4.271-2.035 4.271-5.106c0-1.533-.402-2.8-1.199-3.836-.769-1.036-1.805-1.567-3.073-1.567h-1.475v-3.502h1.475c2.304 0 4.238.83 5.741 2.5 1.535 1.636 2.3 3.74 2.3 6.275 0 2.5-.765 4.602-2.3 6.235-1.503 1.637-3.437 2.472-5.74 2.472-2.304 0-4.24-.835-5.77-2.472-1.503-1.633-2.267-3.735-2.267-6.235V8.08c0-1.166.8-2.004 1.866-2.004 1.07 0 1.871.838 1.871 2.004v16.012zM167.703 16.113h.264c.306 0 .554-.102.554-.351 0-.22-.16-.365-.51-.365-.148 0-.249.014-.308.029v.687zm-.015 1.359h-.554v-2.397c.219-.043.525-.073.92-.073.453 0 .657.073.833.176a.665.665 0 0 1 .234.526c0 .263-.205.468-.497.555v.029c.233.088.366.263.438.585.073.365.117.51.175.599h-.6c-.072-.088-.116-.307-.189-.585-.043-.263-.19-.38-.496-.38h-.264v.965zm-1.475-1.257c0 1.067.789 1.914 1.87 1.914 1.052 0 1.827-.847 1.827-1.9 0-1.066-.775-1.928-1.841-1.928-1.067 0-1.856.862-1.856 1.914zm4.31 0c0 1.36-1.066 2.426-2.454 2.426-1.374 0-2.47-1.067-2.47-2.426 0-1.33 1.096-2.397 2.47-2.397 1.388 0 2.454 1.067 2.454 2.397z"/>
        <path fill="#9F9F9F" fill-rule="nonzero" stroke="#979797" stroke-width=".3" d="M200.393 33.227h-1.274l-.791-1.998h-4.452l-.791 1.998h-1.274l3.607-8.944h1.381l3.594 8.944zm-2.387-2.977l-1.904-4.828-1.89 4.828h3.794zm11.09 2.977h-1.382l-3.607-8.944h1.274l3.017 7.723 3.017-7.723h1.274l-3.594 8.944zm7.549.16c-1.971 0-3.205-1.528-3.205-3.405 0-1.878 1.234-3.393 3.205-3.393 1.97 0 3.204 1.515 3.204 3.393 0 1.877-1.233 3.405-3.204 3.405zm0-.898c1.38 0 2.145-1.18 2.145-2.507 0-1.315-.764-2.495-2.145-2.495s-2.146 1.18-2.146 2.495c0 1.327.765 2.507 2.146 2.507zm10.217.738h-.992v-4.238c0-1.153-.59-1.502-1.461-1.502-.792 0-1.53.483-1.918 1.006v4.734h-1.006V26.75h1.006v.939c.456-.55 1.341-1.1 2.32-1.1 1.34 0 2.051.684 2.051 2.092v4.546zm7.08 0h-1.005v-.738c-.523.59-1.274.898-2.146.898-1.086 0-2.252-.737-2.252-2.145 0-1.462 1.153-2.132 2.252-2.132.885 0 1.623.282 2.146.872v-1.167c0-.858-.697-1.354-1.636-1.354-.778 0-1.408.268-1.985.898l-.469-.697c.697-.724 1.529-1.073 2.588-1.073 1.381 0 2.508.617 2.508 2.186v4.452zm-2.775-.564c.697 0 1.381-.268 1.77-.804v-1.234c-.389-.523-1.073-.791-1.77-.791-.952 0-1.61.59-1.61 1.408 0 .831.658 1.421 1.61 1.421zm7.402 3.192c-1.086 0-1.837-.215-2.615-.98l.51-.723c.536.63 1.18.871 2.105.871 1.072 0 2.092-.523 2.092-1.89v-.98c-.483.658-1.274 1.154-2.186 1.154-1.69 0-2.883-1.26-2.883-3.352 0-2.079 1.18-3.366 2.883-3.366.871 0 1.663.43 2.186 1.14v-.98h1.005v6.384c0 2.051-1.515 2.722-3.097 2.722zm.16-3.446c.792 0 1.57-.483 1.932-1.046V28.52c-.363-.55-1.14-1.033-1.931-1.033-1.314 0-2.092 1.033-2.092 2.468 0 1.421.778 2.454 2.092 2.454zm7.885.978c-1.93 0-3.312-1.38-3.312-3.405 0-1.878 1.341-3.393 3.192-3.393 1.957 0 3.11 1.529 3.11 3.473v.255h-5.23c.081 1.22.926 2.24 2.32 2.24.752 0 1.49-.296 2.012-.832l.483.657c-.657.643-1.529 1.005-2.575 1.005zm1.998-3.821c-.013-.952-.657-2.146-2.132-2.146-1.381 0-2.065 1.167-2.119 2.146h4.251zm13.785 3.66h-1.274l-.791-1.997h-4.452l-.791 1.998h-1.274l3.607-8.944h1.381l3.594 8.944zm-2.387-2.976l-1.904-4.828-1.89 4.828h3.794zm4.666 2.977h-1.113v-8.944h3.594c1.797 0 2.803 1.233 2.803 2.695 0 1.461-1.02 2.695-2.803 2.695h-2.48v3.554zm2.347-4.546c1.06 0 1.783-.697 1.783-1.703 0-1.006-.724-1.703-1.783-1.703h-2.347v3.406h2.347zm5.525 4.546h-1.113v-8.944h1.113v8.944zm9.802.16c-2.575 0-4.6-1.877-4.6-4.626 0-2.749 2.025-4.626 4.6-4.626 1.582 0 2.682.751 3.392 1.77l-.925.523c-.51-.764-1.448-1.3-2.467-1.3-1.958 0-3.446 1.488-3.446 3.633 0 2.119 1.488 3.634 3.446 3.634 1.019 0 1.958-.55 2.467-1.3l.939.51c-.751 1.032-1.824 1.782-3.406 1.782zm7.616 0c-1.971 0-3.205-1.528-3.205-3.405 0-1.878 1.234-3.393 3.205-3.393s3.205 1.515 3.205 3.393c0 1.877-1.234 3.405-3.205 3.405zm0-.898c1.381 0 2.146-1.18 2.146-2.507 0-1.315-.765-2.495-2.146-2.495-1.381 0-2.145 1.18-2.145 2.495 0 1.327.764 2.507 2.145 2.507zm13.664.738h-1.006v-4.399c0-.818-.348-1.34-1.193-1.34-.67 0-1.381.469-1.716.992v4.747h-1.006v-4.399c0-.818-.335-1.34-1.193-1.34-.657 0-1.355.482-1.703 1.005v4.734h-1.006V26.75h1.006v.939c.281-.416 1.14-1.1 2.105-1.1.979 0 1.542.536 1.73 1.207.362-.59 1.233-1.207 2.172-1.207 1.18 0 1.81.657 1.81 1.958v4.68zm5.203.16c-.885 0-1.65-.429-2.186-1.14v3.447h-1.005V26.75h1.005v.965a2.707 2.707 0 0 1 2.186-1.126c1.703 0 2.883 1.287 2.883 3.393 0 2.091-1.18 3.405-2.883 3.405zm-.255-.898c1.3 0 2.079-1.073 2.079-2.507 0-1.435-.778-2.495-2.079-2.495-.791 0-1.582.47-1.93 1.033v2.923c.348.563 1.139 1.046 1.93 1.046zm9.789.738h-1.006v-.738c-.523.59-1.274.898-2.145.898-1.086 0-2.253-.737-2.253-2.145 0-1.462 1.153-2.132 2.253-2.132.885 0 1.622.282 2.145.872v-1.167c0-.858-.697-1.354-1.636-1.354-.777 0-1.408.268-1.984.898l-.47-.697c.698-.724 1.529-1.073 2.588-1.073 1.382 0 2.508.617 2.508 2.186v4.452zm-2.776-.564c.697 0 1.381-.268 1.77-.804v-1.234c-.389-.523-1.073-.791-1.77-.791-.952 0-1.609.59-1.609 1.408 0 .831.657 1.421 1.61 1.421zm10.178.564h-.993v-4.238c0-1.153-.59-1.502-1.461-1.502-.791 0-1.529.483-1.918 1.006v4.734h-1.005V26.75h1.005v.939c.456-.55 1.341-1.1 2.32-1.1 1.341 0 2.052.684 2.052 2.092v4.546zm1.676 2.534l.147-.912c.148.067.39.107.55.107.443 0 .738-.147.966-.684l.429-.978-2.709-6.544h1.1l2.145 5.31 2.159-5.31h1.086l-3.245 7.79c-.389.94-1.046 1.301-1.904 1.315-.215 0-.55-.04-.724-.094z"/>
        <path fill="#BDBDBD" d="M175.781 32.498l.996.267 6.576-24.54-.997-.267z"/>
        <g>
            <path fill="#FFF" fill-rule="nonzero" d="M200.095 18.396h-1.092L193.695 11v7.396h-1.132V9.123h1.16l5.239 7.243V9.123h1.133v9.273zm4.966.167c-2.006 0-3.26-1.585-3.26-3.531 0-1.947 1.254-3.518 3.26-3.518s3.261 1.571 3.261 3.518c0 1.946-1.255 3.53-3.26 3.53zm0-.932c1.406 0 2.183-1.223 2.183-2.6 0-1.362-.777-2.585-2.183-2.585-1.405 0-2.183 1.223-2.183 2.586 0 1.376.778 2.6 2.183 2.6zm11.667.765h-1.037l-1.72-5.394-1.719 5.394h-1.023l-2.102-6.715h1.065l1.61 5.353 1.733-5.353h.887l1.719 5.353 1.61-5.353h1.078l-2.101 6.715zm10.056.167c-.9 0-1.678-.445-2.224-1.182v3.573h-1.024v-9.273h1.024v1.001a2.74 2.74 0 0 1 2.224-1.168c1.733 0 2.934 1.335 2.934 3.518 0 2.168-1.201 3.53-2.934 3.53zm-.26-.932c1.324 0 2.116-1.112 2.116-2.6 0-1.487-.792-2.585-2.115-2.585-.805 0-1.61.486-1.965 1.07v3.031c.355.584 1.16 1.084 1.965 1.084zm9.961.765h-1.023v-.765c-.532.612-1.296.932-2.183.932-1.105 0-2.292-.765-2.292-2.224 0-1.516 1.173-2.21 2.292-2.21.9 0 1.65.291 2.183.903v-1.21c0-.89-.71-1.404-1.665-1.404-.791 0-1.432.278-2.019.932l-.478-.723c.71-.751 1.556-1.113 2.634-1.113 1.405 0 2.551.64 2.551 2.267v4.615zm-2.824-.584c.71 0 1.405-.278 1.801-.834V15.7c-.396-.542-1.092-.82-1.801-.82-.969 0-1.637.612-1.637 1.46 0 .861.668 1.473 1.637 1.473zm5.908.584h-1.023v-6.715h1.023v1.07c.532-.694 1.296-1.223 2.197-1.223v1.07c-.123-.013-.246-.027-.396-.027-.641 0-1.5.528-1.8 1.07v4.755zm5.158.167c-.982 0-1.474-.57-1.474-1.571v-4.393h-1.091v-.918h1.091V9.846h1.037v1.835h1.338v.918h-1.338v4.17c0 .501.219.862.655.862.3 0 .56-.139.696-.291l.3.792c-.259.25-.627.43-1.214.43zm8.746 0c-2.005 0-3.26-1.585-3.26-3.531 0-1.947 1.255-3.518 3.26-3.518 2.006 0 3.261 1.571 3.261 3.518 0 1.946-1.255 3.53-3.26 3.53zm0-.932c1.406 0 2.184-1.223 2.184-2.6 0-1.362-.778-2.585-2.184-2.585-1.405 0-2.183 1.223-2.183 2.586 0 1.376.778 2.6 2.183 2.6zm6.236.765h-1.023V12.6h-1.092v-.918h1.092v-.514c0-1.376.75-2.183 1.91-2.183.532 0 .982.125 1.392.515l-.423.667a1.172 1.172 0 0 0-.805-.32c-.683 0-1.051.459-1.051 1.32v.515h1.337v.918h-1.337v5.797z"/>
            <path fill="#FFF" d="M265.579 9.188h1.642v1.241h.037c.42-.85 1.514-1.445 2.846-1.445 1.68 0 3.139.935 3.139 3.077v5.185h-1.642v-4.76c0-1.513-.93-2.074-1.971-2.074-1.369 0-2.409.816-2.409 2.686v4.148h-1.642V9.188M280.937 12.556c-.036-1.344-.825-2.347-2.458-2.347-1.597 0-2.638 1.275-2.638 2.347h5.096zm-5.096 1.224c0 1.412 1.382 2.347 2.871 2.347.987 0 1.704-.476 2.332-1.208l1.22.885c-.897 1.105-2.135 1.649-3.767 1.649-2.692 0-4.378-1.836-4.378-4.234 0-2.415 1.848-4.235 4.396-4.235 2.996 0 4.144 2.177 4.144 4.252v.544h-6.818z"/>
            <path fill="#FFF" d="M285.704 12.947l-3.047-3.756h2.104l2.086 2.855 2.05-2.855h1.977l-2.938 3.756 3.482 4.3h-2.104l-2.54-3.382-2.54 3.381h-2.013l3.483-4.3M291.856 9.188h1.516v1.258h.036c.163-.476 1.21-1.462 2.743-1.462 1.263 0 2.13.51 2.67 1.496.56-.986 1.679-1.496 2.707-1.496 2.635 0 3.248 1.768 3.248 3.57v4.692h-1.624v-4.488c0-1.224-.27-2.346-1.84-2.346s-2.184 1.003-2.184 2.432v4.402h-1.624V13.03c0-1.53-.234-2.618-1.804-2.618-1.173 0-2.22.833-2.22 2.652v4.182h-1.624V9.188"/>
            <path fill="#2E69A5" d="M311.784 13.115c0 .57-.49 1.033-1.095 1.033s-1.095-.462-1.095-1.033c0-.57.49-1.032 1.095-1.032s1.095.462 1.095 1.032"/>
            <path fill="#FFF" d="M310.503 10.385c1.484 0 2.714.983 2.973 2.279h-.58l1.412 1.278 1.417-1.278h-.708c-.27-2.073-2.188-3.68-4.514-3.68-1.887 0-3.505 1.057-4.194 2.562l1.42.511c.466-.984 1.532-1.672 2.774-1.672M310.504 16.032c-1.434 0-2.628-.96-2.914-2.24h.632l-1.392-1.296-1.397 1.297h.633c.302 2.067 2.173 3.66 4.438 3.66 1.854 0 3.445-1.067 4.126-2.589l-1.398-.519c-.462.993-1.51 1.687-2.728 1.687"/>
        </g>
    </g>
</svg>
