<svg xmlns="http://www.w3.org/2000/svg" xmlns:xlink="http://www.w3.org/1999/xlink" width="289" height="51" viewBox="0 0 289 51">
    <defs>
        <path id="a" d="M0 0h48.326v48.4H0V0z"/>
    </defs>
    <g fill="none" fill-rule="evenodd">
        <g transform="translate(.043)">
            <mask id="b" fill="#fff">
                <use xlink:href="#a"/>
            </mask>
            <path fill="#FFF" d="M24.312 28.069a3.962 3.962 0 1 1 0-7.925 3.962 3.962 0 0 1 0 7.925m-.21-28.07H0v24.2c0 13.366 10.787 24.2 24.151 24.2 13.367 0 24.175-10.834 24.175-24.2C48.326 10.836 37.47 0 24.102 0" mask="url(#b)"/>
        </g>
        <path fill="#FFF" d="M142.194 21.14c-.8-1.08-1.878-1.635-3.205-1.635-1.32 0-2.4.555-3.236 1.636-.802 1.08-1.218 2.404-1.218 4.004 0 3.204 1.774 5.328 4.454 5.328 2.682 0 4.46-2.124 4.46-5.328 0-1.6-.419-2.924-1.255-4.004m2.786 10.376c-1.569 1.707-3.586 2.58-5.99 2.58-2.402 0-4.421-.873-6.024-2.58-1.567-1.705-2.366-3.899-2.366-6.507 0-2.647.8-4.843 2.366-6.55 1.603-1.743 3.622-2.61 6.023-2.61 2.405 0 4.422.867 5.991 2.61 1.604 1.707 2.404 3.903 2.404 6.55 0 2.608-.8 4.802-2.404 6.507M160.201 25.183c.976 1.181 2.508 2.99 4.631 5.464.42.557.63 1.08.63 1.604 0 1.01-.872 1.877-1.848 1.877-.697 0-1.286-.311-1.775-.904l-4.143-4.98-4.11 4.947c-.522.626-1.08.937-1.674.937-1.004 0-1.914-.937-1.914-2.02 0-.484.176-.938.524-1.322l4.668-5.603-4.912-5.782c-.45-.593-.696-1.185-.696-1.777 0-.592.28-1.113.836-1.494a1.696 1.696 0 0 1 1.008-.317c.661 0 1.257.317 1.777.904l4.493 5.435 4.492-5.435c.486-.587 1.045-.904 1.705-.904 1.01 0 1.916.94 1.916 1.95 0 .453-.138.872-.453 1.256l-5.155 6.164zM68.436 34.096h-.972c-1.78 0-3.168-.63-4.214-1.915-.907-1.15-1.354-2.578-1.354-4.285v-8.39h-.91c-1.394 0-2.087-.559-2.087-1.671 0-1.118.974-1.918 2.086-1.918h.91V11.98c0-1.144.833-2.121 1.913-2.121 1.075 0 1.91.977 1.91 2.121v3.936h2.545c1.113 0 2.09.8 2.09 1.918 0 1.112-.697 1.67-2.09 1.67h-2.58v7.972c0 1.916.908 2.893 2.753 2.93.94.032 1.916.727 1.916 1.736 0 1.082-.8 1.953-1.916 1.953M84.595 21.14c-.804-1.08-1.881-1.635-3.204-1.635-1.324 0-2.405.555-3.239 1.636-.802 1.08-1.223 2.404-1.223 4.004 0 3.204 1.78 5.328 4.462 5.328 2.68 0 4.454-2.124 4.454-5.328 0-1.6-.415-2.924-1.25-4.004m2.785 10.376c-1.568 1.707-3.589 2.58-5.99 2.58-2.404 0-4.424-.873-6.024-2.58-1.566-1.705-2.367-3.899-2.367-6.507 0-2.647.8-4.843 2.367-6.55 1.6-1.743 3.62-2.61 6.025-2.61 2.4 0 4.42.867 5.99 2.61 1.6 1.707 2.4 3.903 2.4 6.55 0 2.608-.8 4.802-2.4 6.507M100.747 25.01l5.678 5.672c.52.522.762 1.046.762 1.637 0 1.01-.835 1.81-1.843 1.81-.558 0-1.08-.208-1.531-.662l-6.233-6.302-.035 4.77c0 1.22-.766 2.162-1.919 2.162-1.15 0-1.95-.942-1.95-2.162V8.433c0-1.217.838-2.092 1.95-2.092 1.116 0 1.954.875 1.954 2.092v13.37l.555.56 5.92-5.926c.488-.448 1.009-.694 1.566-.694.98 0 1.812.8 1.812 1.812 0 .52-.246 1.043-.694 1.499l-5.992 5.956zM114.602 25.145c0 3.205 1.806 5.329 4.488 5.329 2.683 0 4.458-2.124 4.458-5.33 0-1.6-.42-2.922-1.251-4.004-.803-1.08-1.885-1.635-3.207-1.635h-1.54V15.85h1.54c2.404 0 4.423.867 5.991 2.61 1.602 1.707 2.402 3.903 2.402 6.55 0 2.609-.8 4.802-2.402 6.507-1.568 1.708-3.587 2.58-5.991 2.58-2.405 0-4.425-.872-6.022-2.58-1.569-1.705-2.367-3.898-2.367-6.508V8.432c0-1.216.835-2.091 1.948-2.091 1.118 0 1.953.875 1.953 2.091v16.713zM174.359 16.817h.275c.32 0 .58-.106.58-.366 0-.228-.169-.38-.535-.38-.153 0-.258.014-.32.03v.716zm-.015 1.419h-.58v-2.502a5.09 5.09 0 0 1 .961-.076c.473 0 .686.076.87.183a.694.694 0 0 1 .244.55c0 .274-.214.488-.519.58V17c.243.092.382.275.458.61.076.382.122.534.182.626h-.625c-.076-.092-.122-.32-.198-.61-.046-.275-.199-.397-.519-.397h-.274v1.007zm-1.54-1.312c0 1.114.823 1.998 1.951 1.998 1.099 0 1.907-.884 1.907-1.983 0-1.113-.808-2.013-1.921-2.013-1.114 0-1.938.9-1.938 1.998zm4.499 0c0 1.42-1.113 2.532-2.562 2.532-1.434 0-2.578-1.113-2.578-2.532 0-1.388 1.144-2.501 2.578-2.501 1.449 0 2.562 1.113 2.562 2.501z"/>
        <path fill="#9F9F9F" fill-rule="nonzero" d="M175.148 48.25h-.888V41.9H172v-.793h5.419v.793h-2.27v6.35zm7.722 0h-.803v-3.405c0-.921-.461-1.178-1.168-1.178-.62 0-1.22.385-1.52.803v3.78h-.804v-7.143h.804v2.72c.353-.439 1.06-.878 1.841-.878 1.082 0 1.65.525 1.65 1.65v3.651zm3.951.129c-1.542 0-2.645-1.103-2.645-2.72 0-1.5 1.071-2.71 2.549-2.71 1.563 0 2.484 1.22 2.484 2.774v.203h-4.176c.064.975.739 1.789 1.853 1.789.6 0 1.188-.236 1.606-.664l.385.524c-.524.514-1.22.804-2.056.804zm1.596-3.053c-.01-.76-.525-1.713-1.703-1.713-1.103 0-1.649.932-1.692 1.713h3.395zm8.139 2.924h-1.103l-2.88-7.143h1.016l2.41 6.169 2.41-6.169h1.017l-2.87 7.143zm6.029.129c-1.574 0-2.56-1.221-2.56-2.72 0-1.5.986-2.71 2.56-2.71s2.56 1.21 2.56 2.71c0 1.499-.986 2.72-2.56 2.72zm0-.718c1.103 0 1.713-.942 1.713-2.003 0-1.05-.61-1.991-1.713-1.991-1.103 0-1.713.942-1.713 1.991 0 1.06.61 2.003 1.713 2.003zm8.16.589h-.792v-3.384c0-.921-.471-1.2-1.167-1.2-.632 0-1.221.386-1.532.804v3.78h-.803v-5.172h.803v.75c.364-.44 1.071-.879 1.853-.879 1.07 0 1.638.546 1.638 1.67v3.631zm5.655 0h-.803v-.589c-.418.471-1.018.718-1.714.718-.867 0-1.799-.59-1.799-1.714 0-1.167.92-1.703 1.8-1.703.706 0 1.295.225 1.713.696v-.931c0-.686-.557-1.082-1.307-1.082-.621 0-1.124.214-1.585.718l-.375-.557c.557-.579 1.221-.857 2.067-.857 1.103 0 2.003.493 2.003 1.746v3.555zm-2.217-.45c.557 0 1.103-.214 1.414-.642v-.986c-.311-.417-.857-.631-1.414-.631-.76 0-1.285.47-1.285 1.124 0 .664.525 1.135 1.285 1.135zm5.911 2.549c-.867 0-1.467-.171-2.088-.782l.407-.578c.428.503.942.696 1.681.696.857 0 1.671-.418 1.671-1.51v-.782c-.386.525-1.017.921-1.746.921-1.349 0-2.302-1.006-2.302-2.677 0-1.66.942-2.688 2.302-2.688.696 0 1.328.343 1.746.91v-.781h.803v5.097c0 1.639-1.21 2.174-2.474 2.174zm.129-2.752c.632 0 1.253-.386 1.542-.836v-2.27c-.29-.439-.91-.824-1.542-.824-1.05 0-1.67.824-1.67 1.97 0 1.135.62 1.96 1.67 1.96zm6.297.782c-1.542 0-2.645-1.103-2.645-2.72 0-1.5 1.07-2.71 2.548-2.71 1.564 0 2.485 1.22 2.485 2.774v.203h-4.177c.065.975.74 1.789 1.853 1.789.6 0 1.189-.236 1.606-.664l.386.524c-.525.514-1.22.804-2.056.804zm1.595-3.053c-.01-.76-.524-1.713-1.702-1.713-1.103 0-1.65.932-1.692 1.713h3.394zm11.01 2.924h-1.018l-.632-1.596h-3.555l-.632 1.596h-1.017l2.88-7.143h1.103l2.87 7.143zm-1.907-2.377l-1.52-3.856-1.51 3.856h3.03zm3.727 2.377h-.889v-7.143h2.87c1.435 0 2.238.985 2.238 2.153 0 1.167-.814 2.152-2.238 2.152h-1.981v2.838zm1.874-3.63c.846 0 1.424-.557 1.424-1.36 0-.804-.578-1.36-1.424-1.36h-1.874v2.72h1.874zm4.412 3.63h-.889v-7.143h.89v7.143zm5.333 0h-.889v-7.143h2.87c1.435 0 2.239.985 2.239 2.153 0 1.167-.814 2.152-2.239 2.152h-1.98v2.838zm1.874-3.63c.846 0 1.425-.557 1.425-1.36 0-.804-.579-1.36-1.425-1.36h-1.874v2.72h1.874zm4.295 3.63h-.804v-7.143h.804v7.143zm5.643 0h-.803v-.589c-.418.471-1.017.718-1.713.718-.868 0-1.8-.59-1.8-1.714 0-1.167.921-1.703 1.8-1.703.706 0 1.295.225 1.713.696v-.931c0-.686-.557-1.082-1.306-1.082-.622 0-1.125.214-1.585.718l-.375-.557c.557-.579 1.22-.857 2.067-.857 1.103 0 2.002.493 2.002 1.746v3.555zm-2.217-.45c.557 0 1.104-.214 1.414-.642v-.986c-.31-.417-.857-.631-1.414-.631-.76 0-1.285.47-1.285 1.124 0 .664.525 1.135 1.285 1.135zm5.152.579c-.772 0-1.157-.44-1.157-1.21v-3.385h-.857v-.706h.857v-1.414h.814v1.414h1.05v.706h-1.05v3.213c0 .386.171.664.514.664a.76.76 0 0 0 .546-.225l.236.61c-.204.193-.493.333-.953.333zm2.859-.129h-.803v-4.466h-.857v-.706h.857v-.397c0-1.06.589-1.681 1.499-1.681.418 0 .771.096 1.092.396l-.332.514a.929.929 0 0 0-.632-.246c-.535 0-.824.353-.824 1.017v.397h1.05v.706h-1.05v4.466zm4.273.129c-1.574 0-2.56-1.221-2.56-2.72 0-1.5.986-2.71 2.56-2.71s2.56 1.21 2.56 2.71c0 1.499-.986 2.72-2.56 2.72zm0-.718c1.103 0 1.713-.942 1.713-2.003 0-1.05-.61-1.991-1.713-1.991-1.103 0-1.714.942-1.714 1.991 0 1.06.61 2.003 1.714 2.003zm4.669.589h-.803v-5.172h.803v.824c.418-.535 1.017-.942 1.724-.942v.824a2.653 2.653 0 0 0-.31-.021c-.504 0-1.178.407-1.414.825v3.662zm9.777 0h-.803v-3.513c0-.653-.278-1.07-.953-1.07-.535 0-1.103.374-1.37.792v3.791h-.804v-3.513c0-.653-.268-1.07-.953-1.07-.525 0-1.082.385-1.36.803v3.78h-.803v-5.172h.803v.75c.225-.333.91-.879 1.681-.879.782 0 1.232.428 1.382.964.289-.471.985-.964 1.735-.964.942 0 1.445.525 1.445 1.564v3.737z"/>
        <path fill="#BDBDBD" d="M164.373 50.28l.784.21 2.942-10.981-.784-.21z"/>
        <g>
            <path fill="#FFF" fill-rule="nonzero" d="M68.827 48.253h-.863l-4.198-5.76v5.76h-.895V41.03h.917l4.143 5.64v-5.64h.896v7.222zm3.928.13c-1.587 0-2.58-1.235-2.58-2.75 0-1.516.993-2.74 2.58-2.74 1.586 0 2.578 1.224 2.578 2.74 0 1.515-.992 2.75-2.578 2.75zm0-.726c1.111 0 1.726-.953 1.726-2.024 0-1.062-.615-2.014-1.726-2.014-1.112 0-1.727.952-1.727 2.014 0 1.071.615 2.024 1.727 2.024zm9.225.596h-.82l-1.36-4.201-1.359 4.2h-.81l-1.66-5.229h.84l1.274 4.169 1.37-4.169h.702l1.36 4.169 1.272-4.169h.853l-1.662 5.23zm7.952.13c-.712 0-1.327-.347-1.758-.92v2.782h-.81v-7.222h.81v.78a2.176 2.176 0 0 1 1.758-.91c1.37 0 2.32 1.04 2.32 2.74 0 1.689-.95 2.75-2.32 2.75zm-.205-.726c1.047 0 1.673-.866 1.673-2.024 0-1.159-.626-2.014-1.673-2.014-.636 0-1.273.379-1.553.833v2.36c.28.455.917.845 1.553.845zm7.877.596h-.809v-.596c-.42.477-1.025.726-1.726.726-.874 0-1.813-.596-1.813-1.733 0-1.18.928-1.721 1.813-1.721.712 0 1.305.227 1.726.704v-.942c0-.693-.561-1.094-1.316-1.094-.626 0-1.133.217-1.597.725l-.378-.563c.561-.584 1.23-.866 2.083-.866 1.11 0 2.017.498 2.017 1.765v3.595zm-2.233-.455c.56 0 1.111-.217 1.424-.65v-.996c-.313-.422-.863-.639-1.424-.639-.766 0-1.295.477-1.295 1.137 0 .672.529 1.148 1.295 1.148zm4.672.455h-.81v-5.23h.81v.834c.42-.541 1.025-.953 1.737-.953v.834a2.664 2.664 0 0 0-.313-.022c-.507 0-1.187.412-1.424.834v3.703zm4.079.13c-.777 0-1.166-.444-1.166-1.224v-3.421h-.863v-.715h.863v-1.429h.82v1.43h1.058v.714h-1.058v3.248c0 .39.173.671.518.671a.765.765 0 0 0 .55-.227l.238.617c-.205.195-.496.336-.96.336zm6.916 0c-1.586 0-2.579-1.235-2.579-2.75 0-1.516.993-2.74 2.579-2.74 1.586 0 2.579 1.224 2.579 2.74 0 1.515-.993 2.75-2.579 2.75zm0-.726c1.111 0 1.726-.953 1.726-2.024 0-1.062-.615-2.014-1.726-2.014s-1.726.952-1.726 2.014c0 1.071.615 2.024 1.726 2.024zm4.931.596h-.81v-4.515h-.862v-.715h.863v-.4c0-1.072.593-1.7 1.51-1.7.421 0 .777.097 1.101.4l-.334.52a.934.934 0 0 0-.637-.249c-.54 0-.83.357-.83 1.029v.4h1.057v.715h-1.058v4.515z"/>
            <path fill="#FFF" d="M121.375 41.382h1.28v1.016h.029c.327-.696 1.18-1.183 2.218-1.183 1.309 0 2.447.765 2.447 2.518v4.244h-1.28v-3.896c0-1.238-.726-1.697-1.536-1.697-1.067 0-1.878.668-1.878 2.198v3.395h-1.28v-6.595M133.345 44.138c-.027-1.1-.643-1.92-1.915-1.92-1.245 0-2.056 1.043-2.056 1.92h3.971zm-3.971 1.002c0 1.155 1.077 1.92 2.237 1.92.77 0 1.329-.39 1.818-.988l.951.724c-.699.905-1.664 1.35-2.936 1.35-2.098 0-3.413-1.503-3.413-3.465 0-1.977 1.44-3.466 3.427-3.466 2.335 0 3.23 1.782 3.23 3.48v.445h-5.314z"/>
            <path fill="#FFF" d="M137.061 44.458l-2.375-3.074h1.64l1.626 2.337 1.598-2.337h1.541l-2.29 3.074 2.714 3.519h-1.64l-1.98-2.768-1.979 2.768h-1.57l2.715-3.52M141.857 41.382h1.18v1.03h.029c.127-.39.942-1.197 2.138-1.197.984 0 1.66.418 2.081 1.225.436-.807 1.308-1.225 2.11-1.225 2.053 0 2.532 1.447 2.532 2.922v3.84h-1.266v-3.673c0-1.002-.211-1.92-1.435-1.92-1.223 0-1.701.82-1.701 1.99v3.603h-1.266v-3.45c0-1.253-.183-2.143-1.407-2.143-.914 0-1.73.682-1.73 2.17v3.423h-1.265v-6.595"/>
            <path fill="#2E69A5" d="M157.388 44.596a.85.85 0 0 1-.853.845.85.85 0 0 1-.853-.845.85.85 0 0 1 .853-.845.85.85 0 0 1 .853.845"/>
            <path fill="#FFF" d="M156.39 42.361c1.156 0 2.116.805 2.317 1.865h-.452l1.1 1.046 1.106-1.046h-.553c-.21-1.696-1.705-3.01-3.518-3.01-1.47 0-2.732.864-3.269 2.096l1.106.418a2.362 2.362 0 0 1 2.163-1.369M156.39 46.983a2.32 2.32 0 0 1-2.27-1.832h.492l-1.085-1.062-1.088 1.062h.493a3.487 3.487 0 0 0 3.459 2.995 3.494 3.494 0 0 0 3.216-2.119l-1.09-.424a2.324 2.324 0 0 1-2.126 1.38"/>
        </g>
    </g>
</svg>
