<svg xmlns="http://www.w3.org/2000/svg" xmlns:xlink="http://www.w3.org/1999/xlink" width="200" height="55" viewBox="0 0 200 55">
    <defs>
        <path id="a" d="M0 0h54.433v54.515H0V0z"/>
    </defs>
    <g fill="none" fill-rule="evenodd">
        <g>
            <mask id="b" fill="#fff">
                <use xlink:href="#a"/>
            </mask>
            <path fill="#FFF" d="M27.384 31.615a4.463 4.463 0 1 1 0-8.925 4.463 4.463 0 0 1 0 8.925M27.148 0H0v27.258c0 15.054 12.15 27.257 27.203 27.257 15.056 0 27.23-12.203 27.23-27.257C54.433 12.204 42.203 0 27.148 0" mask="url(#b)"/>
        </g>
        <path fill="#FFF" d="M160.114 23.812c-.901-1.217-2.115-1.843-3.61-1.843-1.487 0-2.704.626-3.645 1.843-.903 1.217-1.372 2.708-1.372 4.51 0 3.61 1.998 6.002 5.017 6.002 3.021 0 5.023-2.393 5.023-6.001 0-1.803-.471-3.294-1.413-4.511m3.138 11.688c-1.767 1.923-4.039 2.905-6.748 2.905-2.704 0-4.98-.982-6.784-2.905-1.765-1.92-2.665-4.392-2.665-7.33 0-2.981.9-5.454 2.665-7.378 1.805-1.963 4.08-2.94 6.784-2.94 2.709 0 4.98.977 6.748 2.94 1.806 1.924 2.707 4.397 2.707 7.378 0 2.938-.9 5.41-2.707 7.33M180.396 28.365c1.1 1.33 2.825 3.368 5.217 6.155.472.627.71 1.216.71 1.806 0 1.139-.983 2.115-2.083 2.115-.785 0-1.448-.351-2-1.018l-4.665-5.61-4.629 5.572c-.589.705-1.217 1.056-1.886 1.056-1.13 0-2.156-1.056-2.156-2.275 0-.546.199-1.058.59-1.49l5.258-6.311-5.532-6.513c-.508-.667-.785-1.334-.785-2.001 0-.667.316-1.253.942-1.683a1.91 1.91 0 0 1 1.136-.357c.744 0 1.415.357 2 1.018l5.062 6.122 5.06-6.122c.547-.66 1.176-1.018 1.92-1.018 1.137 0 2.158 1.06 2.158 2.197 0 .51-.156.982-.51 1.414l-5.807 6.943zM77.036 38.405H75.94c-2.005 0-3.567-.71-4.745-2.158-1.022-1.294-1.526-2.903-1.526-4.826V21.97h-1.026c-1.569 0-2.35-.629-2.35-1.882 0-1.259 1.098-2.16 2.35-2.16h1.026v-4.433c0-1.289.937-2.39 2.153-2.39 1.212 0 2.153 1.101 2.153 2.39v4.433h2.866c1.253 0 2.353.901 2.353 2.16 0 1.253-.784 1.882-2.353 1.882h-2.906v8.98c0 2.157 1.023 3.257 3.101 3.299 1.058.036 2.158.82 2.158 1.956 0 1.218-.9 2.2-2.158 2.2M95.236 23.812c-.905-1.217-2.118-1.843-3.609-1.843-1.49 0-2.709.626-3.648 1.843-.903 1.217-1.377 2.708-1.377 4.51 0 3.61 2.004 6.002 5.025 6.002 3.02 0 5.018-2.393 5.018-6.001 0-1.803-.468-3.294-1.409-4.511M98.374 35.5c-1.767 1.923-4.043 2.905-6.747 2.905-2.709 0-4.983-.982-6.786-2.905-1.764-1.92-2.666-4.392-2.666-7.33 0-2.981.902-5.454 2.666-7.378 1.803-1.963 4.077-2.94 6.786-2.94 2.704 0 4.98.977 6.747 2.94 1.803 1.924 2.703 4.397 2.703 7.378 0 2.938-.9 5.41-2.703 7.33M113.43 28.17l6.395 6.39c.585.587.859 1.177.859 1.843 0 1.137-.94 2.038-2.076 2.038-.63 0-1.218-.233-1.726-.745l-7.02-7.098-.039 5.372c0 1.374-.863 2.435-2.161 2.435-1.295 0-2.197-1.06-2.197-2.435V9.498c0-1.37.944-2.355 2.197-2.355 1.256 0 2.2.985 2.2 2.355v15.06l.626.63 6.668-6.674c.55-.505 1.136-.782 1.764-.782 1.102 0 2.04.902 2.04 2.041 0 .586-.276 1.175-.78 1.689l-6.75 6.708zM129.036 28.322c0 3.61 2.033 6.002 5.054 6.002 3.022 0 5.022-2.392 5.022-6.002 0-1.802-.473-3.292-1.41-4.51-.904-1.217-2.122-1.842-3.612-1.842h-1.734v-4.117h1.734c2.708 0 4.982.976 6.749 2.939 1.804 1.923 2.705 4.396 2.705 7.378 0 2.939-.901 5.409-2.705 7.33-1.767 1.923-4.041 2.905-6.75 2.905-2.707 0-4.983-.982-6.782-2.906-1.767-1.92-2.665-4.39-2.665-7.33V9.499c0-1.37.94-2.356 2.193-2.356 1.26 0 2.2.986 2.2 2.356v18.824zM196.343 18.942h.31c.36 0 .652-.12.652-.412 0-.258-.189-.43-.6-.43-.173 0-.292.018-.362.035v.807zm-.017 1.598h-.652v-2.817a5.733 5.733 0 0 1 1.082-.086c.532 0 .773.086.979.206.154.12.275.344.275.619 0 .309-.24.55-.584.653v.033c.274.104.43.31.515.688.086.43.138.6.206.704h-.705c-.085-.103-.137-.36-.223-.687-.05-.31-.223-.447-.584-.447h-.309v1.134zm-1.735-1.477c0 1.254.927 2.25 2.198 2.25 1.238 0 2.148-.996 2.148-2.233 0-1.254-.91-2.268-2.164-2.268-1.255 0-2.182 1.014-2.182 2.25zm5.068 0c0 1.598-1.254 2.852-2.886 2.852-1.614 0-2.904-1.254-2.904-2.852 0-1.564 1.29-2.818 2.904-2.818 1.632 0 2.886 1.254 2.886 2.818z"/>
    </g>
</svg>
