<svg width="257" height="51" viewBox="0 0 257 51" fill="none" xmlns="http://www.w3.org/2000/svg">
<path fill-rule="evenodd" clip-rule="evenodd" d="M11.3279 0H0L16.1597 36.8877C16.2831 37.1696 16.6821 37.1668 16.8018 36.8837L22.1763 24.1814L11.3279 0ZM202.195 17.8454H194.628V14.1731H206.243V19.6953V27.099H202.196L202.21 24.1903C201.13 25.9203 198.064 27.5581 195.023 27.5581C187.813 27.5581 183.175 22.8821 183.175 15.1008C183.175 7.31957 187.813 2.55042 195.023 2.55042C200.451 2.55042 205.29 5.52587 206.059 10.8051H201.672C201.114 7.78971 198.466 6.48145 195.282 6.48145C190.194 6.48145 187.403 9.13863 187.403 15.1008C187.403 20.6228 190.418 23.6856 195.023 23.6856C198.695 23.6856 202.159 21.5738 202.195 17.8454ZM228 3.10254V7.11842H215.059V12.7578H226.991V16.7742H215.059V23.0826H228V27.0989H210.828V3.10254H228ZM26.144 43.6335C28.4695 39.9495 45.8317 0 45.8317 0H57.3592C57.3592 0 40.2913 39.3172 38.2501 43.1017C36.4541 46.4313 33.2132 50.2017 28.7191 50.2017H18.3449C18.3099 50.2017 18.2814 50.1731 18.2814 50.1379C18.2814 50.1065 18.3041 50.0799 18.3349 50.0752C21.6497 49.5513 23.441 47.9165 26.144 43.6335ZM91.2053 22.0398C91.1813 22.0925 91.1066 22.0925 91.0826 22.0398L82.47 3.10449H77.6311C77.6311 3.10449 86.5076 23.1972 87.3942 24.6985C88.2607 26.1656 89.3092 27.3752 91.1441 27.3752C92.9789 27.3752 94.0274 26.1656 94.8939 24.6985C95.7805 23.1972 104.657 3.10449 104.657 3.10449H99.8182L91.2053 22.0398ZM109.725 15.1001C109.725 20.6223 112.79 23.6848 117.471 23.6848C122.134 23.6848 125.215 20.6223 125.215 15.1001C125.215 9.57789 122.134 6.51584 117.471 6.51584C112.79 6.51584 109.725 9.57789 109.725 15.1001ZM105.428 15.1006C105.428 7.31957 110.142 2.55042 117.471 2.55042C124.782 2.55042 129.513 7.31957 129.513 15.1006C129.513 22.8821 124.782 27.6513 117.471 27.6513C110.142 27.6513 105.428 22.8821 105.428 15.1006ZM154.268 3.10254V27.0989H149.308L137.745 9.55521V27.0989H133.515V3.10254H138.491L150.054 20.7632V3.10254H154.268ZM169.778 7.4579L165.612 17.2585H174.069L169.902 7.4579C169.879 7.40293 169.802 7.40293 169.778 7.4579ZM166.33 5.48491C167.033 4.15682 168.097 2.82874 169.84 2.82874C171.582 2.82874 172.647 4.15682 173.349 5.48491C174.068 6.84587 182.671 27.0995 182.671 27.0995H178.251L175.781 21.2889H163.899L161.428 27.0995H157.008C157.008 27.0995 165.611 6.84587 166.33 5.48491Z" fill="white"/>
<path d="M84.9995 39.2979L82.8887 45.3726L80.7671 39.2979H79.3115L82.0776 47H83.6836L86.4551 39.2979H84.9995ZM89.6509 41.124C87.9751 41.124 86.917 42.2788 86.917 44.105C86.917 45.9312 87.9751 47.0859 89.6509 47.0859C91.332 47.0859 92.3901 45.9312 92.3901 44.105C92.3901 42.2788 91.332 41.124 89.6509 41.124ZM89.6509 42.252C90.5479 42.252 91.0688 42.9019 91.0688 44.105C91.0688 45.3135 90.5479 45.958 89.6509 45.958C88.7593 45.958 88.2383 45.3135 88.2383 44.105C88.2383 42.9019 88.7593 42.252 89.6509 42.252ZM93.8242 41.2314V47H95.1455V43.729C95.1455 42.9233 95.6343 42.3057 96.4829 42.3057C97.208 42.3057 97.541 42.7622 97.541 43.5356V47H98.8623V43.106C98.8623 41.876 98.1748 41.124 96.918 41.124C95.9673 41.124 95.4517 41.5537 95.1455 42.1177V41.2314H93.8242ZM102.993 41.124C101.564 41.124 100.667 41.7739 100.339 42.8481L101.618 43.1704C101.79 42.585 102.219 42.2358 102.95 42.2358C103.632 42.2358 103.943 42.5366 103.943 42.9287C103.943 43.4551 103.39 43.5303 102.595 43.6162C101.564 43.729 100.237 43.8633 100.237 45.3457C100.237 46.4307 100.941 47.0859 102.128 47.0859C102.896 47.0859 103.541 46.812 103.965 46.1191V47H105.265V43.0361C105.265 41.8223 104.47 41.124 102.993 41.124ZM102.445 45.9741C101.886 45.9741 101.553 45.7593 101.553 45.2705C101.553 44.6528 102.08 44.5991 102.746 44.5132C103.175 44.4595 103.578 44.395 103.943 44.2715V44.7334C103.943 45.5068 103.283 45.9741 102.445 45.9741ZM112.161 41.2314H110.84V42.0854C110.523 41.4141 109.938 41.124 109.126 41.124C107.478 41.124 106.64 42.3164 106.64 43.8472C106.64 45.394 107.488 46.5918 109.11 46.5918C109.948 46.5918 110.512 46.2695 110.84 45.5928V46.7422C110.84 47.478 110.324 47.9829 109.422 47.9829C108.638 47.9829 108.127 47.5962 107.95 46.957L106.683 47.2686C106.989 48.3643 107.966 49.1001 109.417 49.1001C111.098 49.1001 112.161 48.1118 112.161 46.7046V41.2314ZM109.411 42.252C110.313 42.252 110.84 42.8804 110.84 43.8525C110.84 44.8247 110.313 45.4639 109.406 45.4639C108.509 45.4639 107.961 44.8301 107.961 43.8525C107.961 42.8804 108.503 42.252 109.411 42.252ZM118.837 43.7773C118.837 42.1499 117.865 41.124 116.275 41.124C114.589 41.124 113.536 42.2842 113.536 44.1426C113.536 45.9097 114.481 47.0859 116.249 47.0859C117.521 47.0859 118.343 46.4683 118.757 45.6143L117.602 45.2061C117.387 45.6089 117.011 45.9741 116.292 45.9741C115.368 45.9741 114.906 45.3457 114.863 44.5615H118.837V43.7773ZM116.254 42.2358C116.99 42.2358 117.479 42.6333 117.505 43.5786H114.868C114.959 42.7891 115.421 42.2358 116.254 42.2358ZM127.807 39.2979L125.696 45.3726L123.575 39.2979H122.119L124.885 47H126.491L129.263 39.2979H127.807ZM131.857 39.0723H130.423V40.4043H131.857V39.0723ZM131.798 41.2314H130.477V47H131.798V41.2314ZM138.748 47V39.1206H137.427V42.123C137.099 41.4463 136.503 41.124 135.67 41.124C134.07 41.124 133.227 42.3433 133.227 44.1104C133.227 45.8613 134.054 47.0859 135.692 47.0859C136.503 47.0859 137.11 46.7852 137.448 46.0386V47H138.748ZM135.993 45.958C135.08 45.958 134.548 45.2759 134.548 44.105C134.548 42.9233 135.085 42.252 135.993 42.252C136.895 42.252 137.427 42.9233 137.427 44.105C137.427 45.2759 136.9 45.958 135.993 45.958ZM145.489 43.7773C145.489 42.1499 144.517 41.124 142.927 41.124C141.24 41.124 140.188 42.2842 140.188 44.1426C140.188 45.9097 141.133 47.0859 142.9 47.0859C144.173 47.0859 144.995 46.4683 145.408 45.6143L144.253 45.2061C144.039 45.6089 143.663 45.9741 142.943 45.9741C142.019 45.9741 141.557 45.3457 141.514 44.5615H145.489V43.7773ZM142.905 42.2358C143.641 42.2358 144.13 42.6333 144.157 43.5786H141.52C141.611 42.7891 142.073 42.2358 142.905 42.2358ZM149.281 41.124C147.605 41.124 146.547 42.2788 146.547 44.105C146.547 45.9312 147.605 47.0859 149.281 47.0859C150.962 47.0859 152.02 45.9312 152.02 44.105C152.02 42.2788 150.962 41.124 149.281 41.124ZM149.281 42.252C150.178 42.252 150.699 42.9019 150.699 44.105C150.699 45.3135 150.178 45.958 149.281 45.958C148.389 45.958 147.868 45.3135 147.868 44.105C147.868 42.9019 148.389 42.252 149.281 42.252ZM162.494 41.5806C162.214 40.0068 161.011 39.1206 159.319 39.1206C157.026 39.1206 155.678 40.7373 155.678 43.2026C155.678 45.6626 157.021 47.1772 159.244 47.1772C161.065 47.1772 162.273 46.1621 162.542 44.5508L161.199 44.2715C161.033 45.3242 160.345 45.9043 159.276 45.9043C157.875 45.9043 157.063 44.8999 157.063 43.165C157.063 41.4624 157.842 40.3936 159.325 40.3936C160.334 40.3936 161.011 40.8877 161.146 41.8652L162.494 41.5806ZM166.329 41.124C164.653 41.124 163.595 42.2788 163.595 44.105C163.595 45.9312 164.653 47.0859 166.329 47.0859C168.01 47.0859 169.068 45.9312 169.068 44.105C169.068 42.2788 168.01 41.124 166.329 41.124ZM166.329 42.252C167.226 42.252 167.747 42.9019 167.747 44.105C167.747 45.3135 167.226 45.958 166.329 45.958C165.437 45.958 164.916 45.3135 164.916 44.105C164.916 42.9019 165.437 42.252 166.329 42.252ZM170.502 41.2314V47H171.823V43.729C171.823 42.9233 172.312 42.3057 173.161 42.3057C173.886 42.3057 174.219 42.7622 174.219 43.5356V47H175.54V43.106C175.54 41.876 174.853 41.124 173.596 41.124C172.645 41.124 172.129 41.5537 171.823 42.1177V41.2314H170.502ZM177.678 47H178.999V42.4077H180.315V41.2314H178.999V40.7373C178.999 40.5171 178.999 39.9263 179.848 39.9263C179.987 39.9263 180.143 39.9424 180.31 39.9746L180.379 38.8789C180.127 38.8306 179.848 38.7983 179.563 38.7983C178.387 38.7983 177.678 39.3086 177.678 40.5815V41.2314H176.625V42.4077H177.678V47ZM186.331 43.7773C186.331 42.1499 185.358 41.124 183.769 41.124C182.082 41.124 181.029 42.2842 181.029 44.1426C181.029 45.9097 181.975 47.0859 183.742 47.0859C185.015 47.0859 185.836 46.4683 186.25 45.6143L185.095 45.2061C184.88 45.6089 184.504 45.9741 183.785 45.9741C182.861 45.9741 182.399 45.3457 182.356 44.5615H186.331V43.7773ZM183.747 42.2358C184.483 42.2358 184.972 42.6333 184.999 43.5786H182.361C182.453 42.7891 182.915 42.2358 183.747 42.2358ZM187.765 41.2314V47H189.086V44.1855C189.086 42.9985 189.682 42.4507 190.654 42.4507C190.832 42.4507 191.003 42.4668 191.191 42.4937L191.229 41.2207C191.062 41.1885 190.912 41.1724 190.746 41.1724C190.026 41.1724 189.392 41.4355 189.086 42.2896V41.2314H187.765ZM197.202 43.7773C197.202 42.1499 196.229 41.124 194.64 41.124C192.953 41.124 191.9 42.2842 191.9 44.1426C191.9 45.9097 192.846 47.0859 194.613 47.0859C195.886 47.0859 196.708 46.4683 197.121 45.6143L195.966 45.2061C195.751 45.6089 195.375 45.9741 194.656 45.9741C193.732 45.9741 193.27 45.3457 193.227 44.5615H197.202V43.7773ZM194.618 42.2358C195.354 42.2358 195.843 42.6333 195.87 43.5786H193.232C193.324 42.7891 193.786 42.2358 194.618 42.2358ZM198.636 41.2314V47H199.957V43.729C199.957 42.9233 200.446 42.3057 201.294 42.3057C202.02 42.3057 202.353 42.7622 202.353 43.5356V47H203.674V43.106C203.674 41.876 202.986 41.124 201.729 41.124C200.779 41.124 200.263 41.5537 199.957 42.1177V41.2314H198.636ZM208.991 43.3154L210.27 43.0898C210.055 41.9404 209.206 41.124 207.761 41.124C206.064 41.124 205.049 42.252 205.049 44.1104C205.049 45.9526 206.042 47.0913 207.734 47.0913C209.179 47.0913 210.055 46.2642 210.27 45.1147L208.991 44.8892C208.857 45.5713 208.422 45.9526 207.734 45.9526C206.854 45.9526 206.37 45.3188 206.37 44.1211C206.37 42.9019 206.875 42.2627 207.761 42.2627C208.433 42.2627 208.857 42.6387 208.991 43.3154ZM213.025 39.0723H211.591V40.4043H213.025V39.0723ZM212.966 41.2314H211.645V47H212.966V41.2314ZM214.771 41.2314V47H216.092V43.729C216.092 42.9233 216.581 42.3057 217.429 42.3057C218.154 42.3057 218.487 42.7622 218.487 43.5356V47H219.809V43.106C219.809 41.876 219.121 41.124 217.864 41.124C216.914 41.124 216.398 41.5537 216.092 42.1177V41.2314H214.771ZM226.705 41.2314H225.384V42.0854C225.067 41.4141 224.481 41.124 223.67 41.124C222.021 41.124 221.184 42.3164 221.184 43.8472C221.184 45.394 222.032 46.5918 223.654 46.5918C224.492 46.5918 225.056 46.2695 225.384 45.5928V46.7422C225.384 47.478 224.868 47.9829 223.966 47.9829C223.182 47.9829 222.671 47.5962 222.494 46.957L221.227 47.2686C221.533 48.3643 222.51 49.1001 223.96 49.1001C225.642 49.1001 226.705 48.1118 226.705 46.7046V41.2314ZM223.955 42.252C224.857 42.252 225.384 42.8804 225.384 43.8525C225.384 44.8247 224.857 45.4639 223.95 45.4639C223.053 45.4639 222.505 44.8301 222.505 43.8525C222.505 42.8804 223.047 42.252 223.955 42.252Z" fill="white"/>
</svg>
