<svg width="228" height="51" viewBox="0 0 228 51" fill="none" xmlns="http://www.w3.org/2000/svg">
<path fill-rule="evenodd" clip-rule="evenodd" d="M11.3279 0H0L16.1597 36.8877C16.2831 37.1696 16.6821 37.1668 16.8018 36.8837L22.1763 24.1814L11.3279 0ZM202.195 27.8454H194.628V24.1731H206.243V29.6953V37.099H202.196L202.21 34.1903C201.13 35.9203 198.064 37.5581 195.024 37.5581C187.813 37.5581 183.175 32.8821 183.175 25.1008C183.175 17.3196 187.813 12.5504 195.024 12.5504C200.451 12.5504 205.29 15.5259 206.059 20.8051H201.672C201.114 17.7897 198.467 16.4815 195.282 16.4815C190.195 16.4815 187.403 19.1386 187.403 25.1008C187.403 30.6228 190.419 33.6856 195.024 33.6856C198.695 33.6856 202.16 31.5738 202.195 27.8454ZM228 13.1025V17.1184H215.058V22.7578H226.991V26.7742H215.058V33.0825H228V37.0989H210.828V13.1025H228ZM26.144 43.6335C28.4695 39.9495 45.8317 0 45.8317 0H57.3592C57.3592 0 40.2913 39.3172 38.2501 43.1017C36.4541 46.4313 33.2132 50.2017 28.7191 50.2017H18.3449C18.3099 50.2017 18.2814 50.1731 18.2814 50.1379C18.2814 50.1065 18.3041 50.0799 18.3349 50.0752C21.6497 49.5513 23.441 47.9165 26.144 43.6335ZM91.2054 32.0398C91.1814 32.0925 91.1067 32.0925 91.0827 32.0398L82.47 13.1045H77.6312C77.6312 13.1045 86.5077 33.1972 87.3943 34.6985C88.2608 36.1656 89.3093 37.3752 91.1441 37.3752C92.979 37.3752 94.0275 36.1656 94.894 34.6985C95.7806 33.1972 104.657 13.1045 104.657 13.1045H99.8183L91.2054 32.0398ZM109.725 25.1001C109.725 30.6223 112.79 33.6848 117.47 33.6848C122.134 33.6848 125.215 30.6223 125.215 25.1001C125.215 19.5779 122.134 16.5158 117.47 16.5158C112.79 16.5158 109.725 19.5779 109.725 25.1001ZM105.428 25.1006C105.428 17.3196 110.142 12.5504 117.471 12.5504C124.782 12.5504 129.513 17.3196 129.513 25.1006C129.513 32.8821 124.782 37.6513 117.471 37.6513C110.142 37.6513 105.428 32.8821 105.428 25.1006ZM154.268 13.1025V37.0989H149.308L137.745 19.5552V37.0989H133.515V13.1025H138.491L150.054 30.7632V13.1025H154.268ZM169.778 17.4579L165.612 27.2585H174.069L169.902 17.4579C169.879 17.4029 169.802 17.4029 169.778 17.4579ZM166.331 15.4849C167.033 14.1568 168.097 12.8287 169.84 12.8287C171.582 12.8287 172.647 14.1568 173.349 15.4849C174.068 16.8459 182.671 37.0995 182.671 37.0995H178.251L175.781 31.2889H163.899L161.428 37.0995H157.008C157.008 37.0995 165.611 16.8459 166.331 15.4849Z" fill="white"/>
</svg>
