<svg xmlns="http://www.w3.org/2000/svg" width="27" height="28" viewBox="0 0 27 28">
    <g fill="#FFF" fill-rule="evenodd">
        <path d="M17.537 15.286c-.393-.134-.802-.269-1.227-.408-.733-.24-1.487-.488-2.214-.753v-2.18c.572-.38 1.624-1.355 1.75-3.426.43-.276.702-.87.702-1.63 0-.665-.21-1.205-.551-1.513.286-.72.754-1.974.431-3.262C16.038.553 13.821 0 12.041 0h-.001c-1.578 0-3.497.434-4.186 1.617-.605-.032-1.076.129-1.407.488-.785.848-.349 2.428-.09 3.32a1.402 1.402 0 0 0-.347.432c-.155.294-.24.676-.24 1.074 0 .742.272 1.323.703 1.592.128 2.07 1.18 3.043 1.75 3.423v2.179c-.727.265-1.481.512-2.213.753-2.762.907-4.942 1.623-5.393 2.976C.037 19.592 0 22.663 0 22.792a.586.586 0 0 0 .587.59l13.723.001a7.572 7.572 0 0 1-.214-1.754c0-2.648 1.37-4.982 3.441-6.343M26.005 22.517h-3.723v3.724a.932.932 0 0 1-1.862 0v-3.724h-3.724a.931.931 0 1 1 0-1.862h3.724v-3.724a.93.93 0 1 1 1.862 0v3.724h3.723a.931.931 0 1 1 0 1.862"/>
    </g>
</svg>
