<svg xmlns="http://www.w3.org/2000/svg" xmlns:xlink="http://www.w3.org/1999/xlink" width="21" height="21" viewBox="0 0 21 21">
    <defs>
        <path id="a" d="M0 6.411h6.157V.255H0z"/>
        <path id="c" d="M6.113 6.061V.297H.35v5.764z"/>
    </defs>
    <g fill="none" fill-rule="evenodd">
        <g transform="translate(0 14.492)">
            <mask id="b" fill="#fff">
                <use xlink:href="#a"/>
            </mask>
            <path fill="#FFF" d="M.011 5.886a.428.428 0 0 0 .514.514l5.528-1.296a.432.432 0 0 0 .104-.04L1.347.255a.422.422 0 0 0-.04.104L.012 5.886z" mask="url(#b)"/>
        </g>
        <path fill="#FFF" d="M18.082 7.657l.605-.604-4.836-4.836-.604.604zM6.775 18.965L17.478 8.26l-4.836-4.835L1.939 14.129z"/>
        <g transform="translate(14.105 .387)">
            <mask id="d" fill="#fff">
                <use xlink:href="#c"/>
            </mask>
            <path fill="#FFF" d="M5.186 6.061l.303-.302a2.139 2.139 0 0 0 0-3.022L3.675.923A2.124 2.124 0 0 0 2.164.297C1.593.297 1.057.52.653.923l-.303.302 4.836 4.836z" mask="url(#d)"/>
        </g>
    </g>
</svg>
