<?xml version="1.0" encoding="utf-8"?>
<!-- Generator: Adobe Illustrator 19.1.0, SVG Export Plug-In . SVG Version: 6.00 Build 0)  -->
<svg version="1.1" id="Layer_1" xmlns="http://www.w3.org/2000/svg" xmlns:xlink="http://www.w3.org/1999/xlink" x="0px" y="0px"
	 viewBox="0 0 25 20" style="enable-background:new 0 0 25 20;" xml:space="preserve">
<style type="text/css">
	.st0{fill:#99999A;}
	.st1{fill:#FFFFFF;}
	.st2{fill:#C31F4A;}
	.st3{fill:#1A1A1A;}
	.st4{fill:#C4BAB3;}
	.st5{fill:#54B850;}
</style>
<g>
	<path class="st4" d="M13.1,1.2c-0.2-0.1-0.3,0-0.5,0.1L6.8,7H4C3.1,7,2.3,7.8,2.3,8.7v2.5C2.3,12.2,3.1,13,4,13h2.8l5.8,5.8
		c0.1,0.1,0.2,0.1,0.3,0.1c0.1,0,0.1,0,0.2,0c0.2-0.1,0.3-0.2,0.3-0.4V1.5C13.3,1.4,13.2,1.2,13.1,1.2z"/>
	<path class="st4" d="M19.5,2.9c-0.2-0.2-0.4-0.1-0.6,0c-0.2,0.2-0.1,0.4,0,0.6c1.8,1.6,2.8,3.9,2.8,6.4s-1,4.9-2.8,6.4
		c-0.2,0.2-0.2,0.4,0,0.6c0.1,0.1,0.2,0.1,0.3,0.1c0.1,0,0.2,0,0.3-0.1c2-1.7,3.1-4.3,3.1-7.1S21.5,4.6,19.5,2.9z"/>
	<path class="st4" d="M17.4,4.6c-0.2-0.1-0.4-0.1-0.6,0.1c-0.1,0.2-0.1,0.4,0.1,0.6c1.4,1.2,2.4,3.1,2.4,4.7c0,1.7-0.9,3.6-2.4,4.7
		c-0.2,0.1-0.2,0.4-0.1,0.6c0.1,0.1,0.2,0.2,0.3,0.2c0.1,0,0.2,0,0.3-0.1c1.6-1.4,2.7-3.5,2.7-5.4C20.1,8.1,19.1,5.9,17.4,4.6z"/>
	<path class="st4" d="M15.7,6.7c-0.2-0.1-0.5-0.1-0.6,0.1C15,7,15,7.2,15.2,7.4c0.7,0.5,1.5,1.4,1.5,2.6c0,1.3-0.8,2.1-1.5,2.6
		C15,12.8,15,13,15.1,13.2c0.1,0.1,0.2,0.2,0.3,0.2c0.1,0,0.2,0,0.2-0.1c1.2-0.9,1.9-2,1.9-3.3C17.6,8.7,16.9,7.6,15.7,6.7z"/>
</g>
</svg>
