<svg fill="#fff" xmlns="http://www.w3.org/2000/svg"  viewBox="0 0 50 50" width="50px" height="50px"><path d="M4,12.75C4,7.918,7.918,4,12.75,4h24.5C42.082,4,46,7.918,46,12.75v24.5c0,4.832-3.918,8.75-8.75,8.75h-24.5 C7.918,46,4,42.082,4,37.25V12.75z M10.506,14.674c-0.676,0.222-0.676,1.179,0,1.402c1.558,0.512,2.78,1.735,3.293,3.293 c0.223,0.676,1.179,0.676,1.402,0c0.512-1.558,1.735-2.78,3.293-3.293c0.677-0.223,0.677-1.179,0-1.402 c-1.558-0.512-2.78-1.735-3.293-3.293c-0.222-0.677-1.179-0.677-1.402,0C13.287,12.94,12.064,14.162,10.506,14.674z M31.956,13.527 c-0.264-0.802-1.398-0.802-1.662,0L29.06,17.28c-0.608,1.848-2.057,3.297-3.905,3.905l-3.752,1.234 c-0.802,0.264-0.802,1.399,0,1.662l3.753,1.234c1.848,0.608,3.297,2.057,3.905,3.905l1.234,3.752c0.264,0.802,1.399,0.802,1.662,0 l1.234-3.752c0.608-1.848,2.057-3.297,3.905-3.905l3.753-1.234c0.802-0.264,0.802-1.399,0-1.662l-3.753-1.234 c-1.848-0.608-3.297-2.057-3.905-3.905L31.956,13.527z M18.831,29.277c-0.264-0.802-1.398-0.802-1.662,0l-0.151,0.46 c-0.608,1.848-2.057,3.297-3.905,3.905l-0.46,0.151c-0.802,0.264-0.802,1.399,0,1.662l0.46,0.151 c1.848,0.608,3.297,2.057,3.905,3.905l0.151,0.46c0.264,0.802,1.399,0.802,1.662,0l0.151-0.46c0.608-1.848,2.057-3.297,3.905-3.905 l0.46-0.151c0.802-0.264,0.802-1.399,0-1.662l-0.46-0.151c-1.848-0.608-3.297-2.057-3.905-3.905L18.831,29.277z"/></svg>