<svg width="28" height="20" viewBox="0 0 28 20" fill="none" xmlns="http://www.w3.org/2000/svg">
<g id="Group">
<path id="Shape" fill-rule="evenodd" clip-rule="evenodd" d="M24.1852 2.00184L22.8035 1.98725L22.4744 1.60731C21.9566 0.803656 21.1798 0 20.1442 0H16.2605C15.2248 0 14.4481 0.535771 13.9302 1.60731L13.6713 1.8752H9.78764V0H7.19851V1.8752C5.64503 1.8752 4.60938 3.21462 4.60938 4.55405V8.84021C5.1272 8.84021 12.3903 7.2329 12.3903 17.1447H24.5457C26.0992 17.1447 27.1348 15.8052 27.1348 14.4658V4.55405C27.3937 2.94674 26.0992 1.8752 24.8046 1.8752L24.1852 2.00184ZM17.5691 13.7157C15.2822 13.7157 13.2493 11.6411 13.2493 9.30709C13.2493 6.97311 15.2822 4.89847 17.5691 4.89847C19.856 4.89847 21.8889 6.97311 21.8889 9.30709C21.8889 11.9004 19.856 13.7157 17.5691 13.7157Z" fill="#131415"/>
<g id="Group_2">
<path id="Shape_2" d="M1 13.8736L2.12794 16.0054L3.25588 13.8736" stroke="#131415" stroke-width="1.5"/>
<path id="Shape_3" d="M10.0235 16.0054L9.1211 13.8736L7.76758 15.7009" stroke="#131415" stroke-width="1.5"/>
<path id="Shape_4" d="M9.12114 13.8736C9.34049 16.2126 8.0836 18.2592 6.41409 18.9493C5.06708 19.1363 3.8102 18.8439 2.80469 17.4266" stroke="#131415" stroke-width="1.5"/>
<path id="Shape_5" d="M1.90186 15.9039C1.5148 13.6796 2.75619 11.1771 4.60892 10.8282C5.98381 10.621 7.47348 11.1771 8.21832 12.3509" stroke="#131415" stroke-width="1.5"/>
</g>
</g>
</svg>
