<?xml version="1.0" encoding="utf-8"?>
<!-- Generator: Adobe Illustrator 19.1.0, SVG Export Plug-In . SVG Version: 6.00 Build 0)  -->
<svg version="1.1" id="Layer_1" xmlns="http://www.w3.org/2000/svg" xmlns:xlink="http://www.w3.org/1999/xlink" x="0px" y="0px"
	 viewBox="0 0 25 20" style="enable-background:new 0 0 25 20;" xml:space="preserve">
<style type="text/css">
	.st0{fill:#99999A;}
	.st1{fill:#FFFFFF;}
	.st2{fill:#C31F4A;}
	.st3{fill:#1A1A1A;}
	.st4{fill:#C4BAB3;}
	.st5{fill:#54B850;}
</style>
<g>
	<path class="st0" d="M19.7,8.9c0.2-0.2,0.4-0.2,0.6,0l0.2,0.2c0.2-0.5,0.2-0.8,0.2-0.8c0.3-1.8-0.3-3.7-1.6-5.2
		c-1.7-2-4.6-3.2-7.6-3.2c-5,0-9.1,3.4-9.1,7.5c0,2,0.8,3.8,2.4,5.1l-1.5,3.5c-0.1,0.2,0,0.3,0.1,0.5c0.1,0.1,0.2,0.1,0.3,0.1
		c0.1,0,0.1,0,0.2,0l4.5-2c0.8,0.2,1.4,0.3,2,0.3c1.4,0,2.7-0.2,3.7-0.4L19.7,8.9z"/>
	<path class="st0" d="M22.4,12.2l-2.1-2.1c0,0-0.1-0.1-0.2-0.1c0,0,0,0,0,0L20,9.8l-1.7,1.7l2.7,2.7l1.4-1.4
		c0.1-0.1,0.1-0.2,0.1-0.3C22.5,12.4,22.5,12.3,22.4,12.2z"/>
	<polygon class="st0" points="16,13.9 16,13.9 13.8,16.1 16.4,18.8 20.4,14.8 17.8,12.1 	"/>
	<path class="st0" d="M12.5,19.5c0,0.1,0,0.3,0.1,0.4c0.1,0.1,0.2,0.1,0.3,0.1c0,0,0.1,0,0.1,0l2.7-0.8l-2.4-2.4L12.5,19.5z"/>
</g>
</svg>
