<?xml version="1.0" encoding="utf-8"?>
<!-- Generator: Adobe Illustrator 19.1.0, SVG Export Plug-In . SVG Version: 6.00 Build 0)  -->
<svg version="1.1" id="Layer_1" xmlns="http://www.w3.org/2000/svg" xmlns:xlink="http://www.w3.org/1999/xlink" x="0px" y="0px"
	 viewBox="0 0 25 20" style="enable-background:new 0 0 25 20;" xml:space="preserve">
<style type="text/css">
	.st0{fill:#99999A;}
	.st1{fill:#FFFFFF;}
	.st2{fill:#C31F4A;}
	.st3{fill:#00ADEE;}
	.st4{fill:#C4BAB3;}
	.st5{fill:#5F6062;}
	.st6{fill:#C31F4B;}
	.st7{fill:none;}
	.st8{fill:#C5BBB4;}
</style>
<path class="st8" d="M17.7,4.9c-0.2-0.2-0.4-0.2-0.6,0l-4.6,4.5L7.9,4.9c-0.2-0.2-0.4-0.2-0.6,0c-0.2,0.2-0.2,0.4,0,0.6l4.5,4.5
	l-4.5,4.4c-0.2,0.2-0.2,0.4,0,0.6c0.1,0.1,0.2,0.1,0.3,0.1c0.1,0,0.2,0,0.3-0.1l4.5-4.4l4.4,4.4c0.1,0.1,0.2,0.1,0.3,0.1
	c0.1,0,0.2,0,0.3-0.1c0.2-0.2,0.2-0.4,0-0.6l-4.4-4.4l4.6-4.5C17.9,5.4,17.9,5.1,17.7,4.9z"/>
</svg>
