<?xml version="1.0" encoding="utf-8"?>
<!-- Generator: Adobe Illustrator 19.1.0, SVG Export Plug-In . SVG Version: 6.00 Build 0)  -->
<svg version="1.1" id="Layer_1" xmlns="http://www.w3.org/2000/svg" xmlns:xlink="http://www.w3.org/1999/xlink" x="0px" y="0px"
	 viewBox="0 0 25 20" style="enable-background:new 0 0 25 20;" xml:space="preserve">
<style type="text/css">
	.st0{fill:#99999A;}
	.st1{fill:#FFFFFF;}
	.st2{fill:#C31F4A;}
	.st3{fill:#00ADEE;}
	.st4{fill:#C4BAB3;}
	.st5{fill:#5F6062;}
	.st6{fill:#C31F4B;}
	.st7{fill:none;}
</style>
<g>
	<path class="st1" d="M7.3,14.6c0,0.1,0,0.1,0,0.2c0,0.1,0.1,0.1,0.1,0.2c0.1,0.1,0.1,0.1,0.2,0.1c0.1,0,0.1,0,0.2,0l6.1,0
		c0.3,0,0.5-0.2,0.5-0.5c0-0.3-0.2-0.5-0.5-0.5H9.2l8.3-8.3c0.2-0.2,0.2-0.6,0-0.8c-0.2-0.2-0.6-0.2-0.8,0l-8.3,8.3V8.5
		c0-0.3-0.2-0.5-0.5-0.5c-0.3,0-0.5,0.2-0.5,0.5V14.6z"/>
</g>
</svg>
