<svg xmlns="http://www.w3.org/2000/svg" width="23" height="18" viewBox="0 0 23 18">
    <g fill="#FFF" fill-rule="evenodd">
        <path d="M10.397 16.286a1.262 1.262 0 1 0 2.524 0 1.262 1.262 0 0 0-2.524 0M.711 5.337a.965.965 0 1 0 1.364 1.364 13.466 13.466 0 0 1 9.585-3.97c3.62 0 7.024 1.41 9.585 3.97a.963.963 0 1 0 1.363-1.364A15.384 15.384 0 0 0 11.66.802 15.382 15.382 0 0 0 .711 5.337"/>
        <path d="M4.282 8.91a.963.963 0 0 0 0 1.362.962.962 0 0 0 1.364 0 8.45 8.45 0 0 1 6.013-2.49c2.272 0 4.408.884 6.015 2.49a.96.96 0 0 0 1.363 0 .959.959 0 0 0 0-1.363 10.37 10.37 0 0 0-7.378-3.056 10.366 10.366 0 0 0-7.377 3.056M7.853 13.845a.964.964 0 0 0 1.363-.001 3.435 3.435 0 0 1 2.443-1.012c.923 0 1.791.36 2.443 1.012a.964.964 0 0 0 1.364-1.363 5.343 5.343 0 0 0-3.807-1.578 5.34 5.34 0 0 0-3.806 1.578.962.962 0 0 0 0 1.364"/>
    </g>
</svg>
