<?xml version="1.0" encoding="utf-8"?>
<!-- Generator: Adobe Illustrator 19.1.0, SVG Export Plug-In . SVG Version: 6.00 Build 0)  -->
<svg version="1.1" id="Layer_1" xmlns="http://www.w3.org/2000/svg" xmlns:xlink="http://www.w3.org/1999/xlink" x="0px" y="0px"
	 viewBox="0 0 25 20" style="enable-background:new 0 0 25 20;" xml:space="preserve">
<style type="text/css">
	.st0{fill:#99999A;}
	.st1{fill:#FFFFFF;}
	.st2{fill:#C31F4A;}
	.st3{fill:#1A1A1A;}
	.st4{fill:#C4BAB3;}
	.st5{fill:#54B850;}
	.st6{fill:#5F6062;}
	.st7{fill:#C31F4B;}
	.st8{fill:#00ADEE;}
	.st9{fill:none;}
</style>
<g>
	<path class="st6" d="M7.1,6.2c0,0.1,0.1,0.2,0.2,0.2h1.1v8.8c0,0.1,0.1,0.2,0.2,0.2h7.7c0.1,0,0.2-0.1,0.2-0.2V6.4h1.1
		c0.1,0,0.2-0.1,0.2-0.2c0-0.1-0.1-0.2-0.2-0.2h-1.4h-1.6V4.8c0-0.1-0.1-0.2-0.2-0.2h-4.1c-0.1,0-0.2,0.1-0.2,0.2v1.1H8.7H7.3
		C7.2,5.9,7.1,6,7.1,6.2z M14.5,7.7c0.1,0,0.2,0.1,0.2,0.2v5.2c0,0.1-0.1,0.2-0.2,0.2c-0.1,0-0.2-0.1-0.2-0.2V8
		C14.3,7.8,14.4,7.7,14.5,7.7z M12.7,8v5.2c0,0.1-0.1,0.2-0.2,0.2c-0.1,0-0.2-0.1-0.2-0.2V8c0-0.1,0.1-0.2,0.2-0.2
		C12.6,7.7,12.7,7.8,12.7,8z M10.7,8v5.2c0,0.1-0.1,0.2-0.2,0.2c-0.1,0-0.2-0.1-0.2-0.2V8c0-0.1,0.1-0.2,0.2-0.2
		C10.6,7.7,10.7,7.8,10.7,8z M10.7,5h3.6v0.9h-3.6V5z"/>
</g>
</svg>
