<?xml version="1.0" encoding="utf-8"?>
<!-- Generator: Adobe Illustrator 19.1.0, SVG Export Plug-In . SVG Version: 6.00 Build 0)  -->
<svg version="1.1" id="Layer_1" xmlns="http://www.w3.org/2000/svg" xmlns:xlink="http://www.w3.org/1999/xlink" x="0px" y="0px"
	 viewBox="0 0 25 20" style="enable-background:new 0 0 25 20;" xml:space="preserve">
<style type="text/css">
	.st0{fill:#99999A;}
	.st1{fill:#FFFFFF;}
	.st2{fill:#C31F4A;}
	.st3{fill:#1A1A1A;}
	.st4{fill:#C4BAB3;}
	.st5{fill:#54B850;}
	.st6{fill:#5F6062;}
	.st7{fill:#C31F4B;}
	.st8{fill:#00ADEE;}
	.st9{fill:none;}
</style>
<g>
	<path class="st8" d="M12.2,12.7c0.1,0.1,0.2,0.1,0.3,0.1c0.1,0,0.2,0,0.3-0.1l3.6-3.6c0.2-0.2,0.2-0.5,0-0.6
		c-0.2-0.2-0.5-0.2-0.6,0l-3.3,3.3L9.2,8.5C9,8.3,8.8,8.3,8.6,8.5c-0.2,0.2-0.2,0.5,0,0.6L12.2,12.7z"/>
	<path class="st8" d="M17.5,14H7.5c-0.2,0-0.5,0.2-0.5,0.5c0,0.2,0.2,0.5,0.5,0.5h9.9c0.2,0,0.5-0.2,0.5-0.5
		C17.9,14.2,17.7,14,17.5,14z"/>
	<path class="st8" d="M12,5.6v5.9c0,0.2,0.2,0.5,0.5,0.5c0.2,0,0.5-0.2,0.5-0.5V5.6c0-0.2-0.2-0.5-0.5-0.5C12.3,5.1,12,5.3,12,5.6z"
		/>
</g>
</svg>
