<?xml version="1.0" encoding="utf-8"?>
<!-- Generator: Adobe Illustrator 19.1.0, SVG Export Plug-In . SVG Version: 6.00 Build 0)  -->
<svg version="1.1" id="Layer_1" xmlns="http://www.w3.org/2000/svg" xmlns:xlink="http://www.w3.org/1999/xlink" x="0px" y="0px"
	 viewBox="0 0 25 20" style="enable-background:new 0 0 25 20;" xml:space="preserve">
<style type="text/css">
	.st0{fill:#99999A;}
	.st1{fill:#FFFFFF;}
	.st2{fill:#C31F4A;}
	.st3{fill:#00ADEE;}
	.st4{fill:#C4BAB3;}
	.st5{fill:#5F6062;}
	.st6{fill:#C31F4B;}
	.st7{fill:none;}
</style>
<g>
	<path class="st3" d="M5.9,9.2c0.7,0,1.3-0.3,1.8-0.7C8.1,8,8.4,7.4,8.4,6.7l0-0.5c2.7-0.2,5.5-0.2,8.2,0l0,0.5
		c0,1.4,1.1,2.5,2.5,2.5l3,0c0.7,0,1.3-0.3,1.8-0.7c0.5-0.5,0.7-1.1,0.7-1.8l0-1.6c0-1.7-1.2-3.1-2.8-3.4c-6.1-1.2-12.5-1.2-18.6,0
		c-0.7,0.1-1.3,0.5-1.8,1c-0.7,0.7-1,1.5-1,2.5l0,1.6c0,1.4,1.1,2.5,2.5,2.5L5.9,9.2z"/>
	<path class="st3" d="M12.2,19.2C12.3,19.2,12.3,19.2,12.2,19.2c0.2,0.1,0.3,0.1,0.5,0c0,0,0,0,0,0c0.1,0,0.1-0.1,0.2-0.1l4.6-4.6
		c0.2-0.2,0.2-0.5,0-0.7s-0.5-0.2-0.7,0L13,17.6V9.6c0-0.3-0.2-0.5-0.5-0.5c-0.1,0-0.3,0.1-0.4,0.1S12,9.5,12,9.6l0,7.9l-3.7-3.7
		c-0.2-0.2-0.5-0.2-0.7,0c-0.2,0.2-0.2,0.5,0,0.7L12.2,19.2C12.2,19.2,12.2,19.2,12.2,19.2z"/>
</g>
</svg>
