<svg xmlns="http://www.w3.org/2000/svg" width="27" height="18" viewBox="0 0 27 18">
    <path fill="#99999A" fill-rule="evenodd" d="M3.689 7.522a.353.353 0 0 0-.244 0C1.116 8.508-.032 9.688.001 11.064c-.038 1.488 1.31 2.74 4.045 3.753 1.846.699 3.958 1.154 6.336 1.364l.715.049-.91.91a.31.31 0 0 0-.097.227.31.31 0 0 0 .097.228.31.31 0 0 0 .228.097.31.31 0 0 0 .227-.097l1.43-1.43a.298.298 0 0 0 .097-.211v-.016a.367.367 0 0 0-.114-.244l-1.413-1.414a.31.31 0 0 0-.227-.097.31.31 0 0 0-.228.097.31.31 0 0 0-.097.228.31.31 0 0 0 .097.227l.829.829a23.098 23.098 0 0 1-.585-.033c-2.312-.2-4.364-.64-6.157-1.316C1.896 13.333.688 12.282.65 11.064c.032-1.116 1.045-2.096 3.038-2.94.089-.031.149-.09.178-.18a.263.263 0 0 0 0-.243.324.324 0 0 0-.178-.179zm19.186.357c.041.09.1.15.18.18 2.099.866 3.166 1.868 3.2 3.005-.038 1.218-1.251 2.269-3.64 3.151-2.138.805-4.656 1.27-7.554 1.398a.344.344 0 0 0-.227.097.368.368 0 0 0-.082.244.286.286 0 0 0 .098.211c.072.067.154.1.243.097 2.973-.133 5.556-.615 7.75-1.445v.016c2.746-1.021 4.1-2.278 4.061-3.77.035-1.397-1.167-2.6-3.606-3.606a.352.352 0 0 0-.244 0 .412.412 0 0 0-.179.179.351.351 0 0 0 0 .243zM16.182 0h-5.605c-1.204 0-1.854.558-1.95 1.673h-1.64c-1.517 0-2.275.759-2.275 2.275v6.71c0 1.516.758 2.274 2.275 2.274h12.785c1.517 0 2.275-.758 2.275-2.275v-6.71c0-1.515-.758-2.274-2.275-2.274h-1.657C18.031.558 17.386 0 16.182 0zm.471 6.174v.016c.077.274.115.567.114.877 0 .912-.326 1.692-.975 2.34a3.189 3.189 0 0 1-2.34.974 3.189 3.189 0 0 1-2.339-.974 3.189 3.189 0 0 1-.975-2.34c0-.31.032-.603.098-.877.15-.542.443-1.03.877-1.462a3.189 3.189 0 0 1 2.34-.975c.912 0 1.691.325 2.34.975.418.419.705.9.86 1.446zm-5.085-.991a2.653 2.653 0 0 0-.699 1.17 3.08 3.08 0 0 0-.08.714c-.001.734.259 1.363.78 1.885.521.52 1.15.78 1.884.78a2.57 2.57 0 0 0 1.884-.78c.52-.522.78-1.15.78-1.885 0-.253-.033-.491-.097-.715h.016c-.127-.44-.36-.83-.699-1.17a2.57 2.57 0 0 0-1.884-.78 2.57 2.57 0 0 0-1.885.78z"/>
</svg>
