<svg width="33" height="13" viewBox="0 0 33 13" fill="none" xmlns="http://www.w3.org/2000/svg">
<path d="M16.3917 0H16.4114C17.771 0 19.272 0.129161 20.9119 0.38468C22.5708 0.64186 24.1697 1.01771 25.7086 1.51141C27.2641 2.00947 28.6491 2.63945 29.8513 3.40971C31.0878 4.20147 32.0035 5.17653 32.432 6.37375L32.4368 6.38759C32.8772 7.67341 32.9009 8.93568 32.3888 10.0965L31.7914 11.4452L31.7611 11.497C31.5107 11.9255 31.1457 12.2747 30.6614 12.4747C30.3824 12.5903 30.0961 12.6313 29.8301 12.6313C29.5698 12.6313 29.3081 12.5918 29.0545 12.5283L28.5466 12.4141L28.5355 12.4116C27.9934 12.2897 27.1305 12.0958 25.954 11.8308C24.2166 11.4397 22.725 10.7701 22.0815 9.53247C21.6326 8.70723 21.3331 7.7966 21.5407 6.92788C21.5039 6.8822 21.4205 6.79686 21.248 6.68272L21.2274 6.66874C20.847 6.40407 20.1537 6.16407 19.0113 6.05389C17.8131 5.9401 16.963 5.88652 16.431 5.88652H16.4128C15.8541 5.88652 14.9873 5.94524 13.7879 6.07024C12.6543 6.19126 11.9369 6.42896 11.5258 6.69608C11.3518 6.81177 11.2685 6.89793 11.2322 6.94354C11.437 7.80429 11.1515 8.71985 10.7175 9.56053L10.7051 9.58387C10.0455 10.7879 8.56546 11.4568 6.83178 11.8623C5.20587 12.2411 4.14244 12.4791 3.68477 12.5606C3.44049 12.6211 3.18544 12.6602 2.92957 12.6602C2.66141 12.6602 2.3787 12.6181 2.10225 12.5035C1.62087 12.3047 1.25345 11.9582 1.00191 11.5235L0.972524 11.4727L0.378474 10.1251C-0.134968 8.96251 -0.103534 7.70213 0.337111 6.41868L0.342012 6.40472C0.771894 5.20676 1.68829 4.23073 2.92754 3.43752C4.12899 2.6662 5.51355 2.03334 7.07139 1.53091C8.61066 1.03405 10.2107 0.655302 11.8692 0.393736C13.5178 0.133739 15.0274 0.00152161 16.3917 0Z" fill="white"/>
</svg>
