<svg xmlns="http://www.w3.org/2000/svg" width="34" height="21" viewBox="0 0 34 21">
    <g fill="none" fill-rule="evenodd">
        <path fill="#FFF" d="M20.62 8.306c.02 1.45 1.176 2.607 2.58 2.586l3.816-.056c1.404-.021 2.528-1.215 2.507-2.664l-.03-2.161c-.026-1.874-1.325-3.461-3.11-3.81A57.342 57.342 0 0 0 3 2.553c-1.77.4-3.026 2.03-3 3.901l.03 2.161c.021 1.45 1.176 2.608 2.582 2.587l3.816-.058c1.404-.02 2.526-1.213 2.506-2.663l-.018-1.313a58.51 58.51 0 0 1 11.685-.174l.02 1.313z"/>
        <path stroke="#FFF" stroke-linecap="round" stroke-linejoin="round" d="M15.23 20.383l.037-8.31m4.123 4.545l-4.031 4.22-4.15-4.1"/>
    </g>
</svg>
