<?xml version="1.0" encoding="utf-8"?>
<!-- Generator: Adobe Illustrator 19.1.0, SVG Export Plug-In . SVG Version: 6.00 Build 0)  -->
<svg version="1.1" id="Layer_1" xmlns="http://www.w3.org/2000/svg" xmlns:xlink="http://www.w3.org/1999/xlink" x="0px" y="0px"
	 viewBox="0 0 25 20" style="enable-background:new 0 0 25 20;" xml:space="preserve">
<style type="text/css">
	.st0{fill:#99999A;}
	.st1{fill:#FFFFFF;}
	.st2{fill:#C31F4A;}
	.st3{fill:#1A1A1A;}
	.st4{fill:#C4BAB3;}
	.st5{fill:#54B850;}
</style>
<g>
	<path class="st0" d="M0.3,1.6v16.8c0,0.5,0.4,0.8,0.8,0.8h15.3c0.5,0,0.8-0.4,0.8-0.8V1.6c0-0.5-0.4-0.8-0.8-0.8H1.2
		C0.7,0.8,0.3,1.2,0.3,1.6z"/>
	<path class="st0" d="M19.7,14.3v4.5c0,0.1,0.1,0.2,0.2,0.2h4.5c0.1,0,0.2-0.1,0.2-0.2v-4.5c0-0.1-0.1-0.2-0.2-0.2h-4.5
		C19.8,14.1,19.7,14.2,19.7,14.3z"/>
	<path class="st0" d="M19.7,7.5V12c0,0.1,0.1,0.2,0.2,0.2h4.5c0.1,0,0.2-0.1,0.2-0.2V7.5c0-0.1-0.1-0.2-0.2-0.2h-4.5
		C19.8,7.2,19.7,7.3,19.7,7.5z"/>
	<path class="st0" d="M19.7,1v4.5c0,0.1,0.1,0.2,0.2,0.2h4.5c0.1,0,0.2-0.1,0.2-0.2V1c0-0.1-0.1-0.2-0.2-0.2h-4.5
		C19.8,0.8,19.7,0.9,19.7,1z"/>
</g>
</svg>
