<svg xmlns="http://www.w3.org/2000/svg" width="32" height="27" viewBox="0 0 32 27">
    <path fill="#728A95" fill-rule="evenodd" d="M31.467 0H.533A.533.533 0 0 0 0 .533v20.254c0 .294.239.533.533.533h8v4.797a.532.532 0 0 0 .88.406l6.11-5.203h15.944a.533.533 0 0 0 .533-.533V.533A.533.533 0 0 0 31.467 0zM6.724 14.391c0-.294.24-.533.534-.533h12.105a.533.533 0 0 1 0 1.066H7.258a.533.533 0 0 1-.534-.533zm18.551-8.528a.533.533 0 0 1-.533.533H7.258a.533.533 0 0 1 0-1.066h17.484c.294 0 .533.239.533.533zm0 4.171a.533.533 0 0 1-.533.533H7.258a.533.533 0 0 1 0-1.066h17.484c.294 0 .533.239.533.533z"/>
</svg>
