<svg xmlns="http://www.w3.org/2000/svg" width="24" height="20" viewBox="0 0 24 20">
    <path fill="#FFF" fill-rule="evenodd" d="M23.58 0H.4a.4.4 0 0 0-.4.4v15.177c0 .22.179.4.4.4h5.995v3.594a.399.399 0 0 0 .658.304l4.58-3.899H23.58a.4.4 0 0 0 .4-.4V.4a.4.4 0 0 0-.4-.399zM5.039 10.784a.4.4 0 0 1 .4-.4h9.07a.4.4 0 0 1 0 .8H5.44a.4.4 0 0 1-.4-.4zm13.901-6.39a.4.4 0 0 1-.4.399H5.44a.4.4 0 0 1 0-.799H18.54a.4.4 0 0 1 .4.4zm0 3.125a.4.4 0 0 1-.4.4H5.44a.4.4 0 0 1 0-.8H18.54a.4.4 0 0 1 .4.4z"/>
</svg>
