<?xml version="1.0" encoding="utf-8"?>
<!-- Generator: Adobe Illustrator 19.1.0, SVG Export Plug-In . SVG Version: 6.00 Build 0)  -->
<svg version="1.1" id="Layer_1" xmlns="http://www.w3.org/2000/svg" xmlns:xlink="http://www.w3.org/1999/xlink" x="0px" y="0px"
	 viewBox="0 0 25 20" style="enable-background:new 0 0 25 20;" xml:space="preserve">
<style type="text/css">
	.st0{fill:#99999A;}
	.st1{fill:#FFFFFF;}
	.st2{fill:#C31F4A;}
	.st3{fill:#1A1A1A;}
	.st4{fill:#C4BAB3;}
	.st5{fill:#54B850;}
</style>
<g>
	<path class="st4" d="M12.5,15.3c2.8,0,5-2.1,5.2-4.8H7.3C7.5,13.1,9.7,15.3,12.5,15.3z"/>
	<path class="st4" d="M7.3,9.6h10.5V8.2h-3.6c-0.2,0-0.4-0.2-0.4-0.4c0-0.2,0.2-0.4,0.4-0.4h3.6V5.6h-3.6c-0.2,0-0.4-0.2-0.4-0.4
		c0-0.2,0.2-0.4,0.4-0.4h3.6c-0.2-2-1.4-3.7-3.2-4.4v2.4c0,0.2-0.2,0.4-0.4,0.4c-0.2,0-0.4-0.2-0.4-0.4V0.1C13.4,0.1,13.2,0,12.9,0
		v2.8c0,0.2-0.2,0.4-0.4,0.4c-0.2,0-0.4-0.2-0.4-0.4V0c-0.3,0-0.5,0.1-0.8,0.1v2.7c0,0.2-0.2,0.4-0.4,0.4c-0.2,0-0.4-0.2-0.4-0.4
		V0.4c-1.8,0.7-3,2.4-3.2,4.4h3.6c0.2,0,0.4,0.2,0.4,0.4c0,0.2-0.2,0.4-0.4,0.4H7.3v1.8h3.6c0.2,0,0.4,0.2,0.4,0.4
		c0,0.2-0.2,0.4-0.4,0.4H7.3V9.6z"/>
	<path class="st4" d="M20,7.4c-0.3,0-0.5,0.2-0.5,0.5v1.6c0,3.4-3.6,7.1-7.1,7.1c-1.6,0-3.5-0.9-4.9-2.3c-1.4-1.4-2.1-3.2-2.1-4.8
		V7.9c0-0.3-0.2-0.5-0.5-0.5c-0.3,0-0.5,0.2-0.5,0.5v1.6c-0.1,1.9,0.8,3.8,2.4,5.5c1.5,1.5,3.4,2.5,5.1,2.6V20h1v-2.4
		c3.8-0.3,7.5-4.2,7.5-8V7.9C20.5,7.6,20.3,7.4,20,7.4z"/>
</g>
</svg>
