<svg width="23" height="23" viewBox="0 0 23 23" fill="none" xmlns="http://www.w3.org/2000/svg">
<path fill-rule="evenodd" clip-rule="evenodd" d="M18.6875 4.31277C14.6625 4.31277 11.5 7.47527 11.5 11.5003C11.5 15.5253 14.6625 18.6878 18.6875 18.6878V21.5628C18.6875 22.7128 17.3937 23.2878 16.3875 22.7128L8.19375 17.2503H1.4375C0.575 17.2503 0 16.6753 0 15.8128V7.18777C0 6.32527 0.575 5.75027 1.4375 5.75027H8.19375L16.3875 0.287774C17.3937 -0.430976 18.6875 0.287774 18.6875 1.43777V4.31277ZM18.6874 9.46707L20.7204 7.43414L22.7533 9.46707L20.7204 11.5L22.7533 13.5329L20.7204 15.5659L18.6874 13.5329L16.6545 15.5659L14.6216 13.5329L16.6545 11.5L14.6216 9.46707L16.6545 7.43414L18.6874 9.46707Z" fill="#131415"/>
</svg>
