<?xml version="1.0" encoding="utf-8"?>
<!-- Generator: Adobe Illustrator 19.1.0, SVG Export Plug-In . SVG Version: 6.00 Build 0)  -->
<svg version="1.1" id="Layer_1" xmlns="http://www.w3.org/2000/svg" xmlns:xlink="http://www.w3.org/1999/xlink" x="0px" y="0px"
	 viewBox="0 0 25 20" style="enable-background:new 0 0 25 20;" xml:space="preserve">
<style type="text/css">
	.st0{fill:#99999A;}
	.st1{fill:#FFFFFF;}
	.st2{fill:#C31F4A;}
	.st3{fill:#1A1A1A;}
	.st4{fill:#C4BAB3;}
	.st5{fill:#54B850;}
</style>
<g>
	<g>
		<path class="st1" d="M22.5,14.8h-20c-0.4,0-0.8-0.3-0.8-0.8s0.3-0.8,0.8-0.8h20c0.4,0,0.8,0.3,0.8,0.8S22.9,14.8,22.5,14.8z"/>
	</g>
	<g>
		<path class="st1" d="M22.5,10.8h-20c-0.4,0-0.8-0.3-0.8-0.8s0.3-0.8,0.8-0.8h20c0.4,0,0.8,0.3,0.8,0.8S22.9,10.8,22.5,10.8z"/>
	</g>
	<g>
		<path class="st1" d="M22.5,6.8h-20C2.1,6.8,1.7,6.4,1.7,6s0.3-0.8,0.8-0.8h20c0.4,0,0.8,0.3,0.8,0.8S22.9,6.8,22.5,6.8z"/>
	</g>
</g>
</svg>
