<?xml version="1.0" encoding="UTF-8" standalone="no"?>
<svg width="19px" height="20px" viewBox="0 0 19 20" version="1.1" xmlns="http://www.w3.org/2000/svg" xmlns:xlink="http://www.w3.org/1999/xlink" xmlns:sketch="http://www.bohemiancoding.com/sketch/ns">
    <!-- Generator: Sketch 3.3.3 (12081) - http://www.bohemiancoding.com/sketch -->
    <title>mic-muted white</title>
    <desc>Created with Sketch.</desc>
    <defs>
        <path d="M0,4.26325641e-14 L63,4.26325641e-14 L0,63 L0,4.26325641e-14 Z M65,65 L2,65 L44.4339193,22.5660807 C51.2892795,15.7107205 65,2 65,2 L65,65 Z" id="path-1"></path>
    </defs>
    <g id="Page-1" stroke="none" stroke-width="1" fill="none" fill-rule="evenodd" sketch:type="MSPage">
        <g id="mic-muted-white" sketch:type="MSLayerGroup" transform="translate(-8.000000, -38.000000)">
            <g id="Path-66-+-Oval-6">
                <mask id="mask-2" sketch:name="Mask" fill="white">
                    <use xlink:href="#path-1"></use>
                </mask>
                <use id="Mask" sketch:type="MSShapeGroup" xlink:href="#path-1"></use>
                <path d="M12.6932769,47.9093105 L22.6797284,47.9093105 C22.6797284,47.9093105 22.131203,52.8649102 17.7672401,52.8649102 C13.1813563,52.8649102 12.6932769,47.9093105 12.6932769,47.9093105 Z M12.6630537,47.2342624 C15.9993628,47.2342624 22.6495053,47.2342624 22.6495053,47.2342624 L22.6495053,45.8829069 C22.6495053,45.8829069 19.1829209,45.9377245 18.8768458,45.8829069 C18.5707707,45.8280893 17.9891612,45.4258936 18.8768458,45.2072292 C20.5116583,45.2006171 22.6495053,45.2072292 22.6495053,45.2072292 L22.6495053,43.4054219 C22.6495053,43.4054219 19.1829209,43.4602395 18.8768458,43.4054219 C18.5707707,43.3506043 17.9891612,42.9324375 18.8768458,42.7297442 C20.502107,42.73091 22.6495053,42.7297442 22.6495053,42.7297442 C22.6495053,42.7297442 22.0265973,38.9745232 19.5426092,38.4504518 C19.5401609,39.603629 19.6043656,40.9024588 19.5426092,41.1531628 C19.4808529,41.4038667 19.2102041,42.1514334 18.8768458,41.1531628 C18.8693199,39.9932748 18.8768458,38.2252259 18.8768458,38.2252259 L17.9891612,38 C17.9891612,38 18.0435363,40.8956335 17.9891612,41.1531628 C17.9347861,41.410692 17.6562795,42.056534 17.3233978,41.1531628 C17.3015769,39.8122974 17.3233978,38 17.3233978,38 L16.4357132,38.2252259 C16.4357132,38.2252259 16.4935443,40.8988293 16.4357132,41.1531628 C16.3778821,41.4074963 16.0088144,42.0051587 15.7699498,41.1531628 C15.7360306,39.9973461 15.7699498,38.4504518 15.7699498,38.4504518 C15.7699498,38.4504518 12.6630537,39.4091732 12.6630537,42.7297442 C14.004799,42.7036381 16.1296381,42.6749266 16.4357132,42.7297442 C16.7417883,42.7845618 17.3233978,43.1619795 16.4357132,43.4054219 C14.6444177,43.4206018 12.6630537,43.4054219 12.6630537,43.4054219 L12.6630537,45.2072292 C12.6630537,45.2072292 16.1296381,45.1524116 16.4357132,45.2072292 C16.7417883,45.2620468 17.4773201,45.6618334 16.4357132,45.8829069 C15.1596124,45.8955434 12.6630537,45.8829069 12.6630537,45.8829069 L12.6630537,47.2342624 Z" id="Path-66" fill="#FFFFFF" sketch:type="MSShapeGroup" mask="url(#mask-2)"></path>
                <path d="M24.0098665,46.0802173 C24.0466115,46.3823744 24.0655735,46.69062 24.0655735,47.003674 C24.0655735,50.8626896 21.1842066,53.9910398 17.6298603,53.9910398 C14.0755141,53.9910398 11.1941471,50.8626896 11.1941471,47.003674 C11.1941471,46.7448833 11.2071053,46.4893787 11.2323555,46.2378831 L11.2323555,46.2378831 C11.2952344,46.1347275 11.3315269,46.0131186 11.3315269,45.8829069 C11.3315269,45.5097404 11.0334544,45.2072292 10.6657634,45.2072292 C10.2980724,45.2072292 10,45.5097404 10,45.8829069 C10,46.0293878 10.0459281,46.1649819 10.1239667,46.2756657 C10.0978961,46.5450082 10.0845414,46.8182884 10.0845414,47.0948369 C10.0845414,51.2998487 13.1721816,54.7492244 17.1014766,55.0895961 L17.1014766,57.8198803 L18.2110824,57.8198803 L18.2110824,55.1022843 L18.2110824,55.1022843 C22.2205189,54.8477256 25.3971004,51.3599826 25.3971004,47.0948369 C25.3971004,46.6879483 25.3681907,46.2881348 25.3124062,45.8975284 C25.3125079,45.892667 25.312559,45.887793 25.312559,45.8829069 C25.312559,45.5097404 25.0144866,45.2072292 24.6467956,45.2072292 C24.2791046,45.2072292 23.9810321,45.5097404 23.9810321,45.8829069 C23.9810321,45.9515487 23.9911175,46.0177998 24.0098665,46.0802173 Z" id="Oval-6" fill="#FFFFFF" sketch:type="MSShapeGroup" mask="url(#mask-2)"></path>
            </g>
            <path d="M25.9957298,39.0601474 L8.70899272,56.3468849" id="Line-Copy-2" stroke="#FFFFFF" stroke-linecap="square" sketch:type="MSShapeGroup"></path>
        </g>
    </g>
</svg>