<svg width="24" height="24" viewBox="0 0 24 24" fill="none" xmlns="http://www.w3.org/2000/svg">
<path d="M16.05 1.5C15 0.6 13.5 0 12 0C8.7 0 6 2.7 6 6V9C6 9.75 6.15 10.5 6.45 11.1L16.05 1.5Z" fill="white"/>
<path d="M22.5 9C21.75 8.85 20.85 9.45 20.85 10.2C20.1 14.7 16.35 18 11.85 18C10.8 18 9.6 17.85 8.7 17.4L11.25 14.85C11.55 14.85 11.85 14.85 12 14.85C15.3 14.85 18 12.15 18 8.85V8.1L23.55 2.55C24.15 1.95 24.15 1.05 23.55 0.45C22.95 -0.15 22.05 -0.15 21.45 0.45L0.45 21.45C-0.15 22.05 -0.15 22.95 0.45 23.55C0.75 23.85 1.05 24 1.5 24C1.95 24 2.25 23.85 2.55 23.55L6.45 19.65C7.65 20.25 9 20.7 10.35 20.85V24H13.35V20.85C18.6 20.25 22.95 16.05 23.7 10.65C23.85 9.9 23.25 9.15 22.5 9Z" fill="white"/>
<path d="M4.19995 13.6498C3.59995 12.5998 3.14995 11.5498 2.99995 10.3498C2.84995 9.44984 2.09995 8.84984 1.19995 8.99984C0.449946 9.14984 -0.150054 9.89984 -5.41806e-05 10.6498C0.299946 12.5998 1.04995 14.2498 2.09995 15.7498L4.19995 13.6498Z" fill="white"/>
</svg>
