<?xml version="1.0" encoding="utf-8"?>
<!-- Generator: Adobe Illustrator 19.1.0, SVG Export Plug-In . SVG Version: 6.00 Build 0)  -->
<svg version="1.1" id="Layer_1" xmlns="http://www.w3.org/2000/svg" xmlns:xlink="http://www.w3.org/1999/xlink" x="0px" y="0px"
	 viewBox="0 0 25 20" style="enable-background:new 0 0 25 20;" xml:space="preserve">
<style type="text/css">
	.st0{fill:#99999A;}
	.st1{fill:#FFFFFF;}
	.st2{fill:#C31F4A;}
	.st3{fill:#1A1A1A;}
	.st4{fill:#C4BAB3;}
	.st5{fill:#54B850;}
</style>
<g>
	<path class="st4" d="M22.3,5.4c-0.1-0.1-0.2-0.1-0.4,0l-4.5,2.2c-0.1,0.1-0.2,0.2-0.2,0.3v3.7c0,0.1,0.1,0.3,0.2,0.3l4.5,2.2
		c0.1,0,0.1,0,0.2,0c0.1,0,0.1,0,0.2-0.1c0.1-0.1,0.2-0.2,0.2-0.3V5.7C22.5,5.6,22.4,5.5,22.3,5.4z"/>
	<path class="st4" d="M15.4,15c0.6,0,1.1-0.5,1.1-1.1V6.5L8,15H15.4z"/>
	<path class="st4" d="M5.7,4.6c-0.6,0-1.1,0.5-1.1,1.1v8.2c0,0.4,0.2,0.7,0.5,0.9L15.3,4.6H5.7z"/>
	<path class="st4" d="M20.4,1.3c0,0,0-0.1-0.1-0.1c0,0-0.1-0.1-0.1-0.1c0,0-0.1,0-0.1,0c0,0-0.1,0-0.1,0c0,0-0.1,0-0.1,0.1l-7.6,7.6
		h0l-2.8,2.8l0,0l-6.8,6.8c0,0-0.1,0.1-0.1,0.1c0,0,0,0.1,0,0.1c0,0,0,0.1,0,0.1c0,0,0,0.1,0.1,0.1c0,0,0,0,0,0
		C2.8,19,3,19,3.1,18.9c0,0,0,0,0,0l6.8-6.8l0,0l2.8-2.8l0,0l7.6-7.6c0,0,0.1-0.1,0.1-0.1c0,0,0-0.1,0-0.1
		C20.4,1.4,20.4,1.3,20.4,1.3z"/>
</g>
</svg>
