<?xml version="1.0" encoding="utf-8"?>
<!-- Generator: Adobe Illustrator 19.1.0, SVG Export Plug-In . SVG Version: 6.00 Build 0)  -->
<svg version="1.1" id="Layer_1" xmlns="http://www.w3.org/2000/svg" xmlns:xlink="http://www.w3.org/1999/xlink" x="0px" y="0px"
	 viewBox="0 0 25 20" style="enable-background:new 0 0 25 20;" xml:space="preserve">
<style type="text/css">
	.st0{fill:#99999A;}
	.st1{fill:#FFFFFF;}
	.st2{fill:#C31F4A;}
	.st3{fill:#1A1A1A;}
	.st4{fill:#C4BAB3;}
	.st5{fill:#54B850;}
</style>
<g>
	<path class="st1" d="M13.4,11.4c-0.3-0.1-0.6-0.2-0.9-0.3V9.8c0.3-0.2,0.9-0.8,1-1.9c0.2-0.2,0.4-0.5,0.4-0.9
		c0-0.4-0.1-0.7-0.3-0.8C13.7,5.8,14,5,13.8,4.3c-0.2-0.9-1.5-1.2-2.5-1.2c-0.9,0-2,0.2-2.4,0.9C8.5,4,8.3,4.2,8.2,4.3
		C7.8,4.8,8,5.5,8.2,6.2C8.1,6.2,8,6.3,8,6.4C7.9,6.6,7.8,6.8,7.8,7c0,0.4,0.2,0.7,0.4,0.9c0.1,1.2,0.7,1.7,1,1.9v1.2
		c-0.3,0.1-0.6,0.2-0.8,0.3c-1.7,0.6-3.2,1.1-3.4,2c-0.3,1-0.3,3.2-0.3,3.2c0,0.2,0.1,0.3,0.3,0.3h11.9c0.2,0,0.3-0.1,0.3-0.3
		c0-0.1,0-2.3-0.3-3.2C16.5,12.5,15.2,12,13.4,11.4z"/>
	<path class="st1" d="M20.1,13.3c-0.3-0.8-1.5-1.5-4.3-2.6v-0.6c0.3-0.2,0.9-0.8,1-1.9c0.2-0.2,0.4-0.5,0.4-0.9
		c0-0.4-0.1-0.7-0.3-0.8c0.2-0.5,0.4-1.3,0.2-2c-0.1-0.5-0.6-1-1.2-1.2c-0.6-0.2-1.1-0.2-1.6,0.2c-0.2,0.1-0.2,0.3-0.1,0.5
		C14.3,4,14.5,4.1,14.7,4c0.4-0.2,0.7-0.2,1-0.1c0.5,0.2,0.8,0.6,0.8,0.8c0.1,0.6-0.1,1.3-0.2,1.7c-0.1,0.2-0.1,0.3-0.1,0.4
		c0,0.2,0.1,0.3,0.3,0.3c0,0,0.1,0.1,0.1,0.3c0,0.2-0.1,0.3-0.1,0.3c-0.2,0-0.3,0.1-0.3,0.3c0,1.3-0.8,1.7-0.8,1.7
		c-0.1,0.1-0.2,0.2-0.2,0.3v1c0,0.1,0.1,0.3,0.2,0.3c0.9,0.4,3.8,1.4,4.1,2.3c0.2,0.7,0.3,2.1,0.3,2.7h-1c-0.2,0-0.3,0.1-0.3,0.3
		c0,0.2,0.1,0.3,0.3,0.3h1.3c0.2,0,0.3-0.1,0.3-0.3C20.4,16.5,20.4,14.3,20.1,13.3z"/>
</g>
</svg>
