<svg xmlns="http://www.w3.org/2000/svg" width="25" height="13" viewBox="0 0 25 13">
    <g fill="none" fill-rule="evenodd">
        <g fill="#7A8A93">
            <path d="M7.593 7.736c-.26-.089-.526-.18-.796-.275V6.456c.275-.175.782-.624.843-1.579.208-.123.338-.391.338-.733 0-.3-.1-.544-.267-.683.139-.342.366-.942.21-1.539-.188-.719-1.257-.975-2.115-.975-.761 0-1.687.201-2.019.746-.397-.02-.616.141-.723.276-.294.372-.157.956.001 1.48a.645.645 0 0 0-.167.2 1.057 1.057 0 0 0-.115.495c0 .342.13.61.338.734.062.954.568 1.403.844 1.578v1.005c-.24.085-.485.17-.73.252-1.46.498-2.72.927-2.953 1.596C.003 10.11 0 11.886 0 11.96c0 .15.127.27.283.27H10.48c.156 0 .283-.12.283-.27 0-.075-.004-1.85-.283-2.652-.234-.67-1.404-1.068-2.886-1.573"/>
            <path d="M13.29 9.261c-.22-.63-1.29-1.247-3.682-2.116v-.467c.276-.175.782-.624.844-1.579.208-.123.338-.391.338-.733 0-.304-.103-.55-.272-.687.137-.37.373-1.03.215-1.633-.102-.389-.544-.805-1.051-.992-.478-.176-.962-.133-1.364.123a.261.261 0 0 0-.079.373.292.292 0 0 0 .394.075c.312-.199.632-.147.844-.069.393.145.662.453.706.62.12.46-.093 1.038-.208 1.349-.055.15-.084.225-.084.302 0 .149.103.262.26.262.02.015.073.109.073.277 0 .168-.054.262-.05.27a.277.277 0 0 0-.283.269c0 1.071-.65 1.358-.674 1.369a.268.268 0 0 0-.175.248v.81c0 .111.073.212.183.252.815.292 3.296 1.181 3.528 1.847.19.549.238 1.692.25 2.213h-.846a.276.276 0 0 0-.283.27c0 .149.127.27.283.27h1.132c.158 0 .284-.121.284-.27 0-.075-.003-1.85-.283-2.653"/>
        </g>
    </g>
</svg>
