<?xml version="1.0" encoding="utf-8"?>
<!-- Generator: Adobe Illustrator 19.1.0, SVG Export Plug-In . SVG Version: 6.00 Build 0)  -->
<svg version="1.1" id="Layer_1" xmlns="http://www.w3.org/2000/svg" xmlns:xlink="http://www.w3.org/1999/xlink" x="0px" y="0px"
	 viewBox="0 0 25 20" style="enable-background:new 0 0 25 20;" xml:space="preserve">
<style type="text/css">
	.st0{fill:#99999A;}
	.st1{fill:#FFFFFF;}
	.st2{fill:#C31F4A;}
	.st3{fill:#1A1A1A;}
	.st4{fill:#C4BAB3;}
	.st5{fill:#54B850;}
</style>
<g>
	<path class="st0" d="M21.1,6.7C21,6.7,21,6.7,21.1,6.7L21.1,6.7l-3.4-1.3l-0.3,0.8l2.3,0.9L12.5,10L5.3,7.1l2.3-0.9L7.4,5.4L4,6.7
		l0,0c0,0-0.1,0-0.1,0C3.8,6.8,3.8,6.9,3.8,7.1v8.3c0,0.2,0.1,0.3,0.2,0.4l8.3,4.2c0.1,0,0.1,0,0.2,0c0.1,0,0.1,0,0.2,0l8.3-4.2
		c0.1-0.1,0.2-0.2,0.2-0.4V7.1C21.3,6.9,21.2,6.8,21.1,6.7z"/>
	<path class="st0" d="M12.2,7.4c0,0,0.1,0.1,0.1,0.1c0.1,0,0.1,0,0.2,0s0.1,0,0.2,0c0.1,0,0.1-0.1,0.1-0.1L16.1,4
		c0.2-0.2,0.2-0.4,0-0.6c-0.2-0.2-0.4-0.2-0.6,0l-2.6,2.6V0.4c0-0.2-0.2-0.4-0.4-0.4s-0.4,0.2-0.4,0.4v5.7L9.5,3.5
		C9.3,3.3,9,3.3,8.9,3.5C8.7,3.6,8.7,3.9,8.9,4L12.2,7.4z"/>
</g>
</svg>
