<?xml version="1.0" encoding="utf-8"?>
<!-- Generator: Adobe Illustrator 19.1.0, SVG Export Plug-In . SVG Version: 6.00 Build 0)  -->
<svg version="1.1" id="Layer_1" xmlns="http://www.w3.org/2000/svg" xmlns:xlink="http://www.w3.org/1999/xlink" x="0px" y="0px"
	 viewBox="0 0 25 20" style="enable-background:new 0 0 25 20;" xml:space="preserve">
<style type="text/css">
	.st0{fill:#99999A;}
	.st1{fill:#FFFFFF;}
	.st2{fill:#C31F4A;}
	.st3{fill:#00ADEE;}
	.st4{fill:#C4BAB3;}
	.st5{fill:#5F6062;}
	.st6{fill:#C31F4B;}
	.st7{fill:none;}
	.st8{fill:#C5BBB4;}
	.st9{fill:#CF2027;}
</style>
<g>
	<path class="st9" d="M12.5,5.7c-2.4,0-4.3,1.9-4.3,4.3c0,2.4,1.9,4.3,4.3,4.3c2.4,0,4.3-1.9,4.3-4.3C16.8,7.6,14.9,5.7,12.5,5.7z"
		/>
	<path class="st1" d="M12.5,3.7C9,3.7,6.2,6.5,6.2,10s2.8,6.3,6.3,6.3s6.3-2.8,6.3-6.3S16,3.7,12.5,3.7z M8.2,10
		c0-2.4,1.9-4.3,4.3-4.3c2.4,0,4.3,1.9,4.3,4.3c0,2.4-1.9,4.3-4.3,4.3C10.1,14.3,8.2,12.4,8.2,10z"/>
</g>
</svg>
