<svg xmlns="http://www.w3.org/2000/svg" width="37" height="29" viewBox="0 0 37 29">
    <g fill="none" fill-rule="evenodd">
        <path stroke="#FFF" stroke-linecap="round" stroke-linejoin="round" d="M12 24h4M14 21.45V24"/>
        <path fill="#FFF" d="M18.8 13h1.6c.883 0 1.6.604 1.6 1.35v6.3c0 .745-.717 1.35-1.6 1.35H7.6c-.885 0-1.6-.605-1.6-1.35v-6.3c0-.746.715-1.35 1.6-1.35h1.6M30.6 2h1.2A1.2 1.2 0 0 1 33 3.2v5.6a1.2 1.2 0 0 1-1.2 1.2h-9.6A1.2 1.2 0 0 1 21 8.8V3.2c0-.663.536-1.2 1.2-1.2h1.2"/>
        <path stroke="#FFF" stroke-linecap="round" stroke-linejoin="round" d="M14 9.75V8.707c0-1.55 1.06-3.207 2.977-3.207H19"/>
        <path stroke="#FFF" stroke-linecap="round" stroke-linejoin="round" d="M15.5 9L14 10l-1.5-1M18 4l1 1.5L18 7M25 11.5h4M27 10v1"/>
    </g>
</svg>
