<svg width="40" height="40" viewBox="0 0 40 40" fill="none" xmlns="http://www.w3.org/2000/svg">
<path fill-rule="evenodd" clip-rule="evenodd" d="M20 40C31.0457 40 40 31.0457 40 20C40 8.95431 31.0457 0 20 0C8.95431 0 0 8.95431 0 20C0 31.0457 8.95431 40 20 40Z" fill="#06BA8F"/>
<path fill-rule="evenodd" clip-rule="evenodd" d="M19.5405 9.79048C19.7943 9.53664 20.2059 9.53664 20.4597 9.79048L26.9598 16.2905C27.2135 16.5443 27.2135 16.9559 26.9598 17.2097C26.7059 17.4636 26.2943 17.4636 26.0404 17.2097L20.6501 11.8193V29.7501C20.6501 30.109 20.3591 30.4001 20.0001 30.4001C19.6411 30.4001 19.3501 30.109 19.3501 29.7501V11.8193L13.9597 17.2097C13.7059 17.4636 13.2943 17.4636 13.0405 17.2097C12.7866 16.9559 12.7866 16.5443 13.0405 16.2905L19.5405 9.79048Z" fill="white"/>
</svg>
