<?xml version="1.0" encoding="utf-8"?>
<!-- Generator: Adobe Illustrator 19.1.0, SVG Export Plug-In . SVG Version: 6.00 Build 0)  -->
<svg version="1.1" id="Layer_1" xmlns="http://www.w3.org/2000/svg" xmlns:xlink="http://www.w3.org/1999/xlink" x="0px" y="0px"
	 viewBox="0 0 25 20" style="enable-background:new 0 0 25 20;" xml:space="preserve">
<style type="text/css">
	.st0{fill:#99999A;}
	.st1{fill:#FFFFFF;}
	.st2{fill:#C31F4A;}
	.st3{fill:#1A1A1A;}
	.st4{fill:#C4BAB3;}
	.st5{fill:#54B850;}
</style>
<g>
	<g>
		<path class="st1" d="M18.2,3.7c-2.8,0-8.6,0-11.4,0c-3.5,0-6.3,2.8-6.3,6.3s2.8,6.3,6.3,6.3c2.8,0,8.6,0,11.4,0
			c3.5,0,6.3-2.8,6.3-6.3S21.7,3.7,18.2,3.7z"/>
		<path class="st0" d="M18.2,16.8H6.8C3,16.8,0,13.8,0,10S3,3.2,6.8,3.2h11.4C22,3.2,25,6.2,25,10S22,16.8,18.2,16.8z M6.8,4.2
			C3.6,4.2,1,6.8,1,10s2.6,5.8,5.8,5.8h11.4c3.2,0,5.8-2.6,5.8-5.8s-2.6-5.8-5.8-5.8H6.8z"/>
	</g>
	<circle class="st0" cx="7.2" cy="10" r="4.5"/>
</g>
</svg>
