<svg width="47" height="34" viewBox="0 0 47 34" fill="none" xmlns="http://www.w3.org/2000/svg">
<path fill-rule="evenodd" clip-rule="evenodd" d="M14 0C6.268 0 0 6.26801 0 14V14C0 21.732 6.26801 28 14 28H32.0645C39.7965 28 46.0645 21.732 46.0645 14V14C46.0645 6.26801 39.7965 0 32.0645 0H14Z" fill="#871FFF"/>
<g filter="url(#filter0_ddd)">
<path fill-rule="evenodd" clip-rule="evenodd" d="M31.9999 26.6452C38.9836 26.6452 44.6451 20.9837 44.6451 14C44.6451 7.01627 38.9836 1.35484 31.9999 1.35484C25.0162 1.35484 19.3547 7.01627 19.3547 14C19.3547 20.9837 25.0162 26.6452 31.9999 26.6452Z" fill="white"/>
<path d="M31.9999 26.8952C39.1217 26.8952 44.8951 21.1218 44.8951 14C44.8951 6.8782 39.1217 1.10484 31.9999 1.10484C24.8781 1.10484 19.1047 6.8782 19.1047 14C19.1047 21.1218 24.8781 26.8952 31.9999 26.8952Z" stroke="black" stroke-opacity="0.1" stroke-width="0.5"/>
</g>
<defs>
<filter id="filter0_ddd" x="15.8547" y="0.854836" width="32.2903" height="32.2903" filterUnits="userSpaceOnUse" color-interpolation-filters="sRGB">
<feFlood flood-opacity="0" result="BackgroundImageFix"/>
<feColorMatrix in="SourceAlpha" type="matrix" values="0 0 0 0 0 0 0 0 0 0 0 0 0 0 0 0 0 0 127 0"/>
<feOffset dy="3"/>
<feGaussianBlur stdDeviation="1.5"/>
<feColorMatrix type="matrix" values="0 0 0 0 0 0 0 0 0 0 0 0 0 0 0 0 0 0 0.05 0"/>
<feBlend mode="normal" in2="BackgroundImageFix" result="effect1_dropShadow"/>
<feColorMatrix in="SourceAlpha" type="matrix" values="0 0 0 0 0 0 0 0 0 0 0 0 0 0 0 0 0 0 127 0"/>
<feOffset dy="2"/>
<feGaussianBlur stdDeviation="1"/>
<feColorMatrix type="matrix" values="0 0 0 0 0 0 0 0 0 0 0 0 0 0 0 0 0 0 0.1 0"/>
<feBlend mode="normal" in2="effect1_dropShadow" result="effect2_dropShadow"/>
<feColorMatrix in="SourceAlpha" type="matrix" values="0 0 0 0 0 0 0 0 0 0 0 0 0 0 0 0 0 0 127 0"/>
<feOffset dy="3"/>
<feGaussianBlur stdDeviation="0.5"/>
<feColorMatrix type="matrix" values="0 0 0 0 0 0 0 0 0 0 0 0 0 0 0 0 0 0 0.0510643 0"/>
<feBlend mode="normal" in2="effect2_dropShadow" result="effect3_dropShadow"/>
<feBlend mode="normal" in="SourceGraphic" in2="effect3_dropShadow" result="shape"/>
</filter>
</defs>
</svg>
