<?xml version="1.0"?>
<svg version="1.1" xmlns="http://www.w3.org/2000/svg" xmlns:xlink="http://www.w3.org/1999/xlink" width="25" height="20">
    <desc iVinci="yes" version="4.6" gridStep="20" showGrid="no" snapToGrid="no" codePlatform="0"/>
    <g id="Layer1" name="Layer 1" opacity="1">
        <g id="Shape1">
            <desc shapeID="1" type="0" basicInfo-basicType="0" basicInfo-roundedRectRadius="12" basicInfo-polygonSides="6" basicInfo-starPoints="5" bounding="rect(-12,-6.3,24,12.6)" text="" font-familyName="" font-pixelSize="20" font-bold="0" font-underline="0" font-alignment="1" strokeStyle="0" markerStart="0" markerEnd="0" shadowEnabled="0" shadowOffsetX="0" shadowOffsetY="2" shadowBlur="4" shadowOpacity="160" blurEnabled="0" blurRadius="4" transform="matrix(1,0,0,1,12.5,10)" pers-center="0,0" pers-size="0,0" pers-start="0,0" pers-end="0,0" locked="0" mesh="" flag=""/>
            <path id="shapePath1" d="M18.2,3.7 C15.4,3.7 9.6,3.7 6.8,3.7 C3.3,3.7 0.5,6.5 0.5,10 C0.5,13.5 3.3,16.3 6.8,16.3 C9.6,16.3 15.4,16.3 18.2,16.3 C21.7,16.3 24.5,13.5 24.5,10 C24.5,6.5 21.7,3.7 18.2,3.7 Z" style="stroke:none;fill-rule:evenodd;fill:#878787;fill-opacity:1;"/>
        </g>
        <g id="Shape2">
            <desc shapeID="2" type="0" basicInfo-basicType="0" basicInfo-roundedRectRadius="12" basicInfo-polygonSides="6" basicInfo-starPoints="5" bounding="rect(-12.5,-6.8,25,13.6)" text="" font-familyName="" font-pixelSize="20" font-bold="0" font-underline="0" font-alignment="1" strokeStyle="0" markerStart="0" markerEnd="0" shadowEnabled="0" shadowOffsetX="0" shadowOffsetY="2" shadowBlur="4" shadowOpacity="160" blurEnabled="0" blurRadius="4" transform="matrix(1,0,0,1,12.5,10)" pers-center="0,0" pers-size="0,0" pers-start="0,0" pers-end="0,0" locked="0" mesh="" flag=""/>
            <path id="shapePath2" d="M18.2,16.8 L6.8,16.8 C3,16.8 0,13.8 0,10 C0,6.2 3,3.2 6.8,3.2 L18.2,3.2 C22,3.2 25,6.2 25,10 C25,13.8 22,16.8 18.2,16.8 M6.8,4.2 C3.6,4.2 1,6.8 1,10 C1,13.2 3.6,15.8 6.8,15.8 L18.2,15.8 C21.4,15.8 24,13.2 24,10 C24,6.8 21.4,4.2 18.2,4.2 L6.8,4.2 Z" style="stroke:none;fill-rule:evenodd;fill:#d1d1d1;fill-opacity:1;"/>
        </g>
        <g id="Shape3">
            <desc shapeID="3" type="0" basicInfo-basicType="0" basicInfo-roundedRectRadius="12" basicInfo-polygonSides="6" basicInfo-starPoints="5" bounding="rect(-4.5,-4.5,9,9)" text="" font-familyName="" font-pixelSize="20" font-bold="0" font-underline="0" font-alignment="1" strokeStyle="0" markerStart="0" markerEnd="0" shadowEnabled="0" shadowOffsetX="0" shadowOffsetY="2" shadowBlur="4" shadowOpacity="160" blurEnabled="0" blurRadius="4" transform="matrix(1.27392,0,0,1.21076,7.26042,10)" pers-center="0,0" pers-size="0,0" pers-start="0,0" pers-end="0,0" locked="0" mesh="" flag=""/>
            <path id="shapePath3" d="M12.9931,10 C12.9931,13.0091 10.4265,15.4484 7.26042,15.4484 C4.09437,15.4484 1.52777,13.0091 1.52777,10 C1.52777,6.99092 4.09437,4.55157 7.26042,4.55157 C10.4265,4.55157 12.9931,6.99092 12.9931,10 Z" style="stroke:none;fill-rule:evenodd;fill:#ffffff;fill-opacity:1;"/>
        </g>
    </g>
</svg>
