<svg xmlns="http://www.w3.org/2000/svg" width="30" height="22" viewBox="0 0 30 22">
    <g fill="none" fill-rule="evenodd">
        <path fill="#FFF" d="M26.694 2.218l-1.53-.016-.366-.42C24.224.89 23.364 0 22.216 0h-4.304c-1.148 0-2.009.594-2.582 1.781l-.287.297h-4.304V0h-2.87v2.078C6.148 2.078 5 3.563 5 5.047v4.75c.574 0 8.623-1.781 8.623 9.203h13.47c1.722 0 2.87-1.484 2.87-2.969V5.047c.287-1.781-1.148-2.969-2.582-2.969l-.687.14zM19.362 15.2c-2.535 0-4.788-2.3-4.788-4.886 0-2.586 2.253-4.885 4.788-4.885 2.534 0 4.787 2.299 4.787 4.885 0 2.874-2.253 4.886-4.787 4.886z"/>
        <g stroke="#FFF" stroke-width="1.5">
            <path d="M1 15.375l1.25 2.362 1.25-2.362M11 17.738l-1-2.363L8.5 17.4"/>
            <path d="M10 15.375c.243 2.592-1.15 4.86-3 5.625-1.493.207-2.886-.117-4-1.688M2 17.625c-.429-2.465.947-5.238 3-5.625 1.524-.23 3.175.387 4 1.688"/>
        </g>
    </g>
</svg>
