<svg width="24" height="21" viewBox="0 0 24 21" fill="none" xmlns="http://www.w3.org/2000/svg">
<path fill-rule="evenodd" clip-rule="evenodd" d="M15.4748 6.59572C17.0937 6.59572 18.4062 5.28327 18.4062 3.66428C18.4062 2.0453 17.0937 0.732849 15.4748 0.732849C13.8558 0.732849 12.5433 2.0453 12.5433 3.66428C12.5433 5.28327 13.8558 6.59572 15.4748 6.59572ZM11.8105 7.32858C13.2762 8.7943 15.4748 8.7943 16.2076 8.7943L23.5362 5.86286V17.5886L16.2076 14.6572V19.0543C16.2076 19.9338 15.6213 20.52 14.7419 20.52H1.55043C0.671004 20.52 0.0847168 19.9338 0.0847168 19.0543V4.39714C0.0847168 3.51771 0.671004 2.93143 1.55043 2.93143H10.3447C10.3447 4.397 10.3447 5.86286 11.8105 7.32858Z" fill="white"/>
</svg>
