<?xml version="1.0" encoding="utf-8"?>
<!-- Generator: Adobe Illustrator 19.1.0, SVG Export Plug-In . SVG Version: 6.00 Build 0)  -->
<svg version="1.1" id="Layer_1" xmlns="http://www.w3.org/2000/svg" xmlns:xlink="http://www.w3.org/1999/xlink" x="0px" y="0px"
	 viewBox="0 0 25 20" style="enable-background:new 0 0 25 20;" xml:space="preserve">
<style type="text/css">
	.st0{fill:#99999A;}
	.st1{fill:#FFFFFF;}
	.st2{fill:#C31F4A;}
	.st3{fill:#1A1A1A;}
	.st4{fill:#C4BAB3;}
	.st5{fill:#54B850;}
</style>
<g>
	<path class="st1" d="M14.6,4H3.5C2.8,4,2.2,4.6,2.2,5.3v9.4c0,0.7,0.6,1.3,1.3,1.3h11.1c0.7,0,1.3-0.6,1.3-1.3V5.3
		C15.9,4.6,15.3,4,14.6,4z"/>
	<path class="st1" d="M22.6,4.9c-0.1-0.1-0.3-0.1-0.4,0L17,7.5c-0.1,0.1-0.2,0.2-0.2,0.4v4.3c0,0.2,0.1,0.3,0.2,0.4l5.1,2.6
		c0.1,0,0.1,0,0.2,0c0.1,0,0.2,0,0.2-0.1c0.1-0.1,0.2-0.2,0.2-0.4V5.3C22.8,5.1,22.7,5,22.6,4.9z"/>
</g>
</svg>
