<svg width="20" height="20" viewBox="0 0 20 20" fill="none" xmlns="http://www.w3.org/2000/svg">
<path d="M10 12.5C12.75 12.5 15 10.25 15 7.5V5C15 2.25 12.75 0 10 0C7.25 0 5 2.25 5 5V7.5C5 10.25 7.25 12.5 10 12.5Z" fill="white"/>
<path d="M19.875 8.87496C20 8.24996 19.5 7.62497 18.875 7.49997C18.25 7.37497 17.5 7.87496 17.5 8.49996C16.875 12.25 13.75 14.9999 9.99999 14.9999C6.24999 14.9999 3.12499 12.25 2.62499 8.62496C2.49999 7.87497 1.87499 7.37497 1.125 7.49997C0.499996 7.62497 -4.60446e-06 8.24996 0.124996 8.87496C0.749996 13.3749 4.37499 16.7499 8.74999 17.3749V19.9999H11.25V17.3749C15.625 16.8749 19.25 13.3749 19.875 8.87496Z" fill="white"/>
</svg>
