<svg width="20" height="20" viewBox="0 0 20 20" fill="none" xmlns="http://www.w3.org/2000/svg">
<path fill-rule="evenodd" clip-rule="evenodd" d="M13.125 5.625C14.5057 5.625 15.625 4.50571 15.625 3.125C15.625 1.74429 14.5057 0.625 13.125 0.625C11.7443 0.625 10.625 1.74429 10.625 3.125C10.625 4.50571 11.7443 5.625 13.125 5.625ZM10 6.25C11.25 7.5 13.125 7.5 13.75 7.5L20 5V15L13.75 12.5V16.25C13.75 17 13.25 17.5 12.5 17.5H1.25C0.5 17.5 0 17 0 16.25V3.75C0 3 0.5 2.5 1.25 2.5H8.75C8.75 3.74988 8.75 5 10 6.25Z" fill="white"/>
</svg>
