<svg width="16" height="16" viewBox="0 0 16 16" fill="none" xmlns="http://www.w3.org/2000/svg">
<path fill-rule="evenodd" clip-rule="evenodd" d="M11.9 0.1L15.9 4.1C15.9 4.15 15.925 4.225 15.95 4.3C15.975 4.375 16 4.45 16 4.5V12.5C16 12.8 15.8 13 15.5 13H11V12H15V5H11.5C11.2 5 11 4.8 11 4.5V1H7V2H6V0.5C6 0.2 6.2 0 6.5 0H11.5C11.55 0 11.625 0.025 11.7 0.05C11.775 0.075 11.85 0.1 11.9 0.1ZM12 1.7V4H14.3L12 1.7ZM5.7 3.05C5.775 3.075 5.85 3.1 5.9 3.1L9.9 7.1C9.9 7.15 9.925 7.225 9.95 7.3C9.975 7.375 10 7.45 10 7.5V15.5C10 15.8 9.8 16 9.5 16H0.5C0.2 16 0 15.8 0 15.5V3.5C0 3.2 0.2 3 0.5 3H5.5C5.55 3 5.625 3.025 5.7 3.05ZM8.3 7L6 4.7V7H8.3ZM1 4V15H9V8H5.5C5.2 8 5 7.8 5 7.5V4H1Z" fill="white"/>
</svg>
