<svg width="31" height="33" viewBox="0 0 31 33" fill="none" xmlns="http://www.w3.org/2000/svg">
<path fill-rule="evenodd" clip-rule="evenodd" d="M17.1999 32.4313H29.5477C29.8884 32.4313 30.165 32.1325 30.165 31.7644L30.165 1.08432C30.165 0.716156 29.8884 0.417358 29.5477 0.417358L17.1999 0.417358C16.8591 0.417358 16.5825 0.716156 16.5825 1.08432V31.7644C16.5825 32.1325 16.8591 32.4313 17.1999 32.4313" fill="#871FFF"/>
<path fill-rule="evenodd" clip-rule="evenodd" d="M1.1999 32.4313H13.5477C13.8884 32.4313 14.165 32.1325 14.165 31.7644L14.165 1.08432C14.165 0.716156 13.8884 0.417358 13.5477 0.417358L1.1999 0.417358C0.859098 0.417358 0.582508 0.716156 0.582508 1.08432L0.582508 31.7644C0.582508 32.1325 0.859098 32.4313 1.1999 32.4313" fill="#871FFF"/>
</svg>
