<?xml version="1.0" encoding="utf-8"?>
<!-- Generator: Adobe Illustrator 19.1.0, SVG Export Plug-In . SVG Version: 6.00 Build 0)  -->
<svg version="1.1" id="Layer_1" xmlns="http://www.w3.org/2000/svg" xmlns:xlink="http://www.w3.org/1999/xlink" x="0px" y="0px"
	 viewBox="0 0 35 35" style="enable-background:new 0 0 35 35;" xml:space="preserve">
<style type="text/css">
	.st0{fill:#0398CC;}
	.st1{fill:#FFFFFF;}
	.st2{fill:#5A5A5C;}
	.st3{fill:#C4BAB3;}
</style>
<g>
	<path class="st2" d="M26.8,29.5H8.2c-1.7,0-3-1.4-3-3v-18c0-1.6,1.4-3,3-3h18.5c1.7,0,3,1.3,3,3v18C29.8,28.1,28.4,29.5,26.8,29.5z
		"/>
	<path class="st1" d="M26.2,12.1h-4.4c-0.3,0-0.5-0.2-0.5-0.5V9.5c0-0.3,0.2-0.5,0.5-0.5h4.4c0.3,0,0.5,0.2,0.5,0.5v2.2
		C26.6,11.9,26.4,12.1,26.2,12.1z"/>
</g>
</svg>
