<svg width="32" height="35" viewBox="0 0 32 35" fill="none" xmlns="http://www.w3.org/2000/svg">
<path fill-rule="evenodd" clip-rule="evenodd" d="M4.66865 34.3665H27.4708C29.5025 34.3665 31.1648 32.4332 31.1648 30.0703V4.29617C31.1648 1.93327 29.5025 0 27.4708 0H4.66865C2.63693 0 0.974609 1.93327 0.974609 4.29617V30.0703C0.974609 32.4332 2.63693 34.3665 4.66865 34.3665ZM21.4404 9.63507H26.8986C27.2201 9.63507 27.4831 9.34266 27.4831 8.98512V5.95015C27.4831 5.59261 27.2201 5.3002 26.8986 5.3002H21.4404C21.1189 5.3002 20.856 5.59261 20.856 5.95015V8.98512C20.856 9.34266 21.1189 9.63507 21.4404 9.63507Z" fill="#871FFF"/>
</svg>
