<?xml version="1.0" encoding="utf-8"?>
<!-- Generator: Adobe Illustrator 19.1.0, SVG Export Plug-In . SVG Version: 6.00 Build 0)  -->
<svg version="1.1" id="Layer_1" xmlns="http://www.w3.org/2000/svg" xmlns:xlink="http://www.w3.org/1999/xlink" x="0px" y="0px"
	 viewBox="0 0 35 35" style="enable-background:new 0 0 35 35;" xml:space="preserve">
<style type="text/css">
	.st0{fill:#0398CC;}
	.st1{fill:#FFFFFF;}
	.st2{fill:#5A5A5C;}
	.st3{fill:#C4BAB3;}
</style>
<g>
	<path class="st3" d="M16,5.5H6C5.7,5.5,5.5,5.7,5.5,6v10c0,0.3,0.2,0.5,0.5,0.5h10c0.3,0,0.5-0.2,0.5-0.5V6
		C16.5,5.7,16.3,5.5,16,5.5z"/>
	<path class="st3" d="M29,5.5H19c-0.3,0-0.5,0.2-0.5,0.5v10c0,0.3,0.2,0.5,0.5,0.5h10c0.3,0,0.5-0.2,0.5-0.5V6
		C29.5,5.7,29.3,5.5,29,5.5z"/>
	<path class="st3" d="M16,18.5H6c-0.3,0-0.5,0.2-0.5,0.5v10c0,0.3,0.2,0.5,0.5,0.5h10c0.3,0,0.5-0.2,0.5-0.5V19
		C16.5,18.7,16.3,18.5,16,18.5z"/>
	<path class="st3" d="M29,18.5H19c-0.3,0-0.5,0.2-0.5,0.5v10c0,0.3,0.2,0.5,0.5,0.5h10c0.3,0,0.5-0.2,0.5-0.5V19
		C29.5,18.7,29.3,18.5,29,18.5z"/>
</g>
</svg>
