<svg width="33" height="36" viewBox="0 0 33 36" fill="none" xmlns="http://www.w3.org/2000/svg">
<path fill-rule="evenodd" clip-rule="evenodd" d="M14.3035 0H0.68112C0.305142 0 0 0.326612 0 0.729044V15.3099C0 15.7124 0.305142 16.039 0.68112 16.039H14.3035C14.6795 16.039 14.9846 15.7124 14.9846 15.3099V0.729044C14.9846 0.326612 14.6795 0 14.3035 0" fill="#871FFF"/>
<path fill-rule="evenodd" clip-rule="evenodd" d="M32.1229 0H18.5005C18.1245 0 17.8193 0.326612 17.8193 0.729044V15.3099C17.8193 15.7124 18.1245 16.039 18.5005 16.039H32.1229C32.4988 16.039 32.804 15.7124 32.804 15.3099V0.729044C32.804 0.326612 32.4988 0 32.1229 0" fill="#871FFF"/>
<path fill-rule="evenodd" clip-rule="evenodd" d="M14.3035 19.0734H0.68112C0.305142 19.0734 0 19.4 0 19.8024V34.3832C0 34.7857 0.305142 35.1123 0.68112 35.1123H14.3035C14.6795 35.1123 14.9846 34.7857 14.9846 34.3832V19.8024C14.9846 19.4 14.6795 19.0734 14.3035 19.0734" fill="#871FFF"/>
<path fill-rule="evenodd" clip-rule="evenodd" d="M32.1229 19.0734H18.5005C18.1245 19.0734 17.8193 19.4 17.8193 19.8024V34.3832C17.8193 34.7857 18.1245 35.1123 18.5005 35.1123H32.1229C32.4988 35.1123 32.804 34.7857 32.804 34.3832V19.8024C32.804 19.4 32.4988 19.0734 32.1229 19.0734" fill="#871FFF"/>
</svg>

