<?xml version="1.0" encoding="utf-8"?>
<!-- Generator: Adobe Illustrator 19.1.0, SVG Export Plug-In . SVG Version: 6.00 Build 0)  -->
<svg version="1.1" id="Layer_1" xmlns="http://www.w3.org/2000/svg" xmlns:xlink="http://www.w3.org/1999/xlink" x="0px" y="0px"
	 viewBox="0 0 35 35" style="enable-background:new 0 0 35 35;" xml:space="preserve">
<style type="text/css">
	.st0{fill:#0398CC;}
	.st1{fill:#FFFFFF;}
	.st2{fill:#5A5A5C;}
	.st3{fill:#C4BAB3;}
</style>
<g>
	<path class="st0" d="M31.8,5.3H9.6c-0.6,0-1.1,0.5-1.1,1.1v22.3c0,0.6,0.5,1.1,1.1,1.1h22.3c0.6,0,1.1-0.5,1.1-1.1V6.4
		C32.9,5.8,32.4,5.3,31.8,5.3z"/>
	<path class="st0" d="M6.8,9.7V5.4c0-0.1-0.1-0.2-0.2-0.2H2.3c-0.1,0-0.2,0.1-0.2,0.2v4.3c0,0.1,0.1,0.2,0.2,0.2h4.3
		C6.7,10,6.8,9.9,6.8,9.7z"/>
	<path class="st0" d="M6.8,16.3v-4.3c0-0.1-0.1-0.2-0.2-0.2H2.3c-0.1,0-0.2,0.1-0.2,0.2v4.3c0,0.1,0.1,0.2,0.2,0.2h4.3
		C6.7,16.5,6.8,16.4,6.8,16.3z"/>
	<path class="st0" d="M6.8,22.6v-4.3c0-0.1-0.1-0.2-0.2-0.2H2.3c-0.1,0-0.2,0.1-0.2,0.2v4.3c0,0.1,0.1,0.2,0.2,0.2h4.3
		C6.7,22.8,6.8,22.7,6.8,22.6z"/>
	<path class="st0" d="M6.8,29.4V25c0-0.1-0.1-0.2-0.2-0.2H2.3c-0.1,0-0.2,0.1-0.2,0.2v4.3c0,0.1,0.1,0.2,0.2,0.2h4.3
		C6.7,29.6,6.8,29.5,6.8,29.4z"/>
</g>
</svg>
