<svg width="36" height="32" viewBox="0 0 36 32" fill="none" xmlns="http://www.w3.org/2000/svg">
<path fill-rule="evenodd" clip-rule="evenodd" d="M35.2266 29.7346L35.2266 2.28885C35.2266 1.52938 34.7032 0.916626 34.0569 0.916626L10.6636 0.916625C10.0173 0.916625 9.49399 1.52938 9.49399 2.28885L9.49399 29.7346C9.49399 30.4928 10.0173 31.1068 10.6636 31.1068L34.0569 31.1068C34.7032 31.1068 35.2266 30.4928 35.2266 29.7346" fill="#871FFF"/>
<path fill-rule="evenodd" clip-rule="evenodd" d="M6.89746 6.53951L6.89746 1.1845C6.89746 1.03637 6.77683 0.916626 6.62761 0.916626L1.23299 0.916626C1.08376 0.916626 0.963135 1.03637 0.963135 1.1845L0.963135 6.53951C0.963135 6.68765 1.08376 6.80739 1.23299 6.80739L6.62761 6.80739C6.77683 6.80739 6.89746 6.68765 6.89746 6.53951" fill="#871FFF"/>
<path fill-rule="evenodd" clip-rule="evenodd" d="M6.89746 14.6394L6.89746 9.28435C6.89746 9.13622 6.77683 9.01648 6.62761 9.01648L1.23299 9.01648C1.08376 9.01648 0.963135 9.13622 0.963135 9.28435L0.963135 14.6394C0.963135 14.7875 1.08376 14.9073 1.23299 14.9073L6.62761 14.9073C6.77683 14.9073 6.89746 14.7875 6.89746 14.6394" fill="#871FFF"/>
<path fill-rule="evenodd" clip-rule="evenodd" d="M6.89746 22.7391L6.89746 17.3841C6.89746 17.236 6.77683 17.1162 6.62761 17.1162L1.23299 17.1162C1.08376 17.1162 0.963135 17.236 0.963135 17.3841L0.963135 22.7391C0.963135 22.8872 1.08376 23.007 1.23299 23.007L6.62761 23.007C6.77683 23.007 6.89746 22.8872 6.89746 22.7391" fill="#871FFF"/>
<path fill-rule="evenodd" clip-rule="evenodd" d="M6.89746 30.839L6.89746 25.4839C6.89746 25.3358 6.77683 25.2161 6.62761 25.2161L1.23299 25.2161C1.08376 25.2161 0.963135 25.3358 0.963135 25.4839L0.963135 30.839C0.963135 30.9871 1.08376 31.1068 1.23299 31.1068L6.62761 31.1068C6.77683 31.1068 6.89746 30.9871 6.89746 30.839" fill="#871FFF"/>
</svg>
