<svg width="35" height="35" viewBox="0 0 35 35" fill="none" xmlns="http://www.w3.org/2000/svg">
<path fill-rule="evenodd" clip-rule="evenodd" d="M28.818 0.880127H1.37223C0.612755 0.880127 0 1.40346 0 2.04974V25.4431C0 26.0894 0.612755 26.6127 1.37223 26.6127H28.818C29.5762 26.6127 30.1902 26.0894 30.1902 25.4431V2.04974C30.1902 1.40346 29.5762 0.880127 28.818 0.880127" fill="#871FFF"/>
<path fill-rule="evenodd" clip-rule="evenodd" d="M5.62289 29.209H0.267874C0.119741 29.209 0 29.3296 0 29.4788V34.8735C0 35.0227 0.119741 35.1433 0.267874 35.1433H5.62289C5.77102 35.1433 5.89076 35.0227 5.89076 34.8735V29.4788C5.89076 29.3296 5.77102 29.209 5.62289 29.209" fill="#871FFF"/>
<path fill-rule="evenodd" clip-rule="evenodd" d="M13.7225 29.209H8.36748C8.21935 29.209 8.09961 29.3296 8.09961 29.4788V34.8735C8.09961 35.0227 8.21935 35.1433 8.36748 35.1433H13.7225C13.8706 35.1433 13.9904 35.0227 13.9904 34.8735V29.4788C13.9904 29.3296 13.8706 29.209 13.7225 29.209" fill="#871FFF"/>
<path fill-rule="evenodd" clip-rule="evenodd" d="M21.8226 29.209H16.4676C16.3194 29.209 16.1997 29.3296 16.1997 29.4788V34.8735C16.1997 35.0227 16.3194 35.1433 16.4676 35.1433H21.8226C21.9707 35.1433 22.0905 35.0227 22.0905 34.8735V29.4788C22.0905 29.3296 21.9707 29.209 21.8226 29.209" fill="#871FFF"/>
<path fill-rule="evenodd" clip-rule="evenodd" d="M29.9222 29.209H24.5672C24.4191 29.209 24.2993 29.3296 24.2993 29.4788V34.8735C24.2993 35.0227 24.4191 35.1433 24.5672 35.1433H29.9222C30.0704 35.1433 30.1901 35.0227 30.1901 34.8735V29.4788C30.1901 29.3296 30.0704 29.209 29.9222 29.209" fill="#871FFF"/>
</svg>
