<?xml version="1.0" encoding="utf-8"?>
<!-- Generator: Adobe Illustrator 19.1.0, SVG Export Plug-In . SVG Version: 6.00 Build 0)  -->
<svg version="1.1" id="Layer_1" xmlns="http://www.w3.org/2000/svg" xmlns:xlink="http://www.w3.org/1999/xlink" x="0px" y="0px"
	 viewBox="0 0 35 35" style="enable-background:new 0 0 35 35;" xml:space="preserve">
<style type="text/css">
	.st0{fill:#0398CC;}
	.st1{fill:#FFFFFF;}
	.st2{fill:#5A5A5C;}
	.st3{fill:#C4BAB3;}
</style>
<g>
	<path class="st0" d="M28.6,1.9H6.3C5.7,1.9,5.2,2.4,5.2,3v22.3c0,0.6,0.5,1.1,1.1,1.1h22.3c0.6,0,1.1-0.5,1.1-1.1V3
		C29.7,2.4,29.2,1.9,28.6,1.9z"/>
	<path class="st0" d="M9.9,28.4H5.6c-0.1,0-0.2,0.1-0.2,0.2v4.3c0,0.1,0.1,0.2,0.2,0.2h4.3c0.1,0,0.2-0.1,0.2-0.2v-4.3
		C10.1,28.5,10,28.4,9.9,28.4z"/>
	<path class="st0" d="M16.5,28.4h-4.3c-0.1,0-0.2,0.1-0.2,0.2v4.3c0,0.1,0.1,0.2,0.2,0.2h4.3c0.1,0,0.2-0.1,0.2-0.2v-4.3
		C16.7,28.5,16.6,28.4,16.5,28.4z"/>
	<path class="st0" d="M22.8,28.4h-4.3c-0.1,0-0.2,0.1-0.2,0.2v4.3c0,0.1,0.1,0.2,0.2,0.2h4.3c0.1,0,0.2-0.1,0.2-0.2v-4.3
		C23,28.5,22.9,28.4,22.8,28.4z"/>
	<path class="st0" d="M29.6,28.4h-4.3c-0.1,0-0.2,0.1-0.2,0.2v4.3c0,0.1,0.1,0.2,0.2,0.2h4.3c0.1,0,0.2-0.1,0.2-0.2v-4.3
		C29.8,28.5,29.7,28.4,29.6,28.4z"/>
</g>
</svg>
