<?xml version="1.0" encoding="UTF-8"?>
<svg width="21px" height="19px" viewBox="0 0 21 19" version="1.1" xmlns="http://www.w3.org/2000/svg" xmlns:xlink="http://www.w3.org/1999/xlink">
    <!-- Generator: Sketch 46.2 (44496) - http://www.bohemiancoding.com/sketch -->
    <title>retest icon</title>
    <desc>Created with Sketch.</desc>
    <defs></defs>
    <g id="Welcome" stroke="none" stroke-width="1" fill="none" fill-rule="evenodd">
        <g id="notifications-+-pre-call-+-layout" transform="translate(-1560.000000, -1685.000000)" fill="#494747">
            <g id="poor-connectivity-pop-over-copy-3" transform="translate(1452.000000, 1251.000000)">
                <g id="retry" transform="translate(108.000000, 420.000000)">
                    <path d="M11.48805,14.4438875 C8.9068,14.5331375 6.459425,15.7135125 4.77155,17.6813875 C3.6778,18.9580125 2.975175,20.4857625 2.696925,22.1377625 L1.606675,20.4962625 C1.338925,20.0937625 0.796425,19.9826375 0.393925,20.2503875 C-0.008575,20.5181375 -0.118825,21.0606375 0.148925,21.4640125 L2.76605,25.4067625 C2.915675,25.6333875 3.164175,25.7768875 3.4363,25.7952625 C3.74605,25.7970125 3.984925,25.6893875 4.151175,25.4995125 L7.22155,22.0056375 C7.54005,21.6425125 7.50505,21.0895125 7.14105,20.7710125 C6.7788,20.4525125 6.2258,20.4883875 5.906425,20.8506375 L4.40755,22.5568875 C4.620175,21.1665125 5.1898,19.8820125 6.0998,18.8206375 C7.469175,17.2228875 9.455425,16.2656375 11.550175,16.1930125 C13.52855,16.1230125 15.428175,16.8308875 16.88155,18.1862625 C18.33405,19.5416375 19.1723,21.3808875 19.241425,23.3662625 C19.311425,25.3516375 18.60355,27.2451375 17.248175,28.6985125 C15.893675,30.1510125 14.05355,30.9892625 12.06905,31.0583875 C9.33564854,31.1545892 6.84627904,29.4763218 5.46963718,27.1215001 C4.375,27.125 4.375,27.125 3.91239883,27.9246703 C5.54825713,30.7835418 8.52023367,32.8135646 11.80305,32.8127625 C11.91155,32.8127625 12.020925,32.8110125 12.129425,32.8075125 C14.58205,32.7217625 16.854425,31.6866375 18.5283,29.8920125 C20.2013,28.0965125 21.0763,25.7576375 20.991425,23.3058875 C20.905675,20.8532625 19.869675,18.5800125 18.07505,16.9061375 C16.280425,15.2322625 13.938925,14.3528875 11.48805,14.4438875 Z" id="retest-icon"></path>
                </g>
            </g>
        </g>
    </g>
</svg>