<?xml  version="1.0" encoding="UTF-8"?>
<!DOCTYPE svg PUBLIC "-//W3C//DTD SVG 1.0//EN" "http://www.w3.org/TR/2001/REC-SVG-20010904/DTD/svg10.dtd" >
<svg xmlns="http://www.w3.org/2000/svg" >
<metadata>
<version>1.0</version>
<id><![CDATA[Avant Garde Gothic ITCW01XLt]]></id>
<vendor>Monotype Imaging Inc.</vendor>
<credits>
<name>Fonts.com WebFonts</name>
<URL>http://webfonts.fonts.com</URL>
<role>Home of the Web fonts</role>
</credits>
<license>
<URL>http://webfonts.fonts.com/Legal</URL>
</license>
<copyright><![CDATA[Font software Copyright 1993, 1994, 2001 Adobe Systems Incorporated. Typeface designs Copyright 2005 International Typeface Corporation. All rights reserved.]]></copyright>
<trademark><![CDATA[ITC and Avant Garde are trademarks of International Typeface Corporation Registered in U.S. Patent and Trademark Office and may be registered in certain other jurisdictions.]]></trademark>
<licensee>
<name></name>
</licensee>
</metadata>
<defs >
<font horiz-adv-x="556" id="2c90e8aa-95a7-463c-956c-c7fac7412d35">
<font-face font-family="" panose-1="2 0 5 3 3 0 0 2 0 4" ascent="951" descent="-274" units-per-em="1000" alphabetic="0">
</font-face>
<missing-glyph horiz-adv-x="0" />

<glyph unicode="&#xA;" />
<glyph unicode="&#xD;" horiz-adv-x="0" />
<glyph unicode=" " horiz-adv-x="277" />
<glyph unicode="!" horiz-adv-x="259" d="M115 166V740H145V166H115ZM115 0V81H145V0H115Z"  />
<glyph unicode="&quot;" horiz-adv-x="333" d="M209 444V740H239V444H209ZM94 444V740H124V444H94Z"  />
<glyph unicode="#" horiz-adv-x="555" d="M534 431H382L363 294H515L512 271H361L327 31H303L336 271H193L160 31H135L169 271H18L21 294H172L191 431H40L44 454H195L226 675H250L219 454H362L393 675H417L386 454H537L534 431ZM216 431L196 294H339L359 431H216Z"  />
<glyph unicode="$" horiz-adv-x="555" d="M473 225Q473 191 460 159T424 100T369 58T296 38V-57H266V38Q228 41 196 56T139 96T100 154T83 227H113Q117 184 133 154T174 105T227 76T283 67Q317 67 346 79T396 113T430 164T443 226Q443 270 428 298T386 344T327 373T260 394Q238 400 213 410T165 440T127 488T112 559Q112 593 123 622T154 673T203 710T266 730V810H296V730Q338 725 368 709T417 670T445 620T457 568H427Q422 607 406 632T369 674T324 696T283 703Q257 703 232 693T187 665T155 619T142 559Q142 521 155 497T191 457T243 431T305 412Q324 406 353 396T408 366T454 311T473 225Z"  />
<glyph unicode="%" horiz-adv-x="719" d="M348 590Q348 555 336 525T302 473T250 439T185 427Q150 427 120 439T68 473T34 525T22 590Q22 625 34 655T68 706T120 740T185 753Q220 753 250 741T301 707T335 655T348 590ZM146 0H114L571 740H603L146 0ZM697 150Q697 115 685 85T651 33T599 -1T534 -13Q499 -13 469 -1T417 33T383 85T371 150Q371 185 383 215T417 266T469 300T534 313Q569 313 599 301T650 267T684 215T697 150ZM320 590Q320 620 310 645T283 689T240 717T185 728Q155 728 130 718T88 689T60 646T50 590Q50 560 60 535T87 491T130 463T185 452Q215 452 240 462T282 491T310 534T320 590ZM669 150Q669 180 659 205T632 249T589 277T534 288Q504 288 479 278T437 249T409 206T399 150Q399 120 409 95T436 51T479 23T534 12Q564 12 589 22T631 51T659 94T669 150Z"  />
<glyph unicode="&amp;" horiz-adv-x="721" d="M678 -11L493 178L469 131Q457 107 442 82T403 35T347 1T267 -13Q217 -13 178 5T112 52T70 118T55 194Q55 242 74 279T123 345T187 393T253 425L215 466Q200 482 188 496T168 526T155 558T150 596V598Q150 629 162 657T195 706T244 740T306 753Q340 753 370 740T422 705T457 654T470 592Q470 554 456 527T419 481T365 446T301 416L485 228L610 467H643L507 206L699 9L678 -11ZM440 593Q440 618 431 642T404 684T362 714T307 725Q276 725 252 713T212 683T188 643T180 600Q180 563 196 537T231 491L281 438Q322 456 352 471T401 503T430 541T440 593ZM273 404Q215 378 179 352T121 300T93 246T85 193Q85 159 97 127T134 70T192 30T270 15Q326 15 366 42T443 144L470 200L273 404Z"  />
<glyph unicode="&apos;" horiz-adv-x="222" d="M96 444V740H126V444H96Z"  />
<glyph unicode="(" horiz-adv-x="425" d="M393 -274Q363 -254 328 -228T254 -158Q185 -78 144 24T103 241Q103 320 124 396T184 539T275 660T393 753V718Q340 685 293 636T211 525T156 391T135 241Q135 163 155 91T211 -43T293 -154T393 -237V-274H393Z"  />
<glyph unicode=")" horiz-adv-x="425" d="M322 238Q322 158 301 82T241 -60T150 -182T32 -274V-240Q85 -207 132 -157T214 -46T269 88T290 238Q290 316 270 388T214 522T132 633T32 716V753Q62 733 97 707T171 637Q241 556 281 454T322 238Z"  />
<glyph unicode="*" horiz-adv-x="573" d="M409 506L301 567V444H272V568L166 506L151 531L258 593L151 653L166 679L272 617V740H301V617L407 679L421 654L316 593L423 530L409 506Z"  />
<glyph unicode="+" horiz-adv-x="600" d="M314 236V0H286V236H50V264H286V501H314V264H550V236H314Z"  />
<glyph unicode="&#x2c;" horiz-adv-x="277" d="M93 -72H61L124 82H156L93 -72Z"  />
<glyph unicode="-" horiz-adv-x="266" d="M0 262V291H266V262H0Z"  />
<glyph unicode="." horiz-adv-x="277" d="M124 0V81H154V0H124Z"  />
<glyph unicode="/" horiz-adv-x="518" d="M100 -100H67L418 740H451L100 -100Z"  />
<glyph unicode="0" horiz-adv-x="555" d="M515 222Q515 175 502 139T468 77T421 34T369 6T319 -9T279 -13Q247 -13 206 -2T127 37T65 109T39 222V509Q39 563 52 601T88 667T136 711T189 737T237 750T274 753Q323 753 367 736T444 689T496 615T515 518V222ZM485 518Q485 555 473 592T434 659T369 707T274 726Q234 726 197 713T132 672T86 605T69 512V222Q69 172 86 133T133 68T199 28T277 14Q304 14 340 24T408 58T463 122T485 222V518Z"  />
<glyph unicode="1" horiz-adv-x="555" d="M275 0V713H111V740H305V0H275Z"  />
<glyph unicode="2" horiz-adv-x="555" d="M504 526Q502 470 474 426T395 330L97 27H504V0H57V27L375 352Q423 401 448 442T474 531V536Q474 578 460 613T420 673T360 712T286 726Q250 726 217 713T158 674T116 608T99 514H69Q70 578 90 623T142 697T213 739T290 753Q335 753 374 737T442 691T487 622T504 535V526Z"  />
<glyph unicode="3" horiz-adv-x="555" d="M492 217Q492 165 475 123T428 50T356 4T264 -13Q222 -13 182 2T111 47T59 118T39 215H69Q70 162 89 125T136 62T199 26T267 14Q312 14 348 29T409 72T448 135T462 211Q462 242 451 277T414 341T348 390T251 410H211V437H250Q306 437 338 455T387 498T408 547T413 582Q413 613 403 639T374 685T330 715T273 726Q240 726 214 715T169 684T139 639T126 585H96Q99 627 115 658T155 711T210 742T270 753Q303 753 334 742T389 710T428 656T443 581Q443 560 437 537T419 492T386 453T339 426V424Q386 407 416 381T463 325T486 267T492 217Z"  />
<glyph unicode="4" horiz-adv-x="555" d="M434 144V0H404V144H17V170L393 740H434V171H509V144H434ZM404 704H402L52 171H404V704Z"  />
<glyph unicode="5" horiz-adv-x="555" d="M515 241Q515 187 495 141T440 60T361 7T267 -13Q231 -13 191 0T115 42T53 113T21 217H51Q57 167 78 130T129 66T196 27T268 14Q311 14 350 31T420 79T467 151T485 238Q485 286 467 327T419 399T350 447T268 465Q256 465 238 463T197 452T149 426T99 379L73 386L141 740H473V713H165L111 434Q121 442 136 452T170 471T214 486T270 492Q324 492 369 471T446 416T497 336T515 241Z"  />
<glyph unicode="6" horiz-adv-x="555" d="M521 240Q521 190 503 144T453 63T375 8T277 -13Q213 -13 167 10T91 69T47 147T33 229Q33 293 53 337T96 414L320 740H354L156 452L158 451Q178 465 209 477T280 489Q328 489 372 471T449 420T501 341T521 240ZM491 237Q491 294 472 336T422 406T354 448T281 462Q249 462 211 450T140 410T85 338T63 231Q63 188 77 149T119 80T186 32T276 14Q324 14 363 32T431 80T475 151T491 237Z"  />
<glyph unicode="7" horiz-adv-x="555" d="M150 0H119L448 713H87V740H480V713L150 0Z"  />
<glyph unicode="8" horiz-adv-x="555" d="M502 209Q502 162 484 122T436 51T364 4T277 -13Q230 -13 190 4T119 51T70 121T52 209Q52 246 63 279T95 340T144 388T207 419Q159 439 129 483T99 579Q99 614 113 645T151 701T207 739T277 753Q314 753 346 740T403 703T441 647T455 579Q455 527 425 483T347 419Q380 408 408 388T458 341T490 280T502 209ZM425 578Q425 609 414 636T382 683T335 714T277 726Q246 726 219 715T172 683T141 636T129 578Q129 547 140 521T172 474T219 443T277 431Q308 431 335 442T382 474T413 520T425 578ZM472 209Q472 250 457 285T416 347T354 389T277 404Q236 404 201 389T139 348T97 286T82 209Q82 168 97 133T138 71T200 29T277 14Q318 14 353 29T415 70T457 132T472 209Z"  />
<glyph unicode="9" horiz-adv-x="555" d="M522 511Q522 479 517 452T502 403T482 361T459 326L235 0H201L399 288L397 289Q377 275 345 263Q329 258 312 255T275 251Q227 251 183 269T106 320T54 398T34 500Q34 550 52 596T102 677T180 732T278 753Q342 753 388 730T464 671T508 593T522 511ZM492 509Q492 552 478 591T436 660T369 708T279 726Q231 726 192 708T124 660T80 589T64 503Q64 446 83 404T133 334T201 292T274 278Q306 278 344 290T415 330T470 402T492 509Z"  />
<glyph unicode=":" horiz-adv-x="277" d="M124 449V530H154V449H124ZM124 0V81H154V0H124Z"  />
<glyph unicode=";" horiz-adv-x="277" d="M123 449V530H153V449H123ZM93 -72H61L124 82H156L93 -72Z"  />
<glyph unicode="&lt;" horiz-adv-x="600" d="M50 235V267L550 502V471L83 251L550 31V0L50 235Z"  />
<glyph unicode="=" horiz-adv-x="600" d="M50 333V361H550V333H50ZM50 139V167H550V139H50Z"  />
<glyph unicode="&gt;" horiz-adv-x="600" d="M50 0V31L517 251L50 471V502L550 267V235L50 0Z"  />
<glyph unicode="?" horiz-adv-x="536" d="M467 542Q467 512 457 486T429 437T390 392T348 350Q320 323 305 298T283 250T275 207T273 171V166H243Q244 190 246 214T257 265T284 318T334 378Q354 398 372 415T405 452T428 493T437 544V547Q437 583 424 614T386 669T328 707T256 721Q227 721 195 712T136 681T91 626T70 543H40Q43 603 66 643T121 707T189 742T255 752Q297 752 335 737T402 694T449 628T467 542ZM243 0V81H272V0H243Z"  />
<glyph unicode="@" horiz-adv-x="796" d="M768 441Q768 367 742 314T678 227T600 177T533 161Q527 161 514 162T487 171T464 194T454 236H452Q445 225 435 213T409 190T373 172T325 165Q312 165 294 170T258 189T229 228T217 295Q217 347 234 397T281 487T349 551T429 576Q459 576 478 567T510 545T527 518T535 493H537L560 560H588L492 288Q487 275 483 262T479 235Q479 218 485 209T499 194T517 188T534 187Q561 187 596 203T664 250T718 329T740 440Q740 513 712 567T638 656T537 709T427 727Q355 727 291 701T177 627T98 513T69 365Q69 284 98 219T175 109T287 38T417 13Q457 13 501 23T586 54T663 108T723 187H748Q725 133 686 95T602 33T508 -2T418 -13Q338 -13 270 16T150 97T70 217T41 365Q41 445 70 516T151 639T273 722T425 753Q486 753 547 733T657 674T737 577T768 441ZM519 462Q518 487 509 504T486 531T457 546T431 550Q400 550 367 530T307 476T263 395T245 295Q245 263 253 243T273 212T300 196T327 191Q364 191 389 206T432 242T459 286T475 324L503 397Q512 420 515 432T519 459V462Z"  />
<glyph unicode="A" horiz-adv-x="687" d="M648 0L537 258H150L39 0H7L324 740H363L680 0H648ZM343 712L163 285H524L343 712Z"  />
<glyph unicode="B" horiz-adv-x="540" d="M497 198Q497 129 466 84T380 17Q357 7 327 4T262 0H77V740H234Q282 740 311 733T364 713Q389 699 406 680T433 640T447 597T451 554Q451 546 450 527T439 483T408 435T349 393V391Q400 376 429 350T474 294T493 239T497 198ZM421 558Q421 609 398 643T346 691Q330 700 306 706T234 713H107V401H241Q274 401 300 405T346 420Q392 446 406 482T421 558ZM467 197Q467 253 440 294T367 356Q352 362 339 366T312 371T280 373T241 374H107V27H263Q292 27 319 30T369 43Q411 60 439 97T467 197Z"  />
<glyph unicode="C" horiz-adv-x="786" d="M714 575Q703 590 680 615T621 665T535 708T425 726Q351 726 287 700T174 626T99 513T71 370Q71 293 98 228T174 116T286 41T425 14Q490 14 540 33T626 76T684 125T714 161H748Q729 129 698 98T626 42T534 2T425 -13Q345 -13 276 15T154 95T71 216T41 370Q41 453 71 523T153 645T275 724T425 753Q484 753 534 737T626 696T698 638T749 575H714Z"  />
<glyph unicode="D" horiz-adv-x="701" d="M659 370Q659 283 634 214T560 98T443 25T286 0H77V740H286Q373 740 442 715T560 643T633 526T659 370ZM629 368Q629 449 606 513T539 621T431 689T286 713H107V27H286Q366 27 429 50T537 117T605 224T629 368Z"  />
<glyph unicode="E" horiz-adv-x="547" d="M77 0V740H483V713H107V386H483V359H107V27H483V0H77Z"  />
<glyph unicode="F" horiz-adv-x="477" d="M107 359V0H77V740H440V713H107V386H440V359H107Z"  />
<glyph unicode="G" horiz-adv-x="853" d="M819 313Q811 246 778 187T692 83T571 13T425 -13Q345 -13 276 15T154 95T71 216T41 370Q41 453 71 523T153 645T275 724T425 753Q476 753 525 741T619 706T699 650T761 576H725Q669 649 593 687T425 726Q351 726 287 699T174 625T99 512T71 370Q71 293 98 228T174 116T286 41T425 14Q495 14 556 37T664 98T742 185T783 286H342V313H819H819Z"  />
<glyph unicode="H" horiz-adv-x="628" d="M521 0V359H107V0H77V740H107V386H521V740H551V0H521Z"  />
<glyph unicode="I" horiz-adv-x="185" d="M77 0V740H107V0H77Z"  />
<glyph unicode="J" horiz-adv-x="453" d="M377 212Q377 186 375 154T359 90Q351 73 339 56T308 25Q281 5 250 -4T190 -13Q159 -13 129 -4T74 25T31 74T6 141H39Q49 99 69 74T111 36T155 18T190 14H192Q250 15 285 42T331 101Q341 126 344 152T347 212V740H377V212H377Z"  />
<glyph unicode="K" horiz-adv-x="536" d="M500 0L241 351L121 193V0H91V740H121V240H123L500 740H536L260 375L536 0H500Z"  />
<glyph unicode="L" horiz-adv-x="423" d="M77 0V740H107V27H420V0H77Z"  />
<glyph unicode="M" horiz-adv-x="933" d="M825 0V710H823L475 0H458L109 710H107V0H77V740H125L467 48L808 740H855V0H825Z"  />
<glyph unicode="N" horiz-adv-x="738" d="M623 0L109 710H107V0H77V740H122L629 40H631V740H661V0H623Z"  />
<glyph unicode="O" horiz-adv-x="851" d="M809 370Q809 287 779 217T697 95T574 16T425 -13Q345 -13 276 15T154 95T71 216T41 370Q41 453 71 523T153 645T275 724T425 753Q504 753 574 725T696 645T779 524T809 370ZM779 370Q779 447 751 512T675 624T563 699T425 726Q351 726 287 699T174 625T99 512T71 370Q71 293 98 228T174 116T286 41T425 14Q498 14 562 41T675 115T751 228T779 370Z"  />
<glyph unicode="P" horiz-adv-x="511" d="M499 530Q499 479 478 434T424 364Q406 350 387 342T345 329T297 322T239 320H97V0H67V740H239Q272 740 298 738T346 732T387 718T424 696Q457 672 478 627T499 530ZM469 529Q469 573 452 612T408 672Q392 684 376 691T340 704T296 711T240 713H97V347H240Q271 347 295 349T339 356T375 368T408 388Q435 408 452 447T469 529Z"  />
<glyph unicode="Q" horiz-adv-x="882" d="M885 -13Q841 -7 811 0T757 16T714 36T671 61Q657 51 636 39T585 15T521 -5T443 -13Q354 -13 283 18T161 102T84 224T56 370Q56 453 86 523T168 645T290 724T440 753Q519 753 589 725T711 645T794 524T824 370Q824 309 810 262T776 180T733 120T696 80Q717 68 737 59T778 42T826 28T885 18V-13ZM794 370Q794 447 766 512T690 624T578 699T440 726Q366 726 302 699T189 625T114 512T86 370Q86 323 93 294T107 246Q137 256 178 266T279 276Q340 276 395 262T499 222Q511 216 521 210T549 190T595 156T672 98Q733 151 763 221T794 370ZM648 80Q641 85 621 100T580 130T543 159T526 172Q466 211 405 230T275 249Q221 249 185 239T119 217Q152 149 197 109T287 47T375 20T444 14Q478 14 509 20T566 36T613 57T648 80Z"  />
<glyph unicode="R" horiz-adv-x="554" d="M540 507Q540 472 528 433T490 361T423 305T322 280L293 279L492 0H454L237 306H283Q309 306 331 307T372 314T410 328T447 353Q482 390 496 428T510 511Q510 559 488 607T422 683Q405 694 386 700T345 709T296 712T236 713H97V0H67V740H236Q279 740 310 738T363 732T402 722T433 709Q455 697 474 677T508 631T530 575T540 512V507H540Z"  />
<glyph unicode="S" horiz-adv-x="518" d="M474 194Q474 148 456 110T408 45T339 2T259 -13Q226 -13 190 -2T123 34T71 96T45 187H75Q82 134 103 100T152 47T208 21T258 14Q293 14 326 26T386 62T428 117T444 190Q444 241 425 273T376 326T315 356T255 373Q231 379 198 389T134 420T83 473T61 559V562Q61 607 77 642T121 702T185 739T262 752Q295 752 326 742T384 711T428 658T453 580H423Q419 602 410 627T382 674T335 710T260 725Q225 725 194 714T140 681T104 630T91 564Q91 520 107 492T152 444T216 414T290 392Q299 390 316 386T353 373T395 350T434 315T463 264T474 194Z"  />
<glyph unicode="T" horiz-adv-x="443" d="M236 713V0H206V713H5V740H437V713H236Z"  />
<glyph unicode="U" horiz-adv-x="605" d="M529 260Q529 235 528 205T518 144T491 84T440 32Q411 12 376 0T302 -13Q264 -13 229 -1T165 32Q132 55 114 84T88 144T78 205T76 260V740H106V260Q106 233 106 210T111 166T125 125T152 82Q176 50 217 32T304 14Q346 14 387 32T453 82Q470 104 479 124T493 166T498 210T499 260V740H529V260H529Z"  />
<glyph unicode="V" horiz-adv-x="666" d="M343 0H322L7 740H41L333 50L626 740H659L343 0Z"  />
<glyph unicode="W" horiz-adv-x="888" d="M664 0H625L444 661H442L263 0H223L12 740H44L242 41H244L433 740H454L645 41H647L845 740H876L664 0Z"  />
<glyph unicode="X" horiz-adv-x="555" d="M512 0L276 350L41 0H8L260 376L17 740H53L276 404L501 740H536L293 376L547 0H512Z"  />
<glyph unicode="Y" horiz-adv-x="554" d="M292 255V0H262V255L15 740H48L277 289L505 740H539L292 255Z"  />
<glyph unicode="Z" horiz-adv-x="499" d="M20 0L423 713H6V740H472L69 27H493V0H20Z"  />
<glyph unicode="[" horiz-adv-x="425" d="M344 -272Q256 -230 217 -167T178 -15V495Q178 513 180 544T198 612T248 686T344 753V717Q271 681 241 624T210 495V-15Q210 -34 213 -62T229 -121T269 -182T344 -236V-272H344Z"  />
<glyph unicode="\" horiz-adv-x="518" d="M418 -100L67 740H100L451 -100H418Z"  />
<glyph unicode="]" horiz-adv-x="425" d="M247 -15Q247 -33 245 -64T227 -132T177 -205T81 -272V-236Q154 -200 184 -144T215 -15V495Q215 514 212 542T196 602T156 663T81 717V753Q169 710 208 647T247 495V-15H247Z"  />
<glyph unicode="^" horiz-adv-x="600" d="M456 375L300 707L144 375H112L284 740H316L488 375H456Z"  />
<glyph unicode="_" horiz-adv-x="500" d="M0 -125V-75H500V-125H0Z"  />
<glyph unicode="`" horiz-adv-x="555" d="M382 605L144 743L158 766L395 628L382 605Z"  />
<glyph unicode="a" horiz-adv-x="674" d="M568 0V132H566Q531 64 468 26T320 -13Q255 -13 203 10T115 72T60 161T41 265Q41 320 60 370T116 458T204 520T320 543Q368 543 409 530T481 495T534 448T566 395H568V530H596V0H568ZM571 265Q571 319 552 365T499 445T419 498T320 517Q268 517 223 499T143 447T89 368T69 265Q69 220 84 175T131 94T211 36T323 13Q378 13 423 33T502 87T553 168T571 265Z"  />
<glyph unicode="b" horiz-adv-x="674" d="M633 265Q633 211 614 161T559 73T471 11T354 -13Q269 -13 206 25T108 132H106V0H78V740H106V395H108Q122 424 144 450T197 497T267 530T354 543Q418 543 470 520T558 459T613 370T633 265ZM605 265Q605 321 585 367T531 447T451 498T354 517Q301 517 255 498T175 446T122 366T103 265Q103 214 121 168T172 88T250 33T351 13Q415 13 463 35T542 94T589 175T605 265Z"  />
<glyph unicode="c" horiz-adv-x="619" d="M553 358Q539 396 516 425T463 475T396 506T321 517Q265 517 224 500T142 446Q110 417 90 368T69 265Q69 209 89 163T143 83T223 32T320 13Q365 13 403 26T471 60T521 109T552 167H583Q569 126 544 93T485 37T409 0T320 -13Q262 -13 212 7T123 63T63 151T41 264Q41 323 62 374T120 462T208 521T320 543Q360 543 400 532T476 497T540 440T584 358H553Z"  />
<glyph unicode="d" horiz-adv-x="677" d="M568 0V132H566Q531 64 468 26T320 -13Q255 -13 203 10T115 72T60 161T41 265Q41 320 60 370T116 458T204 520T320 543Q368 543 409 530T481 495T534 448T566 395H568V740H596V0H568ZM571 265Q571 319 552 365T499 445T419 498T320 517Q268 517 223 499T143 447T89 368T69 265Q69 220 84 175T131 94T211 36T323 13Q378 13 423 33T502 87T553 168T571 265Z"  />
<glyph unicode="e" horiz-adv-x="619" d="M588 262H60Q61 197 85 150T147 73T228 28T311 13Q385 13 445 49T537 153H568Q550 111 522 80T461 28T389 -3T310 -13Q249 -13 198 8T110 67T52 154T31 264Q31 324 52 375T111 463T200 522T311 543Q364 543 413 525T500 472T562 388T589 277L588 262ZM560 288Q558 336 537 377T482 450T405 499T315 517Q264 517 219 500T140 452T85 379T61 288H560Z"  />
<glyph unicode="f" horiz-adv-x="263" d="M122 504V0H94V504H7V530H94V582Q94 591 95 607T100 641T115 678T143 713T190 740T260 753V726Q246 725 223 722T178 705T139 663T122 585V530H260V504H122Z"  />
<glyph unicode="g" horiz-adv-x="675" d="M598 59Q598 -24 568 -79T494 -166T406 -212T329 -226Q289 -226 250 -216T176 -184T113 -133T68 -63H100Q110 -79 125 -101T169 -145Q206 -174 247 -187T325 -200Q371 -200 415 -182T494 -131T549 -51T570 54V132H567Q533 64 470 26T322 -13Q256 -13 204 10T115 72T59 161T40 265Q40 320 59 370T115 458T204 520T322 543Q370 543 411 530T483 495T536 448T568 395H570V530H598V59ZM573 265Q573 319 554 365T501 445T421 498T322 517Q269 517 223 499T143 447T88 368T68 265Q68 220 84 175T132 94T212 36T325 13Q380 13 425 33T504 87T555 168T573 265Z"  />
<glyph unicode="h" horiz-adv-x="640" d="M536 0V280Q536 349 519 394T471 467Q451 485 416 501T321 517Q221 517 164 461T106 305V0H78V740H106V428H108Q120 456 142 478T193 514T254 535T318 543Q332 543 351 542T393 535T440 519T487 490Q564 425 564 280V0H536Z"  />
<glyph unicode="i" horiz-adv-x="184" d="M78 649V740H106V649H78ZM78 0V530H106V0H78Z"  />
<glyph unicode="j" horiz-adv-x="219" d="M95 648V740H123V648H95ZM123 6Q123 -25 121 -61T106 -128T65 -183T-14 -213V-183Q23 -177 44 -162T77 -122T91 -66T95 6V530H123V6Z"  />
<glyph unicode="k" horiz-adv-x="467" d="M414 0L220 249L106 97V0H78V740H106V145H108L397 530H434L238 271L451 0H414Z"  />
<glyph unicode="l" horiz-adv-x="183" d="M78 0V740H106V0H78Z"  />
<glyph unicode="m" horiz-adv-x="949" d="M846 0V297Q846 352 834 397T792 472Q749 517 668 517Q633 517 595 503T531 456Q518 439 510 424T498 391T492 351T490 297V0H462V297Q462 359 453 393T424 454Q401 484 364 500T281 517Q241 517 208 500T155 459Q134 433 120 397T106 302V0H78V530H106V436H108Q126 472 151 493T201 526T249 540T284 543Q332 543 372 527T440 478Q451 465 460 450T475 416H477Q481 427 489 443T514 478Q542 509 582 526T668 543Q716 543 752 529T813 490Q846 458 860 408T874 297V0H846Z"  />
<glyph unicode="n" horiz-adv-x="641" d="M536 0V280Q536 349 519 394T471 467Q451 485 416 501T321 517Q221 517 164 461T106 305V0H78V530H106V428H108Q120 456 142 478T193 514T254 535T318 543Q332 543 351 542T393 535T440 519T487 490Q564 425 564 280V0H536Z"  />
<glyph unicode="o" horiz-adv-x="641" d="M599 265Q599 205 578 155T520 67T431 8T320 -13Q260 -13 209 8T121 66T62 154T41 265Q41 324 62 375T120 463T209 522T320 543Q380 543 431 522T519 464T578 375T599 265ZM571 265Q571 319 552 365T499 445T420 498T320 517Q266 517 221 498T141 445T88 365T69 265Q69 211 88 165T141 85T220 32T320 13Q374 13 419 32T499 85T552 165T571 265Z"  />
<glyph unicode="p" horiz-adv-x="677" d="M633 265Q633 210 614 160T558 72T470 10T354 -13Q306 -13 265 0T193 35T140 82T108 135H106V-213H78V530H106V398H108Q143 466 206 504T354 543Q419 543 471 520T559 458T614 369T633 265ZM605 265Q605 310 590 355T543 436T463 494T351 517Q296 517 251 497T172 443T121 362T103 265Q103 211 122 165T175 85T255 32T354 13Q406 13 451 31T531 83T585 162T605 265Z"  />
<glyph unicode="q" horiz-adv-x="674" d="M568 -213V135H566Q556 109 535 83T482 35T409 1T320 -13Q256 -13 205 10T117 71T61 160T41 265Q41 319 60 369T115 457T203 519T320 543Q405 543 468 505T566 398H568V530H596V-213H568ZM571 265Q571 316 553 362T502 442T424 497T323 517Q259 517 211 495T132 436T85 355T69 265Q69 209 88 163T142 83T222 32T320 13Q373 13 419 32T498 84T551 164T571 265Z"  />
<glyph unicode="r" horiz-adv-x="302" d="M293 516Q269 515 241 510T177 479Q153 458 139 436T118 389T108 340T106 287V0H78V530H106V434H108Q126 471 150 492T201 525T251 539T293 543V516H293Z"  />
<glyph unicode="s" horiz-adv-x="426" d="M366 137Q366 106 354 79T322 31T273 -1T211 -13Q179 -13 150 -3T98 27T62 75T48 137V147H76Q76 83 114 48T211 13Q240 13 263 23T303 50T329 90T338 138V142Q336 197 305 224T210 269Q180 276 154 286T108 311T78 349T67 406Q67 434 76 459T104 503T149 532T211 543Q240 543 265 534T310 508T340 465T351 405H323Q323 435 314 456T289 490T253 510T211 517Q152 517 124 485T95 406Q97 358 126 336T211 297Q237 290 264 282T312 257T349 215T366 146V137H366Z"  />
<glyph unicode="t" horiz-adv-x="296" d="M152 504V0H124V504H7V530H124V740H152V530H288V504H152Z"  />
<glyph unicode="u" horiz-adv-x="641" d="M536 0V107H534Q522 77 500 55T450 17T390 -5T325 -13Q320 -13 303 -13T261 -8T209 8T155 40Q78 105 78 250V530H106V250Q106 181 123 136T171 63Q202 35 240 24T319 13Q422 13 479 69T536 229V530H564V0H536Z"  />
<glyph unicode="v" horiz-adv-x="481" d="M258 0H222L4 530H33L240 33L444 530H476L258 0Z"  />
<glyph unicode="w" horiz-adv-x="758" d="M553 0H521L379 402H377L237 0H205L10 530H41L220 42H222L369 458H390L537 42H539L717 530H749L553 0Z"  />
<glyph unicode="x" horiz-adv-x="407" d="M363 0L204 239L46 0H10L187 266L10 530H46L204 293L363 530H397L221 266L397 0H363Z"  />
<glyph unicode="y" horiz-adv-x="481" d="M159 -213H127L221 1L11 530H42L238 39L447 530H480L159 -213Z"  />
<glyph unicode="z" horiz-adv-x="407" d="M12 0V24L341 504H30V530H377V503L48 26H394V0H12Z"  />
<glyph unicode="{" horiz-adv-x="425" d="M278 -272Q230 -272 213 -242T196 -146V37Q196 106 180 152T115 223V251Q151 260 173 312T196 443V630Q196 694 213 723T278 753H344V727H290Q270 727 258 722T239 705T230 670T228 612V427Q228 402 224 374T209 320T184 271T147 237Q184 220 206 169T228 54V-129Q228 -167 230 -190T240 -225T259 -242T290 -246H344V-272H278Z"  />
<glyph unicode="|" horiz-adv-x="555" d="M263 -100V740H293V-100H263Z"  />
<glyph unicode="}" horiz-adv-x="425" d="M310 223Q285 211 270 193T245 152T233 100T229 37V-146Q229 -211 212 -241T147 -272H81V-246H135Q154 -246 166 -242T185 -226T194 -190T197 -129V54Q197 86 202 115T218 169T244 211T278 237Q256 249 241 271T216 319T202 374T197 427V612Q197 647 195 669T186 704T167 722T135 727H81V753H147Q195 753 212 724T229 630V443Q229 365 251 313T310 251V223H310Z"  />
<glyph unicode="~" horiz-adv-x="600" d="M523 271Q505 238 479 219T424 200Q395 200 367 211T310 236Q281 250 252 261T198 273H193Q168 273 143 261T95 211L76 229Q95 264 126 282T192 301H198Q228 299 257 288T316 264Q345 250 372 239T422 228Q451 228 470 248T504 290L523 271H523Z"  />
<glyph unicode="&#xA0;" horiz-adv-x="277" />
<glyph unicode="&#xA1;" horiz-adv-x="259" d="M115 450V531H145V450H115ZM115 -209V365H145V-209H115Z"  />
<glyph unicode="&#xA2;" horiz-adv-x="555" d="M488 265Q468 227 443 204T391 169T343 152T307 147V39H277V147Q223 150 184 172T119 226T81 296T68 369Q68 403 79 440T116 510T181 564T277 592V687H307V591Q328 588 352 583T401 564T447 528T487 469H454Q437 500 416 518T372 547T328 560T291 563Q246 563 210 548T150 506T112 445T98 372Q98 335 110 300T146 238T206 193T290 176Q326 176 353 185T401 208T435 237T454 265H488H488Z"  />
<glyph unicode="&#xA3;" horiz-adv-x="555" d="M545 200Q545 173 539 150T524 107T505 75T485 53Q467 37 451 27T415 10T369 2T306 0H36V27H184Q188 33 196 44T212 73T227 115T234 171Q234 232 204 277T118 366H6V393H92Q78 411 65 442T51 515Q51 565 68 608T117 683T193 733T289 752Q327 752 364 740T432 705T486 648T521 569H490Q480 603 461 631T416 681T359 713T291 725H289Q244 725 206 710T141 667T98 601T81 515V512Q81 487 91 456T131 393H404V366H160V364Q174 354 192 337T226 295T253 240T264 172Q264 165 264 152T259 119T245 77T219 27H311Q345 27 368 30T409 38T438 52T462 72Q493 104 504 137T515 199Q515 217 513 228T508 249H539Q541 238 543 229T545 200Z"  />
<glyph unicode="&#xA4;" horiz-adv-x="555" d="M416 181Q386 157 351 144T277 130Q238 130 203 144T138 181L61 105L41 126L118 203Q62 265 62 343Q62 383 76 418T116 481L39 558L60 579L137 502Q199 556 277 556Q316 556 352 543T417 503L493 579L515 558L439 481Q464 453 478 419T492 343Q492 303 478 268T436 203L513 126L492 105L416 181ZM92 342Q92 304 107 271T148 214T207 175T277 160Q314 160 347 174T406 213T447 271T462 343Q462 382 447 415T407 473T348 512T277 526Q241 526 208 512T149 474T108 416T92 343V342Z"  />
<glyph unicode="&#xA5;" horiz-adv-x="555" d="M320 409H509V383H304L291 357V275H509V249H291V0H261V249H47V275H261V357L247 383H47V409H232L32 740H64L276 390L492 740H524L320 409Z"  />
<glyph unicode="&#xA6;" horiz-adv-x="555" d="M263 404V740H293V404H263ZM263 -100V236H293V-100H263Z"  />
<glyph unicode="&#xA7;" horiz-adv-x="573" d="M513 235Q513 187 487 146T418 80Q441 64 454 47T475 14T485 -18T488 -47Q488 -85 474 -117T433 -172T370 -209T289 -223Q285 -223 268 -222T227 -216T177 -199T128 -166T92 -112T77 -31V1H105V-30Q105 -74 120 -105T162 -155T220 -184T288 -193Q326 -193 358 -183T412 -153T447 -106T460 -47Q460 -11 438 21T356 80L161 170Q152 174 135 183T102 210T73 255T60 324Q60 344 66 365T84 407T115 445T161 477Q147 490 131 515T115 584Q115 624 129 655T167 708T223 741T294 753Q375 753 425 710T476 586H448Q444 628 431 655T396 697T349 717T294 723Q260 723 232 713T184 685T154 642T143 587Q143 557 152 536T177 501T210 477T244 460L394 389Q404 384 423 374T463 345T498 299T513 235ZM485 233Q485 263 475 284T448 321T414 345T380 363L182 458Q141 438 115 404T88 321Q88 279 109 249T165 201L390 97Q404 103 420 115T451 145T475 185T485 233Z"  />
<glyph unicode="&#xA8;" horiz-adv-x="555" d="M323 618V734H352V618H323ZM203 618V734H232V618H203Z"  />
<glyph unicode="&#xA9;" horiz-adv-x="800" d="M781 370Q781 289 751 219T670 98T549 18T400 -11Q320 -11 250 17T129 97T48 218T18 370Q18 448 46 517T126 639T247 721T400 751Q482 751 551 721T672 640T752 519T781 370ZM753 370Q753 443 727 507T653 620T542 697T400 725Q323 725 258 697T146 620T73 507T46 370Q46 295 73 231T148 118T260 43T400 15Q474 15 538 42T650 117T725 230T753 370ZM609 328Q606 283 588 248T541 189T478 153T404 140Q365 140 327 153T259 195T209 266T190 369Q190 420 205 463T249 536T318 584T407 601Q444 601 477 590T537 559T579 512T600 451H572Q565 485 548 508T508 547T458 568T406 575Q367 575 333 561T273 521T233 457T218 370Q218 314 235 275T280 212T340 177T405 166Q417 166 443 170T498 190T551 239T581 328H609Z"  />
<glyph unicode="&#xAA;" horiz-adv-x="468" d="M370 412V495H368Q363 481 350 464T309 428Q281 411 256 408T217 404Q176 404 143 418T86 457T49 513T36 579Q36 615 50 646T88 702T146 739T217 753Q249 753 279 742T331 711Q342 700 352 687T368 660H370V745H398V412H370ZM370 578Q370 609 358 636T324 684T276 715T217 727Q188 727 161 717T112 688T77 640T64 575Q64 551 74 525T103 478T152 444T218 430Q252 430 280 442T328 474T359 522T370 578Z"  />
<glyph unicode="&#xAB;" horiz-adv-x="351" d="M272 84L160 276L272 469L291 443L195 276L291 110L272 84ZM160 84L49 276L160 469L180 443L84 276L180 110L160 84Z"  />
<glyph unicode="&#xAC;" horiz-adv-x="600" d="M522 139V333H50V361H550V139H522Z"  />
<glyph unicode="&#xAD;" horiz-adv-x="266" d="M0 262V291H266V262H0Z"  />
<glyph unicode="&#xAE;" horiz-adv-x="800" d="M781 370Q781 289 751 219T670 98T549 18T400 -11Q320 -11 250 17T129 97T48 218T18 370Q18 448 46 517T126 639T247 721T400 751Q482 751 551 721T672 640T752 519T781 370ZM753 370Q753 443 727 507T653 620T542 697T400 725Q323 725 258 697T146 620T73 507T46 370Q46 295 73 231T148 118T260 43T400 15Q474 15 538 42T650 117T725 230T753 370ZM550 146Q547 150 546 154T543 169T541 197T538 246Q536 269 533 288T516 320T477 340T405 347H263V146H235V589H420Q430 589 455 587T506 574T552 539T573 470Q573 425 548 399T487 362V360Q534 349 548 322T564 260Q566 227 567 207T570 176T574 158T579 146H550ZM545 470Q545 505 530 524T493 551T449 561T415 563H263V373H403Q415 374 438 376T486 387T527 415T545 470Z"  />
<glyph unicode="&#xAF;" horiz-adv-x="555" d="M99 660V690H455V660H99Z"  />
<glyph unicode="&#xB0;" horiz-adv-x="400" d="M343 566Q343 536 332 510T302 465T256 434T200 423Q170 423 144 434T99 464T68 510T57 566Q57 596 68 622T98 667T144 698T200 709Q230 709 256 698T301 668T332 622T343 566ZM315 566Q315 590 306 611T282 647T245 672T200 681Q176 681 155 672T119 648T94 611T85 566Q85 542 94 521T118 485T155 460T200 451Q224 451 245 460T281 484T306 521T315 566Z"  />
<glyph unicode="&#xB1;" horiz-adv-x="600" d="M314 281V84H286V281H48V309H286V506H314V309H552V281H314ZM48 0V28H552V0H48Z"  />
<glyph unicode="&#xB2;" horiz-adv-x="351" d="M36 424V447L221 640Q250 671 263 695T276 744Q276 763 271 782T254 816T223 841T174 851Q129 851 101 821T71 737V728H43V736Q44 774 56 800T88 844T130 868T176 876Q233 876 268 841T304 744Q304 711 287 682T240 622L75 449H307V424H36Z"  />
<glyph unicode="&#xB3;" horiz-adv-x="351" d="M311 555Q311 525 301 500T272 456T228 427T172 416Q147 416 122 425T78 451T46 495T33 558H61Q62 525 73 503T100 467T136 447T172 441Q225 441 254 473T283 553Q283 570 277 590T256 626T219 654T164 665H137V690H164Q196 690 214 700T241 724T252 751T255 770Q255 802 235 826T176 851Q140 851 119 828T95 770H67Q68 799 79 819T106 852T141 870T177 876Q197 876 216 869T250 847T274 814T283 771Q283 749 277 734T261 707T242 689T226 679Q263 664 287 631T311 555Z"  />
<glyph unicode="&#xB4;" horiz-adv-x="555" d="M173 605L160 628L397 766L411 743L173 605Z"  />
<glyph unicode="&#xB5;" horiz-adv-x="561" d="M456 0V119H454Q449 103 438 81T406 37T353 2T273 -13Q231 -13 202 -4T153 20T122 49T103 77H101V-181H73V530H101V230Q101 210 101 189T106 146T118 105T140 69Q156 50 173 39T209 22T243 15T273 13Q355 13 405 77T456 278V530H484V0H456Z"  />
<glyph unicode="&#xB6;" horiz-adv-x="561" d="M428 712V-126H398V710H269V-126H239V343H219Q169 343 131 359T66 402T26 465T12 540Q12 599 39 642T102 708Q120 719 156 729T246 740H492V712H428Z"  />
<glyph unicode="&#xB7;" horiz-adv-x="277" d="M124 215V296H154V215H124Z"  />
<glyph unicode="&#xB8;" horiz-adv-x="555" d="M351 -125Q351 -152 333 -176T278 -201Q273 -201 263 -200T240 -192T218 -174T204 -139H231Q234 -152 241 -159T255 -169T269 -173T278 -174Q295 -174 309 -162T324 -125Q324 -105 310 -93T278 -80Q252 -80 237 -105L215 -100L261 0H290L264 -56L266 -57Q268 -56 271 -55T279 -54Q314 -54 332 -76T351 -125Z"  />
<glyph unicode="&#xB9;" horiz-adv-x="247" d="M114 424V843H19V868H142V424H114Z"  />
<glyph unicode="&#xBA;" horiz-adv-x="423" d="M387 579Q387 539 372 507T332 452T275 417T210 404Q175 404 144 417T88 454T50 508T36 575Q36 613 49 645T86 702T141 739T210 753Q249 753 282 739T338 701T374 646T387 579ZM359 579Q359 609 348 636T318 683T271 715T212 727Q183 727 156 717T109 686T76 638T64 576Q64 547 75 521T106 474T153 442T210 430Q239 430 266 441T313 472T346 519T359 579Z"  />
<glyph unicode="&#xBB;" horiz-adv-x="351" d="M191 84L171 110L267 276L171 443L191 469L302 276L191 84ZM79 84L60 110L156 276L60 443L79 469L191 276L79 84Z"  />
<glyph unicode="&#xBC;" horiz-adv-x="700" d="M120 296V715H25V740H148V296H120ZM152 0H123L452 740H482L152 0ZM595 85V0H567V85H339V106L562 444H595V110H637V85H595ZM567 407H566L373 110H567V407Z"  />
<glyph unicode="&#xBD;" horiz-adv-x="730" d="M120 296V715H25V740H148V296H120ZM152 1H123L452 741H482L152 1ZM416 0V23L601 216Q630 247 643 271T656 320Q656 339 651 358T634 392T603 417T554 427Q509 427 481 397T451 313V304H423V312Q424 350 436 376T468 420T510 444T556 452Q613 452 648 417T684 320Q684 287 667 258T620 198L455 25H687V0H416Z"  />
<glyph unicode="&#xBE;" horiz-adv-x="807" d="M318 427Q318 397 308 372T279 328T235 299T179 288Q154 288 129 297T85 323T53 367T40 430H68Q69 397 80 375T107 339T143 319T179 313Q232 313 261 345T290 425Q290 442 284 462T263 498T226 526T171 537H144V562H171Q203 562 221 572T248 596T259 623T262 642Q262 674 242 698T183 723Q147 723 126 700T102 642H74Q75 671 86 691T113 724T148 742T184 748Q204 748 223 741T257 719T281 686T290 643Q290 621 284 606T268 579T249 561T233 551Q270 536 294 503T318 427ZM279 -1H250L579 739H609L279 -1ZM723 85V0H695V85H467V106L690 444H723V110H765V85H723ZM695 407H694L501 110H695V407Z"  />
<glyph unicode="&#xBF;" horiz-adv-x="536" d="M264 449V530H293V449H264ZM496 -13Q493 -73 470 -113T415 -177T347 -212T281 -222Q239 -222 201 -207T134 -164T87 -98T69 -12Q69 18 79 44T107 93T146 138T188 180Q216 207 231 232T253 280T261 322T263 359V364H293Q292 340 290 316T279 265T252 211T202 152Q182 132 164 114T131 77T108 36T99 -15Q99 -53 113 -85T151 -140T209 -177T280 -191Q309 -191 341 -182T400 -151T445 -96T466 -13H496Z"  />
<glyph unicode="&#xC0;" horiz-adv-x="687" d="M648 0L537 258H150L39 0H7L324 740H363L680 0H648ZM343 712L163 285H524L343 712ZM448 790L210 928L224 951L461 813L448 790Z"  />
<glyph unicode="&#xC1;" horiz-adv-x="687" d="M648 0L537 258H150L39 0H7L324 740H363L680 0H648ZM343 712L163 285H524L343 712ZM239 790L226 813L463 951L477 928L239 790Z"  />
<glyph unicode="&#xC2;" horiz-adv-x="687" d="M648 0L537 258H150L39 0H7L324 740H363L680 0H648ZM343 712L163 285H524L343 712ZM513 808L343 902L173 808L148 823L343 933L539 823L513 808Z"  />
<glyph unicode="&#xC3;" horiz-adv-x="687" d="M648 0L537 258H150L39 0H7L324 740H363L680 0H648ZM343 712L163 285H524L343 712ZM524 860Q506 848 483 838T435 828Q415 828 394 833T344 853Q327 862 316 867T295 876T278 880T260 881Q234 881 214 872T182 854L162 874Q179 888 202 898T260 909Q276 909 294 906T345 885Q359 878 370 873T391 865T411 860T434 858Q454 858 469 863T504 881L524 860H524Z"  />
<glyph unicode="&#xC4;" horiz-adv-x="687" d="M648 0L537 258H150L39 0H7L324 740H363L680 0H648ZM343 712L163 285H524L343 712ZM389 803V919H418V803H389ZM269 803V919H298V803H269Z"  />
<glyph unicode="&#xC5;" horiz-adv-x="687" d="M648 0L537 258H150L39 0H7L324 740H363L680 0H648ZM343 712L163 285H524L343 712ZM435 846Q435 827 428 811T409 782T379 762T343 755Q305 755 279 781T252 846Q252 865 259 881T279 910T308 930T343 937Q362 937 379 930T408 911T428 882T435 846ZM407 847Q407 873 389 892T343 911Q317 911 299 892T280 847Q280 821 298 803T343 784Q370 784 388 802T407 847Z"  />
<glyph unicode="&#xC6;" horiz-adv-x="944" d="M524 0V264H209L26 0H-8L504 740H870V713H554V386H870V359H554V27H870V0H524ZM524 722H522L231 291H524V722Z"  />
<glyph unicode="&#xC7;" horiz-adv-x="786" d="M502 -125Q502 -152 484 -176T429 -201Q424 -201 414 -200T391 -192T369 -174T355 -139H382Q385 -152 392 -159T406 -169T420 -173T429 -174Q446 -174 460 -162T475 -125Q475 -105 461 -93T429 -80Q403 -80 388 -105L366 -100L406 -12Q330 -9 264 21T148 101T70 220T41 370Q41 453 71 523T153 645T275 724T425 753Q484 753 534 737T626 696T698 638T749 575H714Q703 590 680 615T621 665T535 708T425 726Q351 726 287 700T174 626T99 513T71 370Q71 293 98 228T174 116T286 41T425 14Q490 14 540 33T626 76T684 125T714 161H748Q730 130 700 100T629 45T540 4T435 -13L415 -56L417 -57Q419 -56 422 -55T430 -54Q465 -54 483 -76T502 -125Z"  />
<glyph unicode="&#xC8;" horiz-adv-x="547" d="M77 0V740H483V713H107V386H483V359H107V27H483V0H77ZM379 790L141 928L155 951L392 813L379 790Z"  />
<glyph unicode="&#xC9;" horiz-adv-x="547" d="M77 0V740H483V713H107V386H483V359H107V27H483V0H77ZM170 790L157 813L394 951L408 928L170 790Z"  />
<glyph unicode="&#xCA;" horiz-adv-x="547" d="M77 0V740H483V713H107V386H483V359H107V27H483V0H77ZM444 808L274 902L104 808L79 823L274 933L470 823L444 808Z"  />
<glyph unicode="&#xCB;" horiz-adv-x="547" d="M77 0V740H483V713H107V386H483V359H107V27H483V0H77ZM320 803V919H349V803H320ZM200 803V919H229V803H200Z"  />
<glyph unicode="&#xCC;" horiz-adv-x="185" d="M77 0V740H107V0H77ZM178 790L-60 928L-46 951L191 813L178 790Z"  />
<glyph unicode="&#xCD;" horiz-adv-x="185" d="M77 0V740H107V0H77ZM9 790L-4 813L233 951L247 928L9 790Z"  />
<glyph unicode="&#xCE;" horiz-adv-x="185" d="M77 0V740H107V0H77ZM263 808L93 902L-77 808L-102 823L93 933L289 823L263 808Z"  />
<glyph unicode="&#xCF;" horiz-adv-x="185" d="M77 0V740H107V0H77ZM139 803V919H168V803H139ZM19 803V919H48V803H19Z"  />
<glyph unicode="&#xD0;" horiz-adv-x="711" d="M669 370Q669 283 644 214T570 98T453 25T296 0H87V359H10V386H87V740H296Q383 740 452 715T570 643T643 526T669 370ZM639 368Q639 449 616 513T549 621T441 689T296 713H117V386H368V359H117V27H296Q376 27 439 50T547 117T615 224T639 368Z"  />
<glyph unicode="&#xD1;" horiz-adv-x="738" d="M623 0L109 710H107V0H77V740H122L629 40H631V740H661V0H623ZM550 860Q532 848 509 838T461 828Q441 828 420 833T370 853Q353 862 342 867T321 876T304 880T286 881Q260 881 240 872T208 854L188 874Q205 888 228 898T286 909Q302 909 320 906T371 885Q385 878 396 873T417 865T437 860T460 858Q480 858 495 863T530 881L550 860H550Z"  />
<glyph unicode="&#xD2;" horiz-adv-x="851" d="M809 370Q809 287 779 217T697 95T574 16T425 -13Q345 -13 276 15T154 95T71 216T41 370Q41 453 71 523T153 645T275 724T425 753Q504 753 574 725T696 645T779 524T809 370ZM779 370Q779 447 751 512T675 624T563 699T425 726Q351 726 287 699T174 625T99 512T71 370Q71 293 98 228T174 116T286 41T425 14Q498 14 562 41T675 115T751 228T779 370ZM530 790L292 928L306 951L543 813L530 790Z"  />
<glyph unicode="&#xD3;" horiz-adv-x="851" d="M809 370Q809 287 779 217T697 95T574 16T425 -13Q345 -13 276 15T154 95T71 216T41 370Q41 453 71 523T153 645T275 724T425 753Q504 753 574 725T696 645T779 524T809 370ZM779 370Q779 447 751 512T675 624T563 699T425 726Q351 726 287 699T174 625T99 512T71 370Q71 293 98 228T174 116T286 41T425 14Q498 14 562 41T675 115T751 228T779 370ZM321 790L308 813L545 951L559 928L321 790Z"  />
<glyph unicode="&#xD4;" horiz-adv-x="851" d="M809 370Q809 287 779 217T697 95T574 16T425 -13Q345 -13 276 15T154 95T71 216T41 370Q41 453 71 523T153 645T275 724T425 753Q504 753 574 725T696 645T779 524T809 370ZM779 370Q779 447 751 512T675 624T563 699T425 726Q351 726 287 699T174 625T99 512T71 370Q71 293 98 228T174 116T286 41T425 14Q498 14 562 41T675 115T751 228T779 370ZM595 808L425 902L255 808L230 823L425 933L621 823L595 808Z"  />
<glyph unicode="&#xD5;" horiz-adv-x="851" d="M809 370Q809 287 779 217T697 95T574 16T425 -13Q345 -13 276 15T154 95T71 216T41 370Q41 453 71 523T153 645T275 724T425 753Q504 753 574 725T696 645T779 524T809 370ZM779 370Q779 447 751 512T675 624T563 699T425 726Q351 726 287 699T174 625T99 512T71 370Q71 293 98 228T174 116T286 41T425 14Q498 14 562 41T675 115T751 228T779 370ZM606 860Q588 848 565 838T517 828Q497 828 476 833T426 853Q409 862 398 867T377 876T360 880T342 881Q316 881 296 872T264 854L244 874Q261 888 284 898T342 909Q358 909 376 906T427 885Q441 878 452 873T473 865T493 860T516 858Q536 858 551 863T586 881L606 860H606Z"  />
<glyph unicode="&#xD6;" horiz-adv-x="851" d="M809 370Q809 287 779 217T697 95T574 16T425 -13Q345 -13 276 15T154 95T71 216T41 370Q41 453 71 523T153 645T275 724T425 753Q504 753 574 725T696 645T779 524T809 370ZM779 370Q779 447 751 512T675 624T563 699T425 726Q351 726 287 699T174 625T99 512T71 370Q71 293 98 228T174 116T286 41T425 14Q498 14 562 41T675 115T751 228T779 370ZM471 803V919H500V803H471ZM351 803V919H380V803H351Z"  />
<glyph unicode="&#xD7;" horiz-adv-x="600" d="M530 2L300 231L70 2L50 23L279 251L50 477L70 499L300 271L530 499L550 477L321 251L550 23L530 2Z"  />
<glyph unicode="&#xD8;" horiz-adv-x="851" d="M809 370Q809 287 779 217T697 95T574 16T425 -13Q366 -13 313 3T215 48L117 -86L94 -68L190 64Q122 115 82 194T41 370Q41 453 71 523T153 645T275 724T425 753Q487 753 542 736T644 688L732 809L756 791L668 670Q734 617 771 541T809 370ZM779 370Q779 457 745 528T651 647L232 71Q318 14 425 14Q498 14 562 41T675 115T751 228T779 370ZM627 665Q583 694 533 710T425 726Q351 726 287 699T174 625T99 512T71 370Q71 280 107 208T207 87L627 665Z"  />
<glyph unicode="&#xD9;" horiz-adv-x="605" d="M529 260Q529 235 528 205T518 144T491 84T440 32Q411 12 376 0T302 -13Q264 -13 229 -1T165 32Q132 55 114 84T88 144T78 205T76 260V740H106V260Q106 233 106 210T111 166T125 125T152 82Q176 50 217 32T304 14Q346 14 387 32T453 82Q470 104 479 124T493 166T498 210T499 260V740H529V260H529ZM407 790L169 928L183 951L420 813L407 790Z"  />
<glyph unicode="&#xDA;" horiz-adv-x="605" d="M529 260Q529 235 528 205T518 144T491 84T440 32Q411 12 376 0T302 -13Q264 -13 229 -1T165 32Q132 55 114 84T88 144T78 205T76 260V740H106V260Q106 233 106 210T111 166T125 125T152 82Q176 50 217 32T304 14Q346 14 387 32T453 82Q470 104 479 124T493 166T498 210T499 260V740H529V260H529ZM198 790L185 813L422 951L436 928L198 790Z"  />
<glyph unicode="&#xDB;" horiz-adv-x="605" d="M529 260Q529 235 528 205T518 144T491 84T440 32Q411 12 376 0T302 -13Q264 -13 229 -1T165 32Q132 55 114 84T88 144T78 205T76 260V740H106V260Q106 233 106 210T111 166T125 125T152 82Q176 50 217 32T304 14Q346 14 387 32T453 82Q470 104 479 124T493 166T498 210T499 260V740H529V260H529ZM472 808L302 902L132 808L107 823L302 933L498 823L472 808Z"  />
<glyph unicode="&#xDC;" horiz-adv-x="605" d="M529 260Q529 235 528 205T518 144T491 84T440 32Q411 12 376 0T302 -13Q264 -13 229 -1T165 32Q132 55 114 84T88 144T78 205T76 260V740H106V260Q106 233 106 210T111 166T125 125T152 82Q176 50 217 32T304 14Q346 14 387 32T453 82Q470 104 479 124T493 166T498 210T499 260V740H529V260H529ZM348 803V919H377V803H348ZM228 803V919H257V803H228Z"  />
<glyph unicode="&#xDD;" horiz-adv-x="554" d="M292 255V0H262V255L15 740H48L277 289L505 740H539L292 255ZM173 790L160 813L397 951L411 928L173 790Z"  />
<glyph unicode="&#xDE;" horiz-adv-x="511" d="M499 374Q499 323 478 278T424 208Q406 194 388 186T349 173T302 166T239 164H97V0H67V740H97V584H239Q275 584 301 582T349 576T388 562T424 540Q457 516 478 471T499 374ZM469 373Q469 416 452 456T408 516Q392 528 376 535T341 548T297 555T240 557H97V191H240Q273 191 297 193T340 200T376 212T408 232Q421 242 432 257T451 291T464 331T469 373Z"  />
<glyph unicode="&#xDF;" horiz-adv-x="559" d="M517 185Q517 140 501 104T457 41T395 1T321 -13Q288 -13 254 -3T192 30T144 93T122 191H150Q152 137 170 103T215 48T270 21T324 13Q356 13 386 25T439 59T475 112T489 180Q489 190 488 206T480 241T461 280T426 318Q415 327 403 334T373 346T333 354T275 357H247V383H274Q305 383 334 396T385 431T421 485T435 555Q435 638 389 682T268 726Q230 726 195 709T141 663Q128 644 121 625T110 584T105 535T104 472V0H76V472Q76 515 78 545T84 599T96 640T115 673Q141 711 182 731T267 752Q313 752 349 738T410 697T449 635T463 555Q463 539 459 515T444 466T410 417T352 378V376Q394 370 425 352T477 307T507 248T517 185Z"  />
<glyph unicode="&#xE0;" horiz-adv-x="674" d="M568 0V132H566Q531 64 468 26T320 -13Q255 -13 203 10T115 72T60 161T41 265Q41 320 60 370T116 458T204 520T320 543Q368 543 409 530T481 495T534 448T566 395H568V530H596V0H568ZM571 265Q571 319 552 365T499 445T419 498T320 517Q268 517 223 499T143 447T89 368T69 265Q69 220 84 175T131 94T211 36T323 13Q378 13 423 33T502 87T553 168T571 265ZM422 605L184 743L198 766L435 628L422 605Z"  />
<glyph unicode="&#xE1;" horiz-adv-x="674" d="M568 0V132H566Q531 64 468 26T320 -13Q255 -13 203 10T115 72T60 161T41 265Q41 320 60 370T116 458T204 520T320 543Q368 543 409 530T481 495T534 448T566 395H568V530H596V0H568ZM571 265Q571 319 552 365T499 445T419 498T320 517Q268 517 223 499T143 447T89 368T69 265Q69 220 84 175T131 94T211 36T323 13Q378 13 423 33T502 87T553 168T571 265ZM228 605L215 628L452 766L466 743L228 605Z"  />
<glyph unicode="&#xE2;" horiz-adv-x="674" d="M568 0V132H566Q531 64 468 26T320 -13Q255 -13 203 10T115 72T60 161T41 265Q41 320 60 370T116 458T204 520T320 543Q368 543 409 530T481 495T534 448T566 395H568V530H596V0H568ZM571 265Q571 319 552 365T499 445T419 498T320 517Q268 517 223 499T143 447T89 368T69 265Q69 220 84 175T131 94T211 36T323 13Q378 13 423 33T502 87T553 168T571 265ZM507 623L337 717L167 623L142 638L337 748L533 638L507 623Z"  />
<glyph unicode="&#xE3;" horiz-adv-x="674" d="M568 0V132H566Q531 64 468 26T320 -13Q255 -13 203 10T115 72T60 161T41 265Q41 320 60 370T116 458T204 520T320 543Q368 543 409 530T481 495T534 448T566 395H568V530H596V0H568ZM571 265Q571 319 552 365T499 445T419 498T320 517Q268 517 223 499T143 447T89 368T69 265Q69 220 84 175T131 94T211 36T323 13Q378 13 423 33T502 87T553 168T571 265ZM518 665Q500 653 477 643T429 633Q409 633 388 638T338 658Q321 667 310 672T289 681T272 685T254 686Q228 686 208 677T176 659L156 679Q173 693 196 703T254 714Q270 714 288 711T339 690Q353 683 364 678T385 670T405 665T428 663Q448 663 463 668T498 686L518 665H518Z"  />
<glyph unicode="&#xE4;" horiz-adv-x="674" d="M568 0V132H566Q531 64 468 26T320 -13Q255 -13 203 10T115 72T60 161T41 265Q41 320 60 370T116 458T204 520T320 543Q368 543 409 530T481 495T534 448T566 395H568V530H596V0H568ZM571 265Q571 319 552 365T499 445T419 498T320 517Q268 517 223 499T143 447T89 368T69 265Q69 220 84 175T131 94T211 36T323 13Q378 13 423 33T502 87T553 168T571 265ZM383 618V734H412V618H383ZM263 618V734H292V618H263Z"  />
<glyph unicode="&#xE5;" horiz-adv-x="674" d="M568 0V132H566Q531 64 468 26T320 -13Q255 -13 203 10T115 72T60 161T41 265Q41 320 60 370T116 458T204 520T320 543Q368 543 409 530T481 495T534 448T566 395H568V530H596V0H568ZM571 265Q571 319 552 365T499 445T419 498T320 517Q268 517 223 499T143 447T89 368T69 265Q69 220 84 175T131 94T211 36T323 13Q378 13 423 33T502 87T553 168T571 265ZM429 685Q429 666 422 650T403 621T373 601T337 594Q299 594 273 620T246 685Q246 704 253 720T273 749T302 769T337 776Q356 776 373 769T402 750T422 721T429 685ZM401 686Q401 712 383 731T337 750Q311 750 293 731T274 686Q274 660 292 642T337 623Q364 623 382 641T401 686Z"  />
<glyph unicode="&#xE6;" horiz-adv-x="1154" d="M595 262Q602 185 631 137T698 61T775 23T843 13Q884 13 918 25T980 58T1029 103T1064 153H1097Q1084 124 1061 95T1006 42T934 3T846 -13Q777 -13 719 16T623 102Q614 116 608 130T597 162H595V0H567V162H565Q560 143 554 129T539 101Q514 65 484 43T422 9T364 -8T320 -13Q260 -13 209 8T121 66T62 154T41 264Q41 324 62 375T120 463T208 522T318 543Q385 543 445 514T545 421Q553 409 556 398T565 375H567V530H595V376H597Q603 390 606 400T617 422Q642 462 670 485T728 522T784 539T835 543Q900 543 951 520T1038 457T1093 368T1113 262H595ZM1082 288Q1073 345 1051 387T997 459T925 502T837 517Q795 517 749 501T659 435Q624 395 613 359T596 288H1082ZM568 265Q568 315 549 360T496 441T417 496T321 517Q267 517 221 498T141 445T88 365T69 265Q69 211 88 165T141 85T221 32T321 13Q371 13 416 33T494 87T548 168T568 265Z"  />
<glyph unicode="&#xE7;" horiz-adv-x="619" d="M553 358Q539 396 516 425T463 475T396 506T321 517Q265 517 224 500T142 446Q110 417 90 368T69 265Q69 209 89 163T143 83T223 32T320 13Q365 13 403 26T471 60T521 109T552 167H583Q569 126 544 93T485 37T409 0T320 -13H318L298 -56L300 -57Q302 -56 305 -55T313 -54Q348 -54 366 -76T385 -125Q385 -152 367 -176T312 -201Q307 -201 297 -200T274 -192T252 -174T238 -139H265Q268 -152 275 -159T289 -169T303 -173T312 -174Q329 -174 343 -162T358 -125Q358 -105 344 -93T312 -80Q286 -80 271 -105L249 -100L290 -10Q237 -6 192 16T113 74T60 158T41 265Q41 324 62 374T120 462T209 521T320 543Q360 543 400 532T476 497T540 440T584 358H553Z"  />
<glyph unicode="&#xE8;" horiz-adv-x="619" d="M588 262H60Q61 197 85 150T147 73T228 28T311 13Q385 13 445 49T537 153H568Q550 111 522 80T461 28T389 -3T310 -13Q249 -13 198 8T110 67T52 154T31 264Q31 324 52 375T111 463T200 522T311 543Q364 543 413 525T500 472T562 388T589 277L588 262ZM560 288Q558 336 537 377T482 450T405 499T315 517Q264 517 219 500T140 452T85 379T61 288H560ZM414 605L176 743L190 766L427 628L414 605Z"  />
<glyph unicode="&#xE9;" horiz-adv-x="619" d="M588 262H60Q61 197 85 150T147 73T228 28T311 13Q385 13 445 49T537 153H568Q550 111 522 80T461 28T389 -3T310 -13Q249 -13 198 8T110 67T52 154T31 264Q31 324 52 375T111 463T200 522T311 543Q364 543 413 525T500 472T562 388T589 277L588 262ZM560 288Q558 336 537 377T482 450T405 499T315 517Q264 517 219 500T140 452T85 379T61 288H560ZM200 605L187 628L424 766L438 743L200 605Z"  />
<glyph unicode="&#xEA;" horiz-adv-x="619" d="M588 262H60Q61 197 85 150T147 73T228 28T311 13Q385 13 445 49T537 153H568Q550 111 522 80T461 28T389 -3T310 -13Q249 -13 198 8T110 67T52 154T31 264Q31 324 52 375T111 463T200 522T311 543Q364 543 413 525T500 472T562 388T589 277L588 262ZM560 288Q558 336 537 377T482 450T405 499T315 517Q264 517 219 500T140 452T85 379T61 288H560ZM479 623L309 717L139 623L114 638L309 748L505 638L479 623Z"  />
<glyph unicode="&#xEB;" horiz-adv-x="619" d="M588 262H60Q61 197 85 150T147 73T228 28T311 13Q385 13 445 49T537 153H568Q550 111 522 80T461 28T389 -3T310 -13Q249 -13 198 8T110 67T52 154T31 264Q31 324 52 375T111 463T200 522T311 543Q364 543 413 525T500 472T562 388T589 277L588 262ZM560 288Q558 336 537 377T482 450T405 499T315 517Q264 517 219 500T140 452T85 379T61 288H560ZM350 618V734H379V618H350ZM230 618V734H259V618H230Z"  />
<glyph unicode="&#xEC;" horiz-adv-x="184" d="M78 0V530H106V0H78ZM178 605L-60 743L-46 766L191 628L178 605Z"  />
<glyph unicode="&#xED;" horiz-adv-x="184" d="M78 0V530H106V0H78ZM9 605L-4 628L233 766L247 743L9 605Z"  />
<glyph unicode="&#xEE;" horiz-adv-x="184" d="M78 0V530H106V0H78ZM263 623L93 717L-77 623L-102 638L93 748L289 638L263 623Z"  />
<glyph unicode="&#xEF;" horiz-adv-x="184" d="M78 0V530H106V0H78ZM139 618V734H168V618H139ZM19 618V734H48V618H19Z"  />
<glyph unicode="&#xF0;" horiz-adv-x="641" d="M600 266Q600 198 576 146T511 59T420 6T317 -13Q264 -13 215 5T127 58T65 144T41 264Q41 326 62 377T121 465T211 522T324 543Q380 543 432 519T520 453L522 455Q483 515 429 560T308 641L117 564L97 584L277 657Q240 675 201 691T111 725L145 740Q194 723 235 706T311 670L486 740L505 719L342 654Q416 610 465 565T545 471T587 371T600 266ZM572 266Q572 318 552 364T497 444T417 497T322 517Q267 517 221 498T141 444T88 365T69 265Q69 211 88 165T140 85T220 32T320 13Q375 13 421 32T500 86T553 166T572 266Z"  />
<glyph unicode="&#xF1;" horiz-adv-x="641" d="M536 0V280Q536 349 519 394T471 467Q451 485 416 501T321 517Q221 517 164 461T106 305V0H78V530H106V428H108Q120 456 142 478T193 514T254 535T318 543Q332 543 351 542T393 535T440 519T487 490Q564 425 564 280V0H536ZM501 665Q483 653 460 643T412 633Q392 633 371 638T321 658Q304 667 293 672T272 681T255 685T237 686Q211 686 191 677T159 659L139 679Q156 693 179 703T237 714Q253 714 271 711T322 690Q336 683 347 678T368 670T388 665T411 663Q431 663 446 668T481 686L501 665H501Z"  />
<glyph unicode="&#xF2;" horiz-adv-x="641" d="M599 265Q599 205 578 155T520 67T431 8T320 -13Q260 -13 209 8T121 66T62 154T41 265Q41 324 62 375T120 463T209 522T320 543Q380 543 431 522T519 464T578 375T599 265ZM571 265Q571 319 552 365T499 445T420 498T320 517Q266 517 221 498T141 445T88 365T69 265Q69 211 88 165T141 85T220 32T320 13Q374 13 419 32T499 85T552 165T571 265ZM425 605L187 743L201 766L438 628L425 605Z"  />
<glyph unicode="&#xF3;" horiz-adv-x="641" d="M599 265Q599 205 578 155T520 67T431 8T320 -13Q260 -13 209 8T121 66T62 154T41 265Q41 324 62 375T120 463T209 522T320 543Q380 543 431 522T519 464T578 375T599 265ZM571 265Q571 319 552 365T499 445T420 498T320 517Q266 517 221 498T141 445T88 365T69 265Q69 211 88 165T141 85T220 32T320 13Q374 13 419 32T499 85T552 165T571 265ZM211 605L198 628L435 766L449 743L211 605Z"  />
<glyph unicode="&#xF4;" horiz-adv-x="641" d="M599 265Q599 205 578 155T520 67T431 8T320 -13Q260 -13 209 8T121 66T62 154T41 265Q41 324 62 375T120 463T209 522T320 543Q380 543 431 522T519 464T578 375T599 265ZM571 265Q571 319 552 365T499 445T420 498T320 517Q266 517 221 498T141 445T88 365T69 265Q69 211 88 165T141 85T220 32T320 13Q374 13 419 32T499 85T552 165T571 265ZM490 623L320 717L150 623L125 638L320 748L516 638L490 623Z"  />
<glyph unicode="&#xF5;" horiz-adv-x="641" d="M599 265Q599 205 578 155T520 67T431 8T320 -13Q260 -13 209 8T121 66T62 154T41 265Q41 324 62 375T120 463T209 522T320 543Q380 543 431 522T519 464T578 375T599 265ZM571 265Q571 319 552 365T499 445T420 498T320 517Q266 517 221 498T141 445T88 365T69 265Q69 211 88 165T141 85T220 32T320 13Q374 13 419 32T499 85T552 165T571 265ZM501 665Q483 653 460 643T412 633Q392 633 371 638T321 658Q304 667 293 672T272 681T255 685T237 686Q211 686 191 677T159 659L139 679Q156 693 179 703T237 714Q253 714 271 711T322 690Q336 683 347 678T368 670T388 665T411 663Q431 663 446 668T481 686L501 665H501Z"  />
<glyph unicode="&#xF6;" horiz-adv-x="641" d="M599 265Q599 205 578 155T520 67T431 8T320 -13Q260 -13 209 8T121 66T62 154T41 265Q41 324 62 375T120 463T209 522T320 543Q380 543 431 522T519 464T578 375T599 265ZM571 265Q571 319 552 365T499 445T420 498T320 517Q266 517 221 498T141 445T88 365T69 265Q69 211 88 165T141 85T220 32T320 13Q374 13 419 32T499 85T552 165T571 265ZM366 618V734H395V618H366ZM246 618V734H275V618H246Z"  />
<glyph unicode="&#xF7;" horiz-adv-x="600" d="M285 419V500H315V419H285ZM50 236V264H550V236H50ZM285 0V81H315V0H285Z"  />
<glyph unicode="&#xF8;" horiz-adv-x="641" d="M599 265Q599 205 578 155T520 67T431 8T320 -13Q276 -13 238 -2T167 31L107 -52L85 -35L145 47Q97 84 69 140T41 265Q41 324 62 375T120 463T209 522T320 543Q364 543 402 532T473 499L535 585L556 568L496 484Q544 445 571 389T599 265ZM571 265Q571 326 547 376T480 462L182 52Q244 13 320 13Q374 13 419 32T499 85T552 165T571 265ZM457 477Q397 517 320 517Q266 517 221 498T141 445T88 365T69 265Q69 204 93 153T160 68L457 477Z"  />
<glyph unicode="&#xF9;" horiz-adv-x="641" d="M536 0V107H534Q522 77 500 55T450 17T390 -5T325 -13Q320 -13 303 -13T261 -8T209 8T155 40Q78 105 78 250V530H106V250Q106 181 123 136T171 63Q202 35 240 24T319 13Q422 13 479 69T536 229V530H564V0H536ZM425 605L187 743L201 766L438 628L425 605Z"  />
<glyph unicode="&#xFA;" horiz-adv-x="641" d="M536 0V107H534Q522 77 500 55T450 17T390 -5T325 -13Q320 -13 303 -13T261 -8T209 8T155 40Q78 105 78 250V530H106V250Q106 181 123 136T171 63Q202 35 240 24T319 13Q422 13 479 69T536 229V530H564V0H536ZM216 605L203 628L440 766L454 743L216 605Z"  />
<glyph unicode="&#xFB;" horiz-adv-x="641" d="M536 0V107H534Q522 77 500 55T450 17T390 -5T325 -13Q320 -13 303 -13T261 -8T209 8T155 40Q78 105 78 250V530H106V250Q106 181 123 136T171 63Q202 35 240 24T319 13Q422 13 479 69T536 229V530H564V0H536ZM490 623L320 717L150 623L125 638L320 748L516 638L490 623Z"  />
<glyph unicode="&#xFC;" horiz-adv-x="641" d="M536 0V107H534Q522 77 500 55T450 17T390 -5T325 -13Q320 -13 303 -13T261 -8T209 8T155 40Q78 105 78 250V530H106V250Q106 181 123 136T171 63Q202 35 240 24T319 13Q422 13 479 69T536 229V530H564V0H536ZM366 618V734H395V618H366ZM246 618V734H275V618H246Z"  />
<glyph unicode="&#xFD;" horiz-adv-x="481" d="M159 -213H127L221 1L11 530H42L238 39L447 530H480L159 -213ZM137 605L124 628L361 766L375 743L137 605Z"  />
<glyph unicode="&#xFE;" horiz-adv-x="681" d="M639 265Q639 205 618 155T559 67T470 8T359 -13Q316 -13 278 -2T207 30T149 79T108 140H106V-213H78V740H106V387H108Q131 437 165 467T235 515T304 537T359 543Q419 543 470 522T558 464T617 375T639 265ZM611 265Q611 319 592 365T540 445T460 498T360 517Q311 517 265 499T184 448T128 367T106 262Q106 215 125 171T178 91T258 35T360 13Q414 13 460 32T539 85T592 165T611 265Z"  />
<glyph unicode="&#xFF;" horiz-adv-x="481" d="M159 -213H127L221 1L11 530H42L238 39L447 530H480L159 -213ZM287 618V734H316V618H287ZM167 618V734H196V618H167Z"  />
<glyph unicode="&#x131;" horiz-adv-x="184" d="M78 0V530H106V0H78Z"  />
<glyph unicode="&#x152;" horiz-adv-x="1178" d="M772 0V229H770Q755 176 722 132T643 55T541 5T422 -13Q342 -13 273 15T152 93T71 214T41 370Q41 455 70 525T151 646T271 725T418 753Q481 753 538 735T641 685T721 609T770 511H772V740H1117V713H802V386H1117V359H802V27H1117V0H772ZM772 382Q772 440 749 501T682 612T572 694T420 726Q347 726 284 700T173 627T98 514T71 370Q71 292 98 227T172 114T283 40T420 14Q504 14 569 45T680 125T748 236T772 360V382Z"  />
<glyph unicode="&#x153;" horiz-adv-x="1156" d="M598 263Q601 200 623 153T681 75T758 29T845 13Q878 13 912 21T975 48T1028 92T1064 155H1095Q1089 142 1082 126T1064 94T1037 61T996 29Q958 5 921 -4T845 -13Q813 -13 774 -3T698 29T631 88T585 178H583Q561 123 530 87T464 28T392 -3T320 -13Q260 -13 209 8T121 66T62 154T41 264Q41 324 62 375T120 463T209 522T320 543Q383 543 438 517T531 444Q554 416 564 393T581 349L583 353Q602 410 634 446T703 503T775 531T841 539Q901 539 951 517T1038 456T1095 368T1116 263H598ZM1083 289Q1081 320 1066 358T1021 431T946 489T840 513Q793 513 752 497T678 450T626 379T599 289H1083ZM568 263Q568 308 551 353T501 435T423 494T320 517Q266 517 221 498T141 445T88 365T69 265Q69 211 88 165T141 85T220 32T320 13Q374 13 419 34T498 91T549 171T568 263Z"  />
<glyph unicode="&#x160;" horiz-adv-x="518" d="M474 194Q474 148 456 110T408 45T339 2T259 -13Q226 -13 190 -2T123 34T71 96T45 187H75Q82 134 103 100T152 47T208 21T258 14Q293 14 326 26T386 62T428 117T444 190Q444 241 425 273T376 326T315 356T255 373Q231 379 198 389T134 420T83 473T61 559V562Q61 607 77 642T121 702T185 739T262 752Q295 752 326 742T384 711T428 658T453 580H423Q419 602 410 627T382 674T335 710T260 725Q225 725 194 714T140 681T104 630T91 564Q91 520 107 492T152 444T216 414T290 392Q299 390 316 386T353 373T395 350T434 315T463 264T474 194ZM261 808L65 918L91 933L261 839L431 933L456 919L261 808Z"  />
<glyph unicode="&#x161;" horiz-adv-x="426" d="M366 137Q366 106 354 79T322 31T273 -1T211 -13Q179 -13 150 -3T98 27T62 75T48 137V147H76Q76 83 114 48T211 13Q240 13 263 23T303 50T329 90T338 138V142Q336 197 305 224T210 269Q180 276 154 286T108 311T78 349T67 406Q67 434 76 459T104 503T149 532T211 543Q240 543 265 534T310 508T340 465T351 405H323Q323 435 314 456T289 490T253 510T211 517Q152 517 124 485T95 406Q97 358 126 336T211 297Q237 290 264 282T312 257T349 215T366 146V137H366ZM215 623L19 733L45 748L215 654L385 748L410 734L215 623Z"  />
<glyph unicode="&#x178;" horiz-adv-x="554" d="M292 255V0H262V255L15 740H48L277 289L505 740H539L292 255ZM323 803V919H352V803H323ZM203 803V919H232V803H203Z"  />
<glyph unicode="&#x17D;" horiz-adv-x="499" d="M20 0L423 713H6V740H472L69 27H493V0H20ZM246 808L50 918L76 933L246 839L416 933L441 919L246 808Z"  />
<glyph unicode="&#x17E;" horiz-adv-x="407" d="M12 0V24L341 504H30V530H377V503L48 26H394V0H12ZM205 623L9 733L35 748L205 654L375 748L400 734L205 623Z"  />
<glyph unicode="&#x192;" horiz-adv-x="555" d="M536 784Q531 785 528 785T517 786H512Q455 783 422 750Q407 735 397 718T381 682T372 645T365 613L356 562H497L490 535H352L258 37Q252 7 244 -26T216 -88T164 -134T75 -152Q60 -152 45 -151T15 -144L21 -116Q33 -119 45 -122T75 -125Q121 -125 148 -110T191 -72T214 -22T226 31L321 535H177L183 562H325L335 613Q341 643 347 667T361 710T379 744T405 773Q428 793 457 803T515 813Q525 813 530 813T542 810L536 784Z"  />
<glyph unicode="&#x2C6;" horiz-adv-x="555" d="M447 623L277 717L107 623L82 638L277 748L473 638L447 623Z"  />
<glyph unicode="&#x2DC;" horiz-adv-x="555" d="M458 665Q440 653 417 643T369 633Q349 633 328 638T278 658Q261 667 250 672T229 681T212 685T194 686Q168 686 148 677T116 659L96 679Q113 693 136 703T194 714Q210 714 228 711T279 690Q293 683 304 678T325 670T345 665T368 663Q388 663 403 668T438 686L458 665H458Z"  />
<glyph unicode="&#x2013;" horiz-adv-x="500" d="M35 262V291H465V262H35Z"  />
<glyph unicode="&#x2014;" horiz-adv-x="1000" d="M35 262V291H965V262H35Z"  />
<glyph unicode="&#x2018;" horiz-adv-x="277" d="M154 586L90 740H123L187 586H154Z"  />
<glyph unicode="&#x2019;" horiz-adv-x="277" d="M123 586H90L154 740H187L123 586Z"  />
<glyph unicode="&#x201A;" horiz-adv-x="277" d="M123 -72H90L154 82H187L123 -72Z"  />
<glyph unicode="&#x201C;" horiz-adv-x="370" d="M245 586L181 740H214L278 586H245ZM156 586L92 740H125L189 586H156Z"  />
<glyph unicode="&#x201D;" horiz-adv-x="370" d="M214 586H181L245 740H278L214 586ZM125 586H92L156 740H189L125 586Z"  />
<glyph unicode="&#x201E;" horiz-adv-x="370" d="M214 -72H181L245 82H278L214 -72ZM125 -72H92L156 82H189L125 -72Z"  />
<glyph unicode="&#x2020;" horiz-adv-x="573" d="M301 496V-100H271V496H83V526H271V740H301V526H491V496H301Z"  />
<glyph unicode="&#x2021;" horiz-adv-x="573" d="M303 85V-100H273V85H83V115H273V525H83V555H273V740H303V555H491V525H303V115H491V85H303Z"  />
<glyph unicode="&#x2022;" horiz-adv-x="375" d="M340 377Q340 345 328 317T295 267T247 234T188 222Q156 222 128 234T80 268T47 317T35 377Q35 408 46 436T78 485T127 519T189 532Q220 532 247 520T295 486T328 437T340 377Z"  />
<glyph unicode="&#x2026;" horiz-adv-x="1000" d="M818 0V82H848V0H818ZM485 0V82H515V0H485ZM152 0V82H182V0H152Z"  />
<glyph unicode="&#x2030;" horiz-adv-x="1089" d="M1070 150Q1070 115 1058 85T1024 33T972 -1T907 -13Q872 -13 842 -1T790 33T756 85T744 150Q744 185 756 215T790 266T842 300T907 313Q942 313 972 301T1023 267T1057 215T1070 150ZM346 590Q346 555 334 525T300 473T248 439T183 427Q148 427 118 439T66 473T32 525T20 590Q20 625 32 655T66 706T118 740T183 753Q218 753 248 741T299 707T333 655T346 590ZM144 0H112L569 740H601L144 0ZM695 150Q695 115 683 85T649 33T597 -1T532 -13Q497 -13 467 -1T415 33T381 85T369 150Q369 185 381 215T415 266T467 300T532 313Q567 313 597 301T648 267T682 215T695 150ZM1042 150Q1042 180 1032 205T1005 249T962 277T907 288Q877 288 852 278T810 249T782 206T772 150Q772 120 782 95T809 51T852 23T907 12Q937 12 962 22T1004 51T1032 94T1042 150ZM318 590Q318 620 308 645T281 689T238 717T183 728Q153 728 128 718T86 689T58 646T48 590Q48 560 58 535T85 491T128 463T183 452Q213 452 238 462T280 491T308 534T318 590ZM667 150Q667 180 657 205T630 249T587 277T532 288Q502 288 477 278T435 249T407 206T397 150Q397 120 407 95T434 51T477 23T532 12Q562 12 587 22T629 51T657 94T667 150Z"  />
<glyph unicode="&#x2039;" horiz-adv-x="248" d="M164 84L53 275L164 469L184 443L88 275L184 110L164 84Z"  />
<glyph unicode="&#x203A;" horiz-adv-x="248" d="M84 84L64 110L160 275L64 443L84 469L195 275L84 84Z"  />
<glyph unicode="&#x20AC;" horiz-adv-x="555" d="M536 152Q530 116 516 86T481 36Q456 12 421 0T336 -13Q278 -13 239 6T174 58Q156 80 145 109T126 169T114 234T109 297H27L32 323H108V361Q108 378 108 395T109 431H27L32 457H110Q113 514 125 568T166 667Q195 712 236 732T337 753Q388 753 422 739T480 701Q503 677 515 647T530 585H501Q497 614 487 639T456 684Q436 704 406 715T336 726Q282 726 247 705T190 650Q164 609 154 559T140 457H444L439 431H139Q138 415 138 400T138 371Q138 360 138 348T139 323H419L414 297H140Q141 267 144 236T155 176T172 120T199 74Q221 45 255 30T337 14Q379 14 410 25T463 58Q481 76 491 100T506 152H536H536Z"  />
<glyph unicode="&#x2122;" horiz-adv-x="908" d="M811 296V701H809L601 296H585L377 700H375V296H348V740H385L593 338L802 740H838V296H811ZM160 716V296H133V716H9L10 740H285V716H160Z"  />

</font>
</defs>
</svg>
