<?xml  version="1.0" encoding="UTF-8"?>
<!DOCTYPE svg PUBLIC "-//W3C//DTD SVG 1.0//EN" "http://www.w3.org/TR/2001/REC-SVG-20010904/DTD/svg10.dtd" >
<svg xmlns="http://www.w3.org/2000/svg" >
<metadata>
<version>1.0</version>
<id><![CDATA[Avant Garde Gothic ITCW01Md]]></id>
<vendor>Monotype Imaging Inc.</vendor>
<credits>
<name>Fonts.com WebFonts</name>
<URL>http://webfonts.fonts.com</URL>
<role>Home of the Web fonts</role>
</credits>
<license>
<URL>http://webfonts.fonts.com/Legal</URL>
</license>
<copyright><![CDATA[Font software Copyright 1993, 1994, 2001 Adobe Systems Incorporated. Typeface designs Copyright 2005 International Typeface Corporation. All rights reserved.]]></copyright>
<trademark><![CDATA[ITC and Avant Garde are trademarks of International Typeface Corporation Registered in U.S. Patent and Trademark Office and may be registered in certain other jurisdictions.]]></trademark>
<licensee>
<name></name>
</licensee>
</metadata>
<defs >
<font horiz-adv-x="568" id="e3929a31-b148-4180-91be-4b490bdac87d">
<font-face font-family="" panose-1="2 0 6 7 3 0 0 2 0 4" ascent="982" descent="-257" units-per-em="1000" alphabetic="0">
</font-face>
<missing-glyph horiz-adv-x="0" />

<glyph unicode="&#xA;" />
<glyph unicode="&#xD;" horiz-adv-x="0" />
<glyph unicode=" " horiz-adv-x="295" />
<glyph unicode="!" horiz-adv-x="277" d="M87 182V740H191V182H87ZM87 0V122H191V0H87Z"  />
<glyph unicode="&quot;" horiz-adv-x="325" d="M286 444H215L196 740H306L286 444ZM110 444H39L20 740H130L110 444Z"  />
<glyph unicode="#" horiz-adv-x="555" d="M522 412H430L413 288H494L492 204H401L372 0H284L312 204H210L181 0H93L121 204H30L32 288H133L150 412H60L62 496H162L190 700H279L251 496H353L381 700H470L442 496H524L522 412ZM239 412L222 288H324L341 412H239Z"  />
<glyph unicode="$" horiz-adv-x="555" d="M487 232Q487 194 477 160T448 99T398 54T329 29V-82H234V29Q157 49 115 99T68 230H172Q177 181 204 150T283 118Q333 118 358 151T383 231Q383 260 372 279T343 312T302 333T255 347Q219 357 190 371T140 406T108 457T97 528Q97 594 133 644T234 711V823H329V711Q364 707 391 692T437 655T466 602T477 538H373Q370 578 348 600T285 622Q245 622 223 594T201 528Q201 501 211 485T239 458T277 442T320 430Q397 410 442 364T487 232Z"  />
<glyph unicode="%" horiz-adv-x="837" d="M414 572Q414 535 400 503T361 446T303 407T233 393Q196 393 163 407T106 445T67 502T52 572Q52 609 66 641T105 698T163 737T233 751Q270 751 303 737T360 699T399 642T414 572ZM236 0H169L593 740H660L236 0ZM784 166Q784 129 770 97T731 40T673 1T603 -13Q566 -13 533 1T476 39T437 96T422 166Q422 203 436 235T475 292T533 331T603 345Q640 345 673 331T730 293T769 236T784 166ZM324 572Q324 591 317 608T298 637T269 657T233 665Q214 665 198 658T169 638T149 608T142 572Q142 553 149 536T168 507T197 487T233 479Q252 479 268 486T297 506T317 536T324 572ZM694 166Q694 185 687 202T668 231T639 251T603 259Q584 259 568 252T539 232T519 202T512 166Q512 147 519 130T538 101T567 81T603 73Q622 73 638 80T667 100T687 130T694 166Z"  />
<glyph unicode="&amp;" horiz-adv-x="684" d="M604 -14L475 116Q437 58 385 22T260 -14Q213 -14 172 3T100 49T52 119T34 207Q34 279 72 334T176 418Q144 451 125 484T105 565Q105 605 119 639T158 699T217 739T292 754Q331 754 365 739T423 699T462 639T476 566Q476 502 442 459T352 388L450 292L531 455H648L527 211L676 59L604 -14ZM368 569Q368 603 347 629T291 655Q272 655 258 648T233 628T218 599T213 565Q213 532 233 507T276 460Q294 469 310 479T339 501T360 530T368 569ZM247 345Q199 328 171 294T142 207Q142 155 174 120T260 85Q286 85 307 93T346 116T378 150T403 191L247 345Z"  />
<glyph unicode="&apos;" horiz-adv-x="218" d="M144 444H74L54 740H164L144 444Z"  />
<glyph unicode="(" horiz-adv-x="407" d="M357 -257Q326 -241 298 -221T244 -177Q153 -92 104 18T55 253Q55 328 76 403T136 544T229 665T351 755V626Q306 587 271 547T212 463T176 368T163 254Q163 191 175 138T212 39T273 -48T357 -127V-257H357Z"  />
<glyph unicode=")" horiz-adv-x="407" d="M352 245Q352 170 331 95T271 -46T178 -167T56 -257V-128Q101 -88 136 -49T195 35T231 130T244 244Q244 307 232 360T195 459T134 546T50 625V755Q119 719 175 664T270 542T331 398T352 245Z"  />
<glyph unicode="*" horiz-adv-x="573" d="M340 533L427 418L370 377L287 495L204 377L147 418L234 533L96 576L118 642L254 596L253 740H323L320 596L456 642L478 576L340 533Z"  />
<glyph unicode="+" horiz-adv-x="600" d="M352 201V0H248V201H48V305H248V506H352V305H552V201H352Z"  />
<glyph unicode="&#x2c;" horiz-adv-x="277" d="M191 11Q191 -44 168 -80T87 -127V-65Q112 -56 118 -41T124 0H87V122H191V11H191Z"  />
<glyph unicode="-" horiz-adv-x="280" d="M0 237V341H280V237H0Z"  />
<glyph unicode="." horiz-adv-x="277" d="M87 0V122H191V0H87Z"  />
<glyph unicode="/" horiz-adv-x="499" d="M155 -100H41L329 740H443L155 -100Z"  />
<glyph unicode="0" horiz-adv-x="555" d="M517 238Q517 213 515 191T507 149T491 110T463 71Q428 29 379 8T276 -14Q222 -14 173 9T89 76Q57 116 48 156T38 246V504Q38 583 74 644T185 736Q232 755 280 755Q331 755 374 736T449 684T499 607T517 511V238ZM413 511Q413 542 405 569T379 617T337 648T279 660Q246 660 221 649T178 617T151 570T142 511V238Q142 205 150 177T176 127T219 93T280 81Q309 81 335 93T380 128Q403 154 408 178T413 236V511Z"  />
<glyph unicode="1" horiz-adv-x="555" d="M257 0V645H148V740H361V0H257Z"  />
<glyph unicode="2" horiz-adv-x="555" d="M41 0V87L332 383Q361 412 380 444T399 518Q399 545 390 570T365 615T325 647T273 659Q240 659 216 646T175 612T150 563T141 505V486H37V490Q36 572 70 638T184 737Q226 754 269 754Q319 754 362 735T436 684T485 608T503 515Q503 481 496 453T474 400T441 352T400 306L194 95H504V0H41Z"  />
<glyph unicode="3" horiz-adv-x="555" d="M501 221Q501 168 483 125T433 51T357 3T261 -14Q212 -14 169 4T94 53T42 126T22 218H126Q129 157 166 119T264 81Q292 81 316 92T358 121T386 165T397 217Q397 246 386 270T357 312T313 340T259 350H221V454H257Q305 454 335 481T365 557Q365 578 358 596T337 629T306 651T266 659Q219 659 196 629T167 555H63Q67 621 99 669T194 740Q212 746 231 750T269 754Q313 754 350 739T413 696T454 631T469 549Q469 524 465 505T453 469T432 437T401 405Q449 374 475 326T501 221Z"  />
<glyph unicode="4" horiz-adv-x="555" d="M454 116V0H350V116H12V217L350 740H454V211H532V116H454ZM350 567H348L132 211H350V567Z"  />
<glyph unicode="5" horiz-adv-x="555" d="M530 251Q530 197 512 149T459 65T379 7T277 -14Q224 -14 180 4T104 53T51 129T25 224H129Q135 195 147 169T177 124T221 93T278 81Q310 81 337 95T384 131T415 183T426 243Q426 274 417 305T389 361T344 401T282 416Q237 416 205 397T149 339L59 360L121 740H459V645H207L179 481Q202 498 227 504T282 511Q337 511 383 491T461 436T512 353T530 251Z"  />
<glyph unicode="6" horiz-adv-x="555" d="M537 252Q537 198 518 150T465 65T384 7T282 -14Q204 -14 143 25T50 135Q39 159 32 185T25 238Q25 287 40 330T81 415L289 740H412L255 497Q266 499 277 500T299 502Q351 502 395 482T470 428T519 349T537 252ZM433 241Q433 273 423 303T393 356T346 393T284 407Q251 407 223 394T174 360T141 309T129 248Q129 215 140 185T171 132T219 95T282 81Q314 81 341 94T389 129T421 180T433 241Z"  />
<glyph unicode="7" horiz-adv-x="555" d="M229 0H113L392 645H71V740H500V645L229 0Z"  />
<glyph unicode="8" horiz-adv-x="555" d="M511 221Q511 173 493 130T443 55T368 5T277 -14Q229 -14 186 4T112 53T62 127T43 218Q43 280 67 326T140 408Q108 440 93 471T77 550Q77 592 93 629T136 694T200 738T279 754Q321 754 357 738T420 694T462 629T478 551Q478 503 463 471T412 408Q460 376 485 328T511 221ZM374 561Q374 581 367 598T346 629T316 651T278 659Q257 659 239 651T209 628T189 596T181 557Q181 516 208 486T277 456Q323 456 348 486T374 561ZM407 212Q407 239 397 264T370 308T329 338T277 350Q249 350 226 339T185 309T157 265T147 213Q147 186 157 162T184 120T225 92T276 81Q303 81 326 91T368 120T396 161T407 212Z"  />
<glyph unicode="9" horiz-adv-x="555" d="M529 503Q529 455 514 410T472 325L266 0H143L300 243Q289 241 279 240T257 239Q205 239 161 259T86 313T36 392T18 489Q18 543 37 591T90 675T170 732T272 754Q351 754 411 715T505 604Q516 581 522 555T529 503ZM425 492Q425 525 414 555T384 608T336 645T273 659Q240 659 213 646T165 611T134 559T122 499Q122 467 133 438T164 385T211 348T272 334Q304 334 332 347T380 382T413 432T425 492Z"  />
<glyph unicode=":" horiz-adv-x="277" d="M87 433V555H191V433H87ZM87 0V122H191V0H87Z"  />
<glyph unicode=";" horiz-adv-x="277" d="M87 433V555H191V433H87ZM191 11Q191 -44 168 -80T87 -127V-65Q112 -56 118 -41T124 0H87V122H191V11Z"  />
<glyph unicode="&lt;" horiz-adv-x="600" d="M46 210V296L554 514V412L181 253L554 94V-8L46 210Z"  />
<glyph unicode="=" horiz-adv-x="600" d="M48 310V414H552V310H48ZM48 92V196H552V92H48Z"  />
<glyph unicode="&gt;" horiz-adv-x="600" d="M46 -8V94L419 253L46 412V514L554 296V210L46 -8Z"  />
<glyph unicode="?" horiz-adv-x="518" d="M478 530Q478 498 472 475T455 431T428 393T389 355Q367 335 353 318T328 281T313 241T303 190H199Q201 261 228 312T303 412Q315 425 328 437T351 462T367 491T374 526Q374 551 365 573T341 612T303 639T256 649Q226 649 200 635T157 595Q146 578 142 564T136 529H32Q35 601 70 656T173 738Q216 754 257 754Q303 754 343 736T413 688T460 616T478 530ZM199 0V122H303V0H199Z"  />
<glyph unicode="@" horiz-adv-x="760" d="M749 424Q749 383 738 336T703 249T643 183T558 156Q529 156 504 171T473 216H471Q447 183 412 170T338 156Q300 156 271 171T222 211T192 268T182 336Q182 378 195 418T234 491T296 542T377 562Q420 562 450 547T501 493H503L513 548H587L545 317Q543 303 540 288T537 258Q537 247 544 240T562 232Q596 232 617 253T649 306T665 371T669 430Q669 490 648 536T590 613T504 661T398 677Q331 677 275 654T178 590T114 493T91 369Q91 296 113 239T178 143T278 84T409 63Q437 63 469 66T532 76T594 94T647 123L686 62Q619 25 553 6T409 -13Q349 -13 294 -1T192 38T106 104T43 202Q26 240 19 280T11 362Q11 448 40 520T122 643T247 724T406 753Q480 753 543 730T651 664T723 561T749 424ZM481 394Q481 442 455 464T382 486Q353 486 331 473T293 438T270 391T262 338Q262 318 267 299T283 265T310 241T349 232Q383 232 408 246T449 282T473 334T481 394Z"  />
<glyph unicode="A" horiz-adv-x="684" d="M557 0L475 218H209L127 0H13L294 740H391L672 0H557ZM344 600H342L247 317H438L344 600Z"  />
<glyph unicode="B" horiz-adv-x="580" d="M542 215Q542 168 524 126Q509 91 485 67T431 28T367 7T296 0H75V740H267Q302 740 335 734T396 713T447 674T483 616Q498 577 498 535Q498 489 482 457T432 395Q485 365 513 322T542 215ZM390 536Q390 566 380 586T353 618T314 635T265 641H183V432H271Q324 432 357 456T390 536ZM434 215Q434 235 427 254T408 288Q385 319 354 326T287 333H183V99H300Q326 99 350 106T393 128T423 164T434 215Z"  />
<glyph unicode="C" horiz-adv-x="782" d="M629 551Q587 599 537 627T421 655Q362 655 312 633T225 572T167 482T146 372Q146 316 167 264T224 172T311 109T419 85Q478 85 530 111T621 183H754Q701 90 613 38T418 -14Q339 -14 270 17T149 101T68 224T38 373Q38 452 68 521T149 643T270 724T419 754Q479 754 538 736T645 682Q684 654 710 624T759 551H629Z"  />
<glyph unicode="D" horiz-adv-x="732" d="M683 368Q683 336 677 300T660 229T631 162T590 107Q529 47 457 24T301 0H65V740H305Q395 740 474 710T607 604Q643 553 663 492T683 368ZM575 368Q575 397 570 425T553 481Q520 562 455 601T304 641H173V99H302Q365 99 415 117T501 169T556 254T575 368Z"  />
<glyph unicode="E" horiz-adv-x="520" d="M65 0V740H464V641H173V423H464V324H173V99H464V0H65Z"  />
<glyph unicode="F" horiz-adv-x="482" d="M173 320V0H65V740H439V641H173V419H439V320H173Z"  />
<glyph unicode="G" horiz-adv-x="831" d="M799 368Q798 311 783 259T740 162T671 82T578 22Q540 5 500 -4T417 -14Q337 -14 268 16T148 98T68 219T38 368Q38 447 67 517T147 640T267 723T416 754Q468 754 517 740T609 700T687 637T748 554H622Q580 601 532 628T420 655Q361 655 311 632T225 569T167 477T146 368Q146 312 167 261T226 170T313 108T421 85Q465 85 504 98T577 136T635 194T676 269H331V368H799H799Z"  />
<glyph unicode="H" horiz-adv-x="670" d="M488 0V322H183V0H75V740H183V421H488V740H596V0H488Z"  />
<glyph unicode="I" horiz-adv-x="257" d="M75 0V740H183V0H75Z"  />
<glyph unicode="J" horiz-adv-x="487" d="M408 209Q408 183 404 156T390 104Q366 46 316 16T204 -14Q168 -14 134 -3T73 30T26 81T0 148H111Q124 114 147 100T205 85Q231 85 249 94T278 120T295 158T300 203V740H408V209H408Z"  />
<glyph unicode="K" horiz-adv-x="618" d="M198 0H90V740H198V0ZM481 740H614L325 373L614 0H481L200 373L481 740Z"  />
<glyph unicode="L" horiz-adv-x="444" d="M79 0V740H187V99H444V0H79Z"  />
<glyph unicode="M" horiz-adv-x="934" d="M752 0V625H749L500 0H435L185 625H183V0H75V740H245L467 173L690 740H860V0H752Z"  />
<glyph unicode="N" horiz-adv-x="738" d="M551 0L185 572H183V0H75V740H193L553 177H555V740H663V0H551Z"  />
<glyph unicode="O" horiz-adv-x="846" d="M808 368Q808 289 778 220T695 98T572 16T423 -14Q343 -14 273 16T151 98T69 220T38 370Q38 450 68 520T150 642T273 724T423 754Q504 754 574 724T696 642T778 519T808 368ZM700 367Q700 426 680 478T622 570T534 632T423 655Q336 655 271 611T172 488Q160 460 153 431T146 370Q146 339 153 309T172 250Q207 172 272 129T423 85Q515 85 582 134T681 268Q700 317 700 367Z"  />
<glyph unicode="P" horiz-adv-x="559" d="M540 516Q540 457 520 415T464 345T382 305T279 292H173V0H65V740H279Q334 740 381 727T464 687T519 618T540 516ZM432 516Q432 550 420 574T386 613T338 634T279 641H173V391H279Q310 391 337 397T386 419T419 458T432 516Z"  />
<glyph unicode="Q" horiz-adv-x="837" d="M816 -14Q760 -13 718 0T630 43Q581 16 528 1T418 -14Q338 -14 269 16T148 99T68 222T38 372Q38 452 67 522T148 643T268 724T419 754Q499 754 568 724T689 642T770 519T800 370Q800 295 777 234T709 112Q736 96 760 91T816 86V-14ZM692 370Q692 426 672 477T615 568T529 631T421 655Q361 655 311 632T224 568T167 476T146 365Q146 346 148 329T156 293Q190 307 225 311T297 316Q343 316 386 305T470 275T548 231T621 177Q656 221 674 266T692 370ZM534 118Q506 139 478 157T419 188T356 209T287 217Q262 217 243 214T201 200Q239 146 297 116T422 85Q454 85 481 92T534 118Z"  />
<glyph unicode="R" horiz-adv-x="594" d="M559 503Q559 428 525 372T419 290Q402 284 384 280T347 276L554 0H419L175 343H173V0H65V740H294Q347 740 399 728T491 678Q526 644 542 598T559 503ZM451 503Q451 538 438 564T402 607T349 632T287 641H173V358H247Q283 358 319 364T385 386T432 430T451 503Z"  />
<glyph unicode="S" horiz-adv-x="499" d="M473 210Q473 160 456 119T409 49T337 3T246 -14Q195 -14 153 3T81 52T35 126T18 219H126Q126 192 134 168T157 125T194 96T246 85Q302 85 333 120T365 210Q365 240 355 259T329 291T291 313T246 331Q203 347 165 363T99 404T55 463T39 553Q39 596 55 633T100 697T166 739T246 754Q292 754 331 740T398 698T442 633T458 548H350Q350 596 322 625T246 655Q226 655 208 647T177 625T155 593T147 554Q147 515 171 494T231 458T310 429T388 389T449 322T473 210Z"  />
<glyph unicode="T" horiz-adv-x="407" d="M257 641V0H149V641H7V740H399V641H257Z"  />
<glyph unicode="U" horiz-adv-x="643" d="M569 239Q569 185 553 136T494 49Q459 17 414 2T321 -14Q273 -14 228 1T148 49Q106 86 90 135T73 239V740H181V242Q181 209 190 181T216 131T260 97T321 85Q355 85 381 97T425 130T452 180T461 242V740H569V239H569Z"  />
<glyph unicode="V" horiz-adv-x="684" d="M375 0H310L12 740H128L343 185L558 740H672L375 0Z"  />
<glyph unicode="W" horiz-adv-x="906" d="M683 0H588L454 517H452L318 0H223L16 740H128L269 183H271L414 740H493L634 187H636L780 740H890L683 0Z"  />
<glyph unicode="X" horiz-adv-x="648" d="M389 371L634 0H507L323 282L137 0H11L256 371L11 740H140L323 460L508 740H636L389 371Z"  />
<glyph unicode="Y" horiz-adv-x="593" d="M351 267V0H243V267L13 740H134L297 393L459 740H579L351 267Z"  />
<glyph unicode="Z" horiz-adv-x="462" d="M4 0V99L325 641H21V740H446V641L127 99H459V0H4Z"  />
<glyph unicode="[" horiz-adv-x="407" d="M329 -257Q288 -241 251 -214T186 -152T142 -74T125 14V467Q125 570 180 644T329 755V634Q276 601 254 559T232 456V51Q232 -12 252 -56T329 -134V-257H329Z"  />
<glyph unicode="\" horiz-adv-x="499" d="M344 -100L56 740H170L458 -100H344Z"  />
<glyph unicode="]" horiz-adv-x="407" d="M282 14Q282 -32 266 -74T221 -151T156 -214T78 -257V-134Q135 -100 155 -56T175 51V456Q175 517 153 559T78 634V755Q172 719 227 645T282 467V14H282Z"  />
<glyph unicode="^" horiz-adv-x="600" d="M430 355L300 635L170 355H66L253 740H347L534 355H430Z"  />
<glyph unicode="_" horiz-adv-x="500" d="M0 -125V-75H500V-125H0Z"  />
<glyph unicode="`" horiz-adv-x="555" d="M176 801L399 673L357 598L132 721L176 801Z"  />
<glyph unicode="a" horiz-adv-x="693" d="M522 0V86H520Q491 35 440 11T332 -14Q270 -14 216 7T123 67T61 159T38 275Q38 338 60 392T122 485T215 546T332 569Q388 569 438 547T520 476H522V554H626V0H522ZM524 276Q524 318 510 354T471 416T410 458T332 474Q291 474 256 458T196 415T156 352T142 276Q142 237 156 202T196 140T256 97T331 81Q371 81 406 96T468 138T509 200T524 276Z"  />
<glyph unicode="b" horiz-adv-x="688" d="M650 277Q650 217 628 164T568 72T478 9T365 -14Q308 -14 257 10T172 80H170V0H67V740H171V477H173Q207 524 256 546T363 569Q423 569 475 546T566 482T627 389T650 277ZM546 277Q546 316 532 352T492 415T432 458T357 474Q317 474 283 459T223 416T183 354T168 279Q168 238 182 202T221 139T281 97T357 81Q397 81 431 97T491 140T531 202T546 277Z"  />
<glyph unicode="c" horiz-adv-x="627" d="M595 183Q580 138 553 102T491 40T413 0T322 -14Q260 -14 208 9T118 71T59 164T38 278Q38 339 59 392T119 484T209 546T323 569Q368 569 411 555T492 514T556 452T595 370H480Q457 419 419 446T324 474Q281 474 248 459T191 417T155 355T142 278Q142 239 154 203T190 140T247 97T322 81Q376 81 416 108T479 183H595H595Z"  />
<glyph unicode="d" horiz-adv-x="687" d="M524 0V79H522Q487 31 436 9T326 -14Q264 -14 211 8T120 68T60 160T38 275Q38 337 59 391T119 484T210 546T326 569Q379 569 430 549T514 486H516V740H620V0H524ZM524 276Q524 318 510 354T471 416T410 458T332 474Q291 474 256 458T196 415T156 352T142 276Q142 237 156 202T196 140T256 97T331 81Q371 81 406 96T468 138T509 200T524 276Z"  />
<glyph unicode="e" horiz-adv-x="642" d="M605 284Q605 257 602 232H143Q151 200 167 172T207 124T261 93T325 81Q374 81 417 105T483 174H587Q571 132 545 97T484 38T408 0T321 -14Q262 -14 211 10T121 74T61 167T39 278Q39 338 60 391T120 483T210 546T323 569Q382 569 433 547T523 485T583 394T605 284ZM501 312Q499 346 484 375T443 427T387 461T322 474Q288 474 257 462T201 427T161 376T143 312H501Z"  />
<glyph unicode="f" horiz-adv-x="277" d="M174 459V0H70V459H21V554H70V581Q70 623 85 655T136 710Q154 721 169 727T201 736T234 739T271 740V645Q255 645 238 643T207 633T183 614T174 581V554H271V459H174Z"  />
<glyph unicode="g" horiz-adv-x="697" d="M631 75Q631 5 610 -49T550 -141T456 -198T331 -218Q240 -218 168 -173T58 -43H174Q230 -123 332 -123Q427 -123 477 -73T527 73H525Q492 27 441 7T334 -14Q274 -14 221 9T127 72T62 165T38 279Q38 311 46 342T68 403Q106 483 176 526T336 569Q387 569 439 549T527 490V554H631V75ZM527 276Q527 340 497 388T407 459Q390 466 372 470T334 474Q293 474 258 459T198 416T157 353T142 277Q142 238 157 203T198 140T258 97T333 81Q394 81 439 112T509 199Q517 217 522 236T527 276Z"  />
<glyph unicode="h" horiz-adv-x="622" d="M454 0V301Q454 336 448 367T427 422T384 460T316 474Q278 474 251 460T205 423T179 368T170 302V0H66V740H170V495H172Q199 536 239 552T327 569Q387 569 439 545T523 470Q543 438 550 402T558 328V0H454Z"  />
<glyph unicode="i" horiz-adv-x="238" d="M67 618V740H171V618H67ZM67 0V554H171V0H67Z"  />
<glyph unicode="j" horiz-adv-x="249" d="M80 618V740H184V618H80ZM184 3Q184 -24 183 -47T177 -92T159 -132T125 -170Q102 -190 72 -204T11 -218V-109Q39 -107 53 -96T73 -66T79 -27T80 16V554H184V3Z"  />
<glyph unicode="k" horiz-adv-x="546" d="M380 554H503L302 293L535 0H405L183 287L380 554ZM181 0H77V740H181V0Z"  />
<glyph unicode="l" horiz-adv-x="238" d="M67 0V740H171V0H67Z"  />
<glyph unicode="m" horiz-adv-x="971" d="M801 0V308Q801 341 795 371T774 424T734 460T670 474Q629 474 604 461T564 426T544 373T538 309V0H434V308Q434 340 431 367T411 422Q393 450 367 462T308 474Q268 474 242 462T200 427T178 374T171 309V0H67V554H163V494H165Q182 514 199 528T234 552T275 565T324 569Q348 569 374 563T423 546T466 517T496 476Q528 527 573 548T679 569Q734 569 776 553T847 505T890 431T905 334V0H801Z"  />
<glyph unicode="n" horiz-adv-x="624" d="M454 0V301Q454 336 448 367T427 422T384 460T316 474Q278 474 251 460T205 423T179 368T170 302V0H66V554H163V495H165Q195 535 237 552T327 569Q387 569 439 545T523 470Q543 438 550 402T558 328V0H454Z"  />
<glyph unicode="o" horiz-adv-x="675" d="M636 279Q636 220 613 167T550 73T455 10T337 -14Q276 -14 222 9T127 72T62 165T38 281Q38 342 62 394T127 486T223 547T337 569Q398 569 452 547T547 485T612 393T636 279ZM532 279Q532 319 517 355T475 417T413 458T337 474Q296 474 261 459T199 417T158 354T142 278Q142 237 157 202T199 139T260 97T337 81Q378 81 413 96T475 139T517 202T532 279Z"  />
<glyph unicode="p" horiz-adv-x="686" d="M648 270Q648 211 627 160T568 70T479 9T368 -14Q340 -14 312 -9T258 8T210 37T173 80H171V-185H67V554H162V469H164Q199 519 250 544T361 569Q425 569 478 546T568 483T627 388T648 270ZM544 276Q544 315 530 351T490 414T429 458T354 474Q314 474 280 458T222 415T183 353T169 278Q169 238 183 202T222 139T281 97T357 81Q398 81 432 96T491 138T530 200T544 276Z"  />
<glyph unicode="q" horiz-adv-x="687" d="M516 -185V77H514Q483 32 433 9T329 -14Q267 -14 214 8T122 70T61 163T39 278Q39 339 61 392T121 484T212 546T326 569Q374 569 419 553T501 504Q506 499 512 493T522 480H524V554H620V-185H516ZM525 275Q525 316 511 352T471 416T410 458T333 474Q291 474 257 459T197 417T157 355T143 278Q143 237 157 201T197 139T258 97T335 81Q375 81 410 96T470 138T510 200T525 275Z"  />
<glyph unicode="r" horiz-adv-x="320" d="M307 462Q290 462 269 456T232 442Q214 433 202 417T183 382T174 343T171 303V0H67V554H164V504H166Q192 540 228 553T307 569V462H307Z"  />
<glyph unicode="s" horiz-adv-x="424" d="M402 163Q402 122 388 90T349 34T290 -1T216 -14Q182 -14 145 -1Q83 21 52 68T20 182H124Q127 139 149 110T218 81Q253 81 275 101T298 157Q298 186 280 202T233 230T172 253T111 282T64 330T45 409Q45 445 59 474T98 525T153 557T219 569Q255 569 285 557T339 524T375 473T389 407H285Q281 437 264 455T214 474Q188 474 169 459T149 415Q149 397 157 385T177 365T205 352T235 343Q269 332 299 318T352 283T388 233T402 163Z"  />
<glyph unicode="t" horiz-adv-x="277" d="M183 459V0H79V459H4V554H79V740H183V554H274V459H183Z"  />
<glyph unicode="u" horiz-adv-x="624" d="M462 0V60H460Q448 40 430 26T389 3T343 -10T297 -14Q253 -14 213 -1T139 41Q116 61 102 86T80 139T69 196T66 254V554H170V254Q170 217 176 186T198 131T240 94T308 81Q348 81 375 95T420 133T445 189T453 257V554H557V0H462Z"  />
<glyph unicode="v" horiz-adv-x="537" d="M306 0H233L13 554H124L269 158H271L413 554H524L306 0Z"  />
<glyph unicode="w" horiz-adv-x="795" d="M577 0H519L399 373H397L277 0H220L13 554H124L247 194H249L364 554H432L547 194H549L671 554H782L577 0Z"  />
<glyph unicode="x" horiz-adv-x="518" d="M394 0L257 197L123 0H2L194 284L9 554H135L257 372L378 554H504L323 284L516 0H394Z"  />
<glyph unicode="y" horiz-adv-x="574" d="M258 -185H150L231 11L10 554H122L285 124L452 554H564L258 -185Z"  />
<glyph unicode="z" horiz-adv-x="407" d="M3 0V81L269 459H29V554H383V453L132 95H404V0H3Z"  />
<glyph unicode="{" horiz-adv-x="333" d="M243 -198Q214 -198 189 -188T146 -160T117 -118T106 -63V141Q106 179 79 205T14 231V317Q32 317 48 323T77 340T98 366T106 400V605Q106 635 116 659T145 702T189 730T243 740H308V661H264Q247 661 237 655T220 639T212 616T210 588V386Q210 341 183 311T111 276V273Q161 266 185 236T210 155V-46Q210 -60 212 -73T220 -96T236 -113T264 -119H308V-198H243Z"  />
<glyph unicode="|" horiz-adv-x="555" d="M221 -100V740H334V-100H221Z"  />
<glyph unicode="}" horiz-adv-x="333" d="M319 225Q301 225 285 219T256 202T235 176T227 142V-63Q227 -93 217 -117T188 -160T144 -188T90 -198H25V-119H69Q86 -119 96 -113T113 -97T121 -74T123 -46V156Q123 201 150 231T222 266V269Q172 276 148 306T123 387V588Q123 602 121 615T113 638T97 655T69 661H25V740H90Q119 740 144 730T187 702T216 660T227 605V401Q227 363 254 337T319 311V225H319Z"  />
<glyph unicode="~" horiz-adv-x="650" d="M587 303Q556 259 521 235T432 211Q405 211 376 218T317 243Q295 256 272 265T222 275Q206 275 193 269T168 252T148 230T133 208L64 287Q78 306 93 323T127 352T168 372T218 379Q250 379 278 371T332 348Q358 333 381 324T429 315Q444 315 457 321T481 337T501 358T518 382L587 303H587Z"  />
<glyph unicode="&#xA0;" horiz-adv-x="295" />
<glyph unicode="&#xA1;" horiz-adv-x="277" d="M86 433V555H190V433H86ZM86 -185V370H190V-185H86Z"  />
<glyph unicode="&#xA2;" horiz-adv-x="555" d="M398 485Q383 517 351 530T286 544Q256 544 230 534T184 504T153 460T142 403Q142 373 153 348T184 304T230 275T286 264Q321 264 349 277T397 319H514Q492 257 444 219T332 167V69H237V167Q192 177 156 198T93 251T52 321T38 408Q38 454 52 493T93 563T155 615T237 644V740H332V644Q401 633 447 592T517 485H398Z"  />
<glyph unicode="&#xA3;" horiz-adv-x="555" d="M546 217Q546 166 530 126T483 57T412 15T319 0H42V95H174Q186 118 190 138T195 184Q195 229 177 265T121 327H9V422H49Q35 445 31 465T26 512Q26 566 44 610T94 687T172 736T271 754Q316 754 356 740T429 699T483 635T514 554H401Q386 603 354 631T268 659Q236 659 211 648T167 616T140 569T130 512Q130 483 138 463T167 422H386V327H246Q277 300 288 261T299 182Q299 159 296 138T286 95H319Q376 95 409 127T442 216Q442 233 439 245T428 272H540Q546 245 546 217Z"  />
<glyph unicode="&#xA4;" horiz-adv-x="590" d="M517 68L438 148Q406 125 370 113T295 101Q257 101 221 113T152 148L72 69L18 122L100 204Q77 234 65 268T53 341Q53 420 101 482L17 564L72 619L155 536Q218 582 295 582Q332 582 367 571T433 537L516 618L570 564L489 483Q512 451 524 416T536 341Q536 303 524 269T490 204L571 123L517 68ZM437 342Q437 371 426 397T396 442T351 473T295 485Q265 485 239 474T194 443T163 397T152 341Q152 312 163 287T194 242T240 211T295 199Q324 199 350 210T395 241T426 287T437 342Z"  />
<glyph unicode="&#xA5;" horiz-adv-x="555" d="M411 486H535V400H368L329 329V286H535V200H329V0H225V200H20V286H225V329L186 400H20V486H143L0 740H113L277 442L442 740H555L411 486Z"  />
<glyph unicode="&#xA6;" horiz-adv-x="555" d="M221 404V740H334V404H221ZM221 -100V236H334V-100H221Z"  />
<glyph unicode="&#xA7;" horiz-adv-x="573" d="M534 263Q534 210 510 174T444 109Q503 58 503 -20Q503 -66 486 -103T440 -167T371 -207T287 -222Q239 -222 200 -206T132 -162T86 -93T67 -6H171Q175 -60 205 -91T290 -123Q336 -123 367 -97T399 -23Q399 -3 391 12T370 40T341 61T309 79L156 158Q130 171 109 186T72 220T49 263T41 320Q41 371 65 410T134 475Q116 500 106 524T95 580Q95 599 100 617T113 653Q138 704 184 729T287 754Q375 754 427 703T490 565H386Q379 605 357 630T291 655Q253 655 226 635T199 573Q199 557 205 545T222 524T244 508T269 494L405 423Q430 410 453 395T495 362T523 319T534 263ZM430 250Q430 284 410 301T363 332L196 417Q174 403 160 380T145 329Q145 303 159 282T196 250L375 158Q398 178 414 198T430 250Z"  />
<glyph unicode="&#xA8;" horiz-adv-x="555" d="M302 634V756H406V634H302ZM147 634V756H251V634H147Z"  />
<glyph unicode="&#xA9;" horiz-adv-x="800" d="M782 370Q782 291 752 222T670 100T549 18T401 -12Q322 -12 252 18T130 99T48 220T18 370Q18 449 48 519T130 640T252 722T401 752Q480 752 549 722T670 640T752 519T782 370ZM702 370Q702 433 679 488T615 586T519 652T400 676Q336 676 281 652T186 586T122 489T98 370Q98 307 121 252T185 154T281 88T400 64Q463 64 518 88T614 154T678 251T702 370ZM598 295Q594 259 576 231T532 184T473 154T406 143Q356 143 316 160T249 209T206 281T191 371Q191 419 206 460T248 533T316 581T406 599Q440 599 472 589T531 559T576 511T598 447H523Q509 489 479 508T406 528Q373 528 347 515T303 480T276 430T266 371Q266 339 275 311T302 261T346 227T406 214Q448 214 479 233T523 295H598Z"  />
<glyph unicode="&#xAA;" horiz-adv-x="415" d="M279 438V473H277Q265 452 238 441T188 430Q153 430 124 442T73 476T39 527T26 591Q26 626 38 656T73 707T125 741T190 754Q214 754 238 743T277 711H279V746H359V438H279ZM280 592Q280 630 254 654T190 679Q152 679 129 653T106 591Q106 556 130 531T189 505Q228 505 254 528T280 592Z"  />
<glyph unicode="&#xAB;" horiz-adv-x="370" d="M200 236V339L337 475V362L262 288L337 214V102L200 236ZM33 236V339L170 475V362L95 288L170 214V102L33 236Z"  />
<glyph unicode="&#xAC;" horiz-adv-x="600" d="M448 108V310H48V414H552V108H448Z"  />
<glyph unicode="&#xAD;" horiz-adv-x="280" d="M0 237V341H280V237H0Z"  />
<glyph unicode="&#xAE;" horiz-adv-x="800" d="M782 370Q782 291 752 222T670 100T549 18T401 -12Q322 -12 252 18T130 99T48 220T18 370Q18 449 48 519T130 640T252 722T401 752Q480 752 549 722T670 640T752 519T782 370ZM702 370Q702 433 679 488T615 586T519 652T400 676Q336 676 281 652T186 586T122 489T98 370Q98 307 121 252T185 154T281 88T400 64Q463 64 518 88T614 154T678 251T702 370ZM506 148Q496 163 495 187T493 229Q492 255 488 273T474 302T447 318T401 323H312V148H237V585H425Q454 585 481 579T529 559T562 523T575 466Q575 425 555 398T494 360V358Q516 352 530 342T552 319T563 288T567 249Q568 227 569 198T581 148H506ZM500 463Q500 467 499 472T495 480Q485 503 460 508T412 514H312V393H408Q426 393 442 396T472 406T492 428T500 463Z"  />
<glyph unicode="&#xAF;" horiz-adv-x="555" d="M456 652H98V735H456V652Z"  />
<glyph unicode="&#xB0;" horiz-adv-x="400" d="M343 569Q343 539 332 513T302 468T256 437T200 426Q170 426 144 437T99 467T68 513T57 569Q57 599 68 625T98 670T144 701T200 712Q230 712 256 701T301 671T332 625T343 569ZM281 570Q281 603 258 628T200 653Q166 653 143 628T119 570Q119 553 125 538T143 511T168 492T200 485Q217 485 231 492T257 511T274 538T281 570Z"  />
<glyph unicode="&#xB1;" horiz-adv-x="600" d="M352 332V170H248V332H48V436H248V598H352V436H552V332H352ZM48 0V104H552V0H48Z"  />
<glyph unicode="&#xB2;" horiz-adv-x="351" d="M28 422V484L198 656Q214 672 225 689T237 730Q237 758 220 779T173 800Q142 800 124 779T105 728V710H25V730Q25 760 36 786T67 833T113 864T170 876Q200 876 227 865T274 834T305 788T317 730Q317 691 301 663T258 609L148 498H318V422H28Z"  />
<glyph unicode="&#xB3;" horiz-adv-x="335" d="M316 556Q316 525 304 499T270 453T222 423T164 412Q133 412 106 423T59 453T28 500T16 558H96Q98 526 117 507T168 488Q198 488 217 507T236 556Q236 588 216 606T164 625H138V701H163Q187 701 201 715T216 753Q216 775 203 787T168 800Q145 800 134 786T121 750H41Q41 777 51 800T78 840T118 866T168 876Q195 876 218 866T259 839T286 798T296 747Q296 718 286 700T256 664Q288 645 302 619T316 556Z"  />
<glyph unicode="&#xB4;" horiz-adv-x="555" d="M200 602L158 677L381 805L425 724L200 602Z"  />
<glyph unicode="&#xB5;" horiz-adv-x="624" d="M446 0V60H444Q420 20 387 3T306 -14Q272 -14 238 -1T180 38H178V-185H74V554H178V284Q178 269 179 250T182 212T189 174T201 142Q217 113 245 97T306 81Q350 81 377 101T420 152T440 221T446 295V554H550V0H446Z"  />
<glyph unicode="&#xB6;" horiz-adv-x="638" d="M431 -191V620H325V-191H221V343Q179 343 140 352T70 383T21 437T2 518Q2 573 22 608T75 664T151 692T242 700H535V-191H431Z"  />
<glyph unicode="&#xB7;" horiz-adv-x="277" d="M93 200V308H184V200H93Z"  />
<glyph unicode="&#xB8;" horiz-adv-x="555" d="M275 -55Q282 -52 292 -52Q327 -52 349 -75T371 -134Q371 -176 345 -200T277 -225Q240 -225 215 -205T184 -146H238Q242 -160 252 -168T277 -177Q296 -177 306 -165T317 -134Q317 -117 306 -106T278 -95Q258 -95 245 -114L199 -93L243 0H302L275 -55Z"  />
<glyph unicode="&#xB9;" horiz-adv-x="246" d="M95 422V790H33V866H175V422H95Z"  />
<glyph unicode="&#xBA;" horiz-adv-x="385" d="M358 593Q358 559 345 530T309 478T256 443T192 430Q158 430 128 443T76 478T40 530T26 594Q26 628 39 657T75 708T128 742T192 754Q226 754 256 742T308 708T344 657T358 593ZM278 593Q278 629 253 654T192 679Q155 679 131 654T106 592Q106 574 112 559T131 531T158 512T192 505Q228 505 253 531T278 593Z"  />
<glyph unicode="&#xBB;" horiz-adv-x="370" d="M200 102V214L275 288L200 362V475L337 339V236L200 102ZM33 102V214L108 288L33 362V475L170 339V236L33 102Z"  />
<glyph unicode="&#xBC;" horiz-adv-x="700" d="M78 296V664H16V740H158V296H78ZM636 69V0H566V69H360V138L568 444H636V137H684V69H636ZM566 327H564L443 137H566V327ZM200 0H127L460 740H533L200 0Z"  />
<glyph unicode="&#xBD;" horiz-adv-x="714" d="M78 296V664H16V740H158V296H78ZM176 0H103L436 740H509L176 0ZM408 0V62L578 234Q594 250 605 267T617 308Q617 336 600 357T553 378Q522 378 504 357T485 306V288H405V308Q405 338 416 364T447 411T493 442T550 454Q580 454 607 443T654 412T685 366T697 308Q697 269 681 241T638 187L528 76H698V0H408Z"  />
<glyph unicode="&#xBE;" horiz-adv-x="781" d="M316 430Q316 399 304 373T270 327T222 297T164 286Q133 286 106 297T59 327T28 374T16 432H96Q98 400 117 381T168 362Q198 362 217 381T236 430Q236 462 216 480T164 499H138V575H163Q187 575 201 589T216 627Q216 649 203 661T168 674Q145 674 134 660T121 624H41Q41 651 51 674T78 714T118 740T168 750Q195 750 218 740T259 713T286 672T296 621Q296 592 286 574T256 538Q288 519 302 493T316 430ZM281 0H208L541 740H614L281 0ZM717 69V0H647V69H441V138L649 444H717V137H765V69H717ZM647 327H645L524 137H647V327Z"  />
<glyph unicode="&#xBF;" horiz-adv-x="518" d="M215 433V555H319V433H215ZM486 26Q483 -46 448 -101T345 -183Q302 -199 261 -199Q215 -199 175 -181T105 -133T58 -61T40 25Q40 57 45 80T62 124T90 162T129 200Q151 220 165 237T190 274T205 314T215 365H319Q317 294 290 243T215 143Q203 130 190 118T167 93T151 64T144 29Q144 4 153 -18T177 -57T214 -84T262 -94Q292 -94 318 -80T361 -40Q372 -23 376 -9T382 26H486Z"  />
<glyph unicode="&#xC0;" horiz-adv-x="684" d="M557 0L475 218H209L127 0H13L294 740H391L672 0H557ZM344 600H342L247 317H438L344 600ZM233 975L456 847L414 772L189 895L233 975Z"  />
<glyph unicode="&#xC1;" horiz-adv-x="684" d="M557 0L475 218H209L127 0H13L294 740H391L672 0H557ZM344 600H342L247 317H438L344 600ZM271 772L229 847L452 975L496 894L271 772Z"  />
<glyph unicode="&#xC2;" horiz-adv-x="684" d="M557 0L475 218H209L127 0H13L294 740H391L672 0H557ZM344 600H342L247 317H438L344 600ZM413 793L344 862L272 793H153L292 928H392L532 793H413Z"  />
<glyph unicode="&#xC3;" horiz-adv-x="684" d="M557 0L475 218H209L127 0H13L294 740H391L672 0H557ZM344 600H342L247 317H438L344 600ZM526 848Q503 829 476 816T417 802Q402 802 384 806T346 815T308 824T276 828Q256 828 240 822T206 806L159 871Q182 886 207 898T262 910Q276 910 294 906T332 897T370 887T403 883Q425 883 444 892T483 911L526 848H526Z"  />
<glyph unicode="&#xC4;" horiz-adv-x="684" d="M557 0L475 218H209L127 0H13L294 740H391L672 0H557ZM344 600H342L247 317H438L344 600ZM368 797V919H472V797H368ZM213 797V919H317V797H213Z"  />
<glyph unicode="&#xC5;" horiz-adv-x="684" d="M557 0L475 218H209L127 0H13L294 740H391L672 0H557ZM344 600H342L247 317H438L344 600ZM343 982Q366 982 386 973T421 949T444 914T453 871Q453 848 444 828T420 793T385 770T342 761Q319 761 299 769T264 793T241 828T232 871Q232 894 240 914T264 950T299 973T343 982ZM341 925Q319 925 304 910T289 872Q289 850 304 835T342 820Q364 820 379 835T395 872Q395 895 380 910T341 925Z"  />
<glyph unicode="&#xC6;" horiz-adv-x="930" d="M506 0V205H262L127 0H0L497 740H866V641H614V423H866V324H614V99H866V0H506ZM506 580H503L333 304H506V580Z"  />
<glyph unicode="&#xC7;" horiz-adv-x="782" d="M629 551Q587 599 537 627T421 655Q362 655 312 633T225 572T167 482T146 372Q146 316 167 264T224 172T311 109T419 85Q478 85 530 111T621 183H754Q700 89 612 38T415 -14L398 -68Q405 -67 409 -67T418 -67Q453 -67 476 -91T500 -151Q500 -193 472 -219T402 -246Q365 -246 339 -224T309 -164H362Q365 -179 376 -187T403 -195Q421 -195 433 -184T445 -154Q445 -136 433 -126T403 -115Q383 -115 369 -129L335 -97L364 -9Q293 1 234 35T131 121T63 237T38 373Q38 452 68 521T149 643T270 724T419 754Q479 754 538 736T645 682Q684 654 710 624T759 551H629Z"  />
<glyph unicode="&#xC8;" horiz-adv-x="520" d="M65 0V740H464V641H173V423H464V324H173V99H464V0H65ZM153 981L376 853L334 778L109 901L153 981Z"  />
<glyph unicode="&#xC9;" horiz-adv-x="520" d="M65 0V740H464V641H173V423H464V324H173V99H464V0H65ZM190 777L148 852L371 980L415 899L190 777Z"  />
<glyph unicode="&#xCA;" horiz-adv-x="520" d="M65 0V740H464V641H173V423H464V324H173V99H464V0H65ZM332 793L263 862L191 793H72L211 928H311L451 793H332Z"  />
<glyph unicode="&#xCB;" horiz-adv-x="520" d="M65 0V740H464V641H173V423H464V324H173V99H464V0H65ZM287 802V924H391V802H287ZM132 802V924H236V802H132Z"  />
<glyph unicode="&#xCC;" horiz-adv-x="257" d="M75 0V740H183V0H75ZM-19 981L204 853L162 778L-63 901L-19 981Z"  />
<glyph unicode="&#xCD;" horiz-adv-x="257" d="M75 0V740H183V0H75ZM98 777L56 852L279 980L323 899L98 777Z"  />
<glyph unicode="&#xCE;" horiz-adv-x="257" d="M75 0V740H183V0H75ZM200 793L131 862L59 793H-60L79 928H179L319 793H200Z"  />
<glyph unicode="&#xCF;" horiz-adv-x="257" d="M75 0V740H183V0H75ZM155 802V924H259V802H155ZM0 802V924H104V802H0Z"  />
<glyph unicode="&#xD0;" horiz-adv-x="752" d="M703 368Q703 336 697 300T680 229T651 162T610 107Q550 47 478 24T323 0H85V322H22V421H85V740H327Q371 740 413 733T494 709T567 667T627 604Q663 553 683 492T703 368ZM595 368Q595 426 572 481Q540 561 476 601T326 641H193V421H386V322H193V99H324Q386 99 436 117T521 170T576 255T595 368Z"  />
<glyph unicode="&#xD1;" horiz-adv-x="738" d="M551 0L185 572H183V0H75V740H193L553 177H555V740H663V0H551ZM553 848Q530 829 503 816T444 802Q429 802 411 806T373 815T335 824T303 828Q283 828 267 822T233 806L186 871Q209 886 234 898T289 910Q303 910 321 906T359 897T397 887T430 883Q452 883 471 892T510 911L553 848H553Z"  />
<glyph unicode="&#xD2;" horiz-adv-x="846" d="M808 368Q808 289 778 220T695 98T572 16T423 -14Q343 -14 273 16T151 98T69 220T38 370Q38 450 68 520T150 642T273 724T423 754Q504 754 574 724T696 642T778 519T808 368ZM700 367Q700 426 680 478T622 570T534 632T423 655Q336 655 271 611T172 488Q160 460 153 431T146 370Q146 339 153 309T172 250Q207 172 272 129T423 85Q515 85 582 134T681 268Q700 317 700 367ZM315 981L538 853L496 778L271 901L315 981Z"  />
<glyph unicode="&#xD3;" horiz-adv-x="846" d="M808 368Q808 289 778 220T695 98T572 16T423 -14Q343 -14 273 16T151 98T69 220T38 370Q38 450 68 520T150 642T273 724T423 754Q504 754 574 724T696 642T778 519T808 368ZM700 367Q700 426 680 478T622 570T534 632T423 655Q336 655 271 611T172 488Q160 460 153 431T146 370Q146 339 153 309T172 250Q207 172 272 129T423 85Q515 85 582 134T681 268Q700 317 700 367ZM352 777L310 852L533 980L577 899L352 777Z"  />
<glyph unicode="&#xD4;" horiz-adv-x="846" d="M808 368Q808 289 778 220T695 98T572 16T423 -14Q343 -14 273 16T151 98T69 220T38 370Q38 450 68 520T150 642T273 724T423 754Q504 754 574 724T696 642T778 519T808 368ZM700 367Q700 426 680 478T622 570T534 632T423 655Q336 655 271 611T172 488Q160 460 153 431T146 370Q146 339 153 309T172 250Q207 172 272 129T423 85Q515 85 582 134T681 268Q700 317 700 367ZM494 793L425 862L353 793H234L373 928H473L613 793H494Z"  />
<glyph unicode="&#xD5;" horiz-adv-x="846" d="M808 368Q808 289 778 220T695 98T572 16T423 -14Q343 -14 273 16T151 98T69 220T38 370Q38 450 68 520T150 642T273 724T423 754Q504 754 574 724T696 642T778 519T808 368ZM700 367Q700 426 680 478T622 570T534 632T423 655Q336 655 271 611T172 488Q160 460 153 431T146 370Q146 339 153 309T172 250Q207 172 272 129T423 85Q515 85 582 134T681 268Q700 317 700 367ZM607 848Q584 829 557 816T498 802Q483 802 465 806T427 815T389 824T357 828Q337 828 321 822T287 806L240 871Q263 886 288 898T343 910Q357 910 375 906T413 897T451 887T484 883Q506 883 525 892T564 911L607 848H607Z"  />
<glyph unicode="&#xD6;" horiz-adv-x="846" d="M808 368Q808 289 778 220T695 98T572 16T423 -14Q343 -14 273 16T151 98T69 220T38 370Q38 450 68 520T150 642T273 724T423 754Q504 754 574 724T696 642T778 519T808 368ZM700 367Q700 426 680 478T622 570T534 632T423 655Q336 655 271 611T172 488Q160 460 153 431T146 370Q146 339 153 309T172 250Q207 172 272 129T423 85Q515 85 582 134T681 268Q700 317 700 367ZM449 802V924H553V802H449ZM294 802V924H398V802H294Z"  />
<glyph unicode="&#xD7;" horiz-adv-x="600" d="M467 14L300 182L133 14L61 86L228 253L61 420L133 492L300 325L467 492L539 420L371 253L539 86L467 14Z"  />
<glyph unicode="&#xD8;" horiz-adv-x="846" d="M808 370Q808 290 778 221T695 99T573 16T423 -14Q375 -14 329 -3T240 31L170 -65L90 -9L161 89Q102 146 70 217T38 370Q38 450 68 520T150 642T272 724T422 754Q470 754 519 743T610 707L679 802L762 744L691 647Q719 621 741 589T778 521T800 446T808 370ZM700 370Q700 424 682 472T629 562L301 111Q327 97 360 91T423 85Q483 85 533 107T621 168T679 259T700 370ZM551 625Q522 641 490 648T424 655Q336 655 271 611T170 485Q159 458 153 429T146 370Q146 316 166 265T222 173L551 625Z"  />
<glyph unicode="&#xD9;" horiz-adv-x="643" d="M569 239Q569 185 553 136T494 49Q459 17 414 2T321 -14Q273 -14 228 1T148 49Q106 86 90 135T73 239V740H181V242Q181 209 190 181T216 131T260 97T321 85Q355 85 381 97T425 130T452 180T461 242V740H569V239H569ZM188 981L411 853L369 778L144 901L188 981Z"  />
<glyph unicode="&#xDA;" horiz-adv-x="643" d="M569 239Q569 185 553 136T494 49Q459 17 414 2T321 -14Q273 -14 228 1T148 49Q106 86 90 135T73 239V740H181V242Q181 209 190 181T216 131T260 97T321 85Q355 85 381 97T425 130T452 180T461 242V740H569V239H569ZM275 777L233 852L456 980L500 899L275 777Z"  />
<glyph unicode="&#xDB;" horiz-adv-x="643" d="M569 239Q569 185 553 136T494 49Q459 17 414 2T321 -14Q273 -14 228 1T148 49Q106 86 90 135T73 239V740H181V242Q181 209 190 181T216 131T260 97T321 85Q355 85 381 97T425 130T452 180T461 242V740H569V239H569ZM392 793L323 862L251 793H132L271 928H371L511 793H392Z"  />
<glyph unicode="&#xDC;" horiz-adv-x="643" d="M569 239Q569 185 553 136T494 49Q459 17 414 2T321 -14Q273 -14 228 1T148 49Q106 86 90 135T73 239V740H181V242Q181 209 190 181T216 131T260 97T321 85Q355 85 381 97T425 130T452 180T461 242V740H569V239H569ZM347 802V924H451V802H347ZM192 802V924H296V802H192Z"  />
<glyph unicode="&#xDD;" horiz-adv-x="593" d="M351 267V0H243V267L13 740H134L297 393L459 740H579L351 267ZM250 777L208 852L431 980L475 899L250 777Z"  />
<glyph unicode="&#xDE;" horiz-adv-x="559" d="M540 380Q540 321 520 279T464 209T382 169T279 156H173V0H65V740H173V604H279Q334 604 381 591T464 551T519 482T540 380ZM432 380Q432 414 420 438T386 477T338 498T279 505H173V255H279Q310 255 337 261T386 283T419 322T432 380Z"  />
<glyph unicode="&#xDF;" horiz-adv-x="640" d="M602 219Q602 170 585 128T537 54T464 4T372 -14Q338 -14 306 -6T246 23Q214 45 198 66T171 124H169V0H66V516Q66 590 97 649T199 737Q241 754 283 754Q328 754 368 737T438 690T486 620T504 535Q504 460 446 415Q516 398 559 345T602 219ZM498 209Q498 242 486 265T452 304T403 326T345 333H273V425Q329 427 364 455T400 541Q400 565 392 586T368 624T331 649T285 659Q254 659 232 648T197 617T177 573T170 521V194H254Q262 146 293 114T376 81Q403 81 425 91T463 119T489 160T498 209Z"  />
<glyph unicode="&#xE0;" horiz-adv-x="693" d="M522 0V86H520Q491 35 440 11T332 -14Q270 -14 216 7T123 67T61 159T38 275Q38 338 60 392T122 485T215 546T332 569Q388 569 438 547T520 476H522V554H626V0H522ZM524 276Q524 318 510 354T471 416T410 458T332 474Q291 474 256 458T196 415T156 352T142 276Q142 237 156 202T196 140T256 97T331 81Q371 81 406 96T468 138T509 200T524 276ZM238 815L461 687L419 612L194 735L238 815Z"  />
<glyph unicode="&#xE1;" horiz-adv-x="693" d="M522 0V86H520Q491 35 440 11T332 -14Q270 -14 216 7T123 67T61 159T38 275Q38 338 60 392T122 485T215 546T332 569Q388 569 438 547T520 476H522V554H626V0H522ZM524 276Q524 318 510 354T471 416T410 458T332 474Q291 474 256 458T196 415T156 352T142 276Q142 237 156 202T196 140T256 97T331 81Q371 81 406 96T468 138T509 200T524 276ZM275 611L233 686L456 814L500 733L275 611Z"  />
<glyph unicode="&#xE2;" horiz-adv-x="693" d="M522 0V86H520Q491 35 440 11T332 -14Q270 -14 216 7T123 67T61 159T38 275Q38 338 60 392T122 485T215 546T332 569Q388 569 438 547T520 476H522V554H626V0H522ZM524 276Q524 318 510 354T471 416T410 458T332 474Q291 474 256 458T196 415T156 352T142 276Q142 237 156 202T196 140T256 97T331 81Q371 81 406 96T468 138T509 200T524 276ZM417 632L348 701L276 632H157L296 767H396L536 632H417Z"  />
<glyph unicode="&#xE3;" horiz-adv-x="693" d="M522 0V86H520Q491 35 440 11T332 -14Q270 -14 216 7T123 67T61 159T38 275Q38 338 60 392T122 485T215 546T332 569Q388 569 438 547T520 476H522V554H626V0H522ZM524 276Q524 318 510 354T471 416T410 458T332 474Q291 474 256 458T196 415T156 352T142 276Q142 237 156 202T196 140T256 97T331 81Q371 81 406 96T468 138T509 200T524 276ZM530 682Q507 663 480 650T421 636Q406 636 388 640T350 649T312 658T280 662Q260 662 244 656T210 640L163 705Q186 720 211 732T266 744Q280 744 298 740T336 731T374 721T407 717Q429 717 448 726T487 745L530 682H530Z"  />
<glyph unicode="&#xE4;" horiz-adv-x="693" d="M522 0V86H520Q491 35 440 11T332 -14Q270 -14 216 7T123 67T61 159T38 275Q38 338 60 392T122 485T215 546T332 569Q388 569 438 547T520 476H522V554H626V0H522ZM524 276Q524 318 510 354T471 416T410 458T332 474Q291 474 256 458T196 415T156 352T142 276Q142 237 156 202T196 140T256 97T331 81Q371 81 406 96T468 138T509 200T524 276ZM372 636V758H476V636H372ZM217 636V758H321V636H217Z"  />
<glyph unicode="&#xE5;" horiz-adv-x="693" d="M522 0V86H520Q491 35 440 11T332 -14Q270 -14 216 7T123 67T61 159T38 275Q38 338 60 392T122 485T215 546T332 569Q388 569 438 547T520 476H522V554H626V0H522ZM524 276Q524 318 510 354T471 416T410 458T332 474Q291 474 256 458T196 415T156 352T142 276Q142 237 156 202T196 140T256 97T331 81Q371 81 406 96T468 138T509 200T524 276ZM347 831Q370 831 390 822T425 798T448 763T457 720Q457 697 448 677T424 642T389 619T346 610Q323 610 303 618T268 642T245 677T236 720Q236 743 244 763T268 799T303 822T347 831ZM345 774Q323 774 308 759T293 721Q293 699 308 684T346 669Q368 669 383 684T399 721Q399 744 384 759T345 774Z"  />
<glyph unicode="&#xE6;" horiz-adv-x="1131" d="M1093 280Q1093 268 1092 257T1090 233H628Q634 200 650 173T691 125T746 93T809 81Q859 81 902 106T969 176H1076Q1061 134 1035 99T974 39T898 0T811 -14Q757 -14 710 6T626 65H624V0H529V65Q485 25 441 6T335 -14Q272 -14 218 8T124 71T61 165T38 282Q38 343 61 396T123 487T216 547T331 569Q387 569 437 550T527 489H529V554H624V489H626Q642 510 663 525T710 550T761 564T814 569Q873 569 924 546T1012 482T1071 390T1093 280ZM989 305Q986 342 972 373T935 426T879 461T810 474Q772 474 741 462T685 427T646 373T628 305H989ZM524 279Q524 321 510 356T469 418T408 459T330 474Q289 474 255 459T195 418T156 357T142 281Q142 240 155 204T193 140T253 97T330 81Q372 81 407 96T469 139T509 202T524 279Z"  />
<glyph unicode="&#xE7;" horiz-adv-x="627" d="M595 183Q580 139 554 103T493 42T416 2T328 -13L311 -68Q318 -67 322 -67T331 -67Q366 -67 389 -91T413 -151Q413 -193 385 -219T315 -246Q278 -246 252 -224T222 -164H275Q284 -195 316 -195Q334 -195 346 -184T358 -154Q358 -136 346 -126T316 -115Q296 -115 282 -129L248 -97L277 -10Q223 -3 179 23T104 88T55 176T38 278Q38 339 59 392T119 484T209 546T323 569Q368 569 412 555T493 514T557 451T595 370H480Q457 419 419 446T324 474Q281 474 248 459T191 417T155 355T142 278Q142 239 154 203T190 140T247 97T322 81Q376 81 416 108T479 183H595H595Z"  />
<glyph unicode="&#xE8;" horiz-adv-x="642" d="M605 284Q605 257 602 232H143Q151 200 167 172T207 124T261 93T325 81Q374 81 417 105T483 174H587Q571 132 545 97T484 38T408 0T321 -14Q262 -14 211 10T121 74T61 167T39 278Q39 338 60 391T120 483T210 546T323 569Q382 569 433 547T523 485T583 394T605 284ZM501 312Q499 346 484 375T443 427T387 461T322 474Q288 474 257 462T201 427T161 376T143 312H501ZM213 815L436 687L394 612L169 735L213 815Z"  />
<glyph unicode="&#xE9;" horiz-adv-x="642" d="M605 284Q605 257 602 232H143Q151 200 167 172T207 124T261 93T325 81Q374 81 417 105T483 174H587Q571 132 545 97T484 38T408 0T321 -14Q262 -14 211 10T121 74T61 167T39 278Q39 338 60 391T120 483T210 546T323 569Q382 569 433 547T523 485T583 394T605 284ZM501 312Q499 346 484 375T443 427T387 461T322 474Q288 474 257 462T201 427T161 376T143 312H501ZM250 611L208 686L431 814L475 733L250 611Z"  />
<glyph unicode="&#xEA;" horiz-adv-x="642" d="M605 284Q605 257 602 232H143Q151 200 167 172T207 124T261 93T325 81Q374 81 417 105T483 174H587Q571 132 545 97T484 38T408 0T321 -14Q262 -14 211 10T121 74T61 167T39 278Q39 338 60 391T120 483T210 546T323 569Q382 569 433 547T523 485T583 394T605 284ZM501 312Q499 346 484 375T443 427T387 461T322 474Q288 474 257 462T201 427T161 376T143 312H501ZM392 632L323 701L251 632H132L271 767H371L511 632H392Z"  />
<glyph unicode="&#xEB;" horiz-adv-x="642" d="M605 284Q605 257 602 232H143Q151 200 167 172T207 124T261 93T325 81Q374 81 417 105T483 174H587Q571 132 545 97T484 38T408 0T321 -14Q262 -14 211 10T121 74T61 167T39 278Q39 338 60 391T120 483T210 546T323 569Q382 569 433 547T523 485T583 394T605 284ZM501 312Q499 346 484 375T443 427T387 461T322 474Q288 474 257 462T201 427T161 376T143 312H501ZM347 636V758H451V636H347ZM192 636V758H296V636H192Z"  />
<glyph unicode="&#xEC;" horiz-adv-x="238" d="M67 0V554H171V0H67ZM-28 815L195 687L153 612L-72 735L-28 815Z"  />
<glyph unicode="&#xED;" horiz-adv-x="238" d="M67 0V554H171V0H67ZM89 611L47 686L270 814L314 733L89 611Z"  />
<glyph unicode="&#xEE;" horiz-adv-x="238" d="M67 0V554H171V0H67ZM191 632L122 701L50 632H-69L70 767H170L310 632H191Z"  />
<glyph unicode="&#xEF;" horiz-adv-x="238" d="M67 0V554H171V0H67ZM146 636V758H250V636H146ZM-9 636V758H95V636H-9Z"  />
<glyph unicode="&#xF0;" horiz-adv-x="675" d="M636 295Q636 230 614 174T553 76T458 10T337 -14Q244 -14 171 33T62 167Q51 193 45 222T38 280Q38 340 61 392T125 484T219 546T331 569Q386 569 432 541L434 543Q411 569 382 591T323 630L156 574L90 625L236 674Q209 685 182 695T127 715L247 754Q275 747 301 737T354 713L478 754L542 702L434 666Q479 634 516 593T580 505T621 404T636 295ZM532 281Q532 323 517 358T476 419T414 459T336 474Q296 474 261 459T199 416T158 354T142 278Q142 237 157 202T199 139T261 97T338 81Q380 81 415 97T477 140T517 203T532 281Z"  />
<glyph unicode="&#xF1;" horiz-adv-x="624" d="M454 0V301Q454 336 448 367T427 422T384 460T316 474Q278 474 251 460T205 423T179 368T170 302V0H66V554H163V495H165Q195 535 237 552T327 569Q387 569 439 545T523 470Q543 438 550 402T558 328V0H454ZM496 682Q473 663 446 650T387 636Q372 636 354 640T316 649T278 658T246 662Q226 662 210 656T176 640L129 705Q152 720 177 732T232 744Q246 744 264 740T302 731T340 721T373 717Q395 717 414 726T453 745L496 682H496Z"  />
<glyph unicode="&#xF2;" horiz-adv-x="675" d="M636 279Q636 220 613 167T550 73T455 10T337 -14Q276 -14 222 9T127 72T62 165T38 281Q38 342 62 394T127 486T223 547T337 569Q398 569 452 547T547 485T612 393T636 279ZM532 279Q532 319 517 355T475 417T413 458T337 474Q296 474 261 459T199 417T158 354T142 278Q142 237 157 202T199 139T260 97T337 81Q378 81 413 96T475 139T517 202T532 279ZM229 815L452 687L410 612L185 735L229 815Z"  />
<glyph unicode="&#xF3;" horiz-adv-x="675" d="M636 279Q636 220 613 167T550 73T455 10T337 -14Q276 -14 222 9T127 72T62 165T38 281Q38 342 62 394T127 486T223 547T337 569Q398 569 452 547T547 485T612 393T636 279ZM532 279Q532 319 517 355T475 417T413 458T337 474Q296 474 261 459T199 417T158 354T142 278Q142 237 157 202T199 139T260 97T337 81Q378 81 413 96T475 139T517 202T532 279ZM266 611L224 686L447 814L491 733L266 611Z"  />
<glyph unicode="&#xF4;" horiz-adv-x="675" d="M636 279Q636 220 613 167T550 73T455 10T337 -14Q276 -14 222 9T127 72T62 165T38 281Q38 342 62 394T127 486T223 547T337 569Q398 569 452 547T547 485T612 393T636 279ZM532 279Q532 319 517 355T475 417T413 458T337 474Q296 474 261 459T199 417T158 354T142 278Q142 237 157 202T199 139T260 97T337 81Q378 81 413 96T475 139T517 202T532 279ZM408 632L339 701L267 632H148L287 767H387L527 632H408Z"  />
<glyph unicode="&#xF5;" horiz-adv-x="675" d="M636 279Q636 220 613 167T550 73T455 10T337 -14Q276 -14 222 9T127 72T62 165T38 281Q38 342 62 394T127 486T223 547T337 569Q398 569 452 547T547 485T612 393T636 279ZM532 279Q532 319 517 355T475 417T413 458T337 474Q296 474 261 459T199 417T158 354T142 278Q142 237 157 202T199 139T260 97T337 81Q378 81 413 96T475 139T517 202T532 279ZM521 682Q498 663 471 650T412 636Q397 636 379 640T341 649T303 658T271 662Q251 662 235 656T201 640L154 705Q177 720 202 732T257 744Q271 744 289 740T327 731T365 721T398 717Q420 717 439 726T478 745L521 682H521Z"  />
<glyph unicode="&#xF6;" horiz-adv-x="675" d="M636 279Q636 220 613 167T550 73T455 10T337 -14Q276 -14 222 9T127 72T62 165T38 281Q38 342 62 394T127 486T223 547T337 569Q398 569 452 547T547 485T612 393T636 279ZM532 279Q532 319 517 355T475 417T413 458T337 474Q296 474 261 459T199 417T158 354T142 278Q142 237 157 202T199 139T260 97T337 81Q378 81 413 96T475 139T517 202T532 279ZM363 636V758H467V636H363ZM208 636V758H312V636H208Z"  />
<glyph unicode="&#xF7;" horiz-adv-x="600" d="M248 398V506H352V398H248ZM48 201V305H552V201H48ZM248 0V108H352V0H248Z"  />
<glyph unicode="&#xF8;" horiz-adv-x="675" d="M636 280Q636 218 612 165T547 72T452 9T337 -14Q306 -14 276 -9T218 10L166 -69L87 -16L138 61Q92 103 65 160T38 281Q38 342 62 394T127 486T223 547T337 569Q368 569 398 564T456 545L507 623L587 570L537 494Q584 454 610 398T636 280ZM532 278Q532 314 519 348T482 410L272 92Q289 87 304 84T337 81Q377 81 413 96T475 139T516 201T532 278ZM402 463Q385 468 370 471T337 474Q296 474 261 459T199 417T158 354T142 278Q142 241 155 207T193 145L402 463Z"  />
<glyph unicode="&#xF9;" horiz-adv-x="624" d="M462 0V60H460Q448 40 430 26T389 3T343 -10T297 -14Q253 -14 213 -1T139 41Q116 61 102 86T80 139T69 196T66 254V554H170V254Q170 217 176 186T198 131T240 94T308 81Q348 81 375 95T420 133T445 189T453 257V554H557V0H462ZM179 815L402 687L360 612L135 735L179 815Z"  />
<glyph unicode="&#xFA;" horiz-adv-x="624" d="M462 0V60H460Q448 40 430 26T389 3T343 -10T297 -14Q253 -14 213 -1T139 41Q116 61 102 86T80 139T69 196T66 254V554H170V254Q170 217 176 186T198 131T240 94T308 81Q348 81 375 95T420 133T445 189T453 257V554H557V0H462ZM266 611L224 686L447 814L491 733L266 611Z"  />
<glyph unicode="&#xFB;" horiz-adv-x="624" d="M462 0V60H460Q448 40 430 26T389 3T343 -10T297 -14Q253 -14 213 -1T139 41Q116 61 102 86T80 139T69 196T66 254V554H170V254Q170 217 176 186T198 131T240 94T308 81Q348 81 375 95T420 133T445 189T453 257V554H557V0H462ZM383 632L314 701L242 632H123L262 767H362L502 632H383Z"  />
<glyph unicode="&#xFC;" horiz-adv-x="624" d="M462 0V60H460Q448 40 430 26T389 3T343 -10T297 -14Q253 -14 213 -1T139 41Q116 61 102 86T80 139T69 196T66 254V554H170V254Q170 217 176 186T198 131T240 94T308 81Q348 81 375 95T420 133T445 189T453 257V554H557V0H462ZM338 636V758H442V636H338ZM183 636V758H287V636H183Z"  />
<glyph unicode="&#xFD;" horiz-adv-x="574" d="M258 -185H150L231 11L10 554H122L285 124L452 554H564L258 -185ZM241 611L199 686L422 814L466 733L241 611Z"  />
<glyph unicode="&#xFE;" horiz-adv-x="686" d="M648 270Q648 211 627 160T568 70T479 9T368 -14Q341 -14 313 -9T258 8T210 37T173 80H171V-185H67V740H171V477H173Q203 524 254 546T361 569Q425 569 478 546T568 483T627 388T648 270ZM544 276Q544 315 530 351T490 414T429 458T354 474Q314 474 280 458T222 415T183 353T169 278Q169 238 183 202T222 139T281 97T357 81Q398 81 432 96T491 138T530 200T544 276Z"  />
<glyph unicode="&#xFF;" horiz-adv-x="574" d="M258 -185H150L231 11L10 554H122L285 124L452 554H564L258 -185ZM313 636V758H417V636H313ZM158 636V758H262V636H158Z"  />
<glyph unicode="&#x131;" horiz-adv-x="238" d="M67 0V554H171V0H67Z"  />
<glyph unicode="&#x152;" horiz-adv-x="1094" d="M694 0V106H692Q669 74 639 51T573 14T500 -7T424 -14Q342 -14 272 14T149 94T68 214T38 366Q38 444 69 520Q93 576 129 619T211 693T311 738T426 754Q463 754 501 747T574 724T640 686T692 632H694V740H1048V641H802V423H1048V324H802V99H1048V0H694ZM696 365Q696 423 676 476T620 568T533 631T422 655Q361 655 311 632T224 569T167 477T146 365Q146 306 166 255T224 166T311 107T421 85Q481 85 531 106T618 166T675 255T696 365Z"  />
<glyph unicode="&#x153;" horiz-adv-x="1144" d="M1107 278Q1107 267 1107 256T1105 233L636 234Q642 202 659 174T702 126T757 93T820 81Q873 81 916 105T986 176H1091Q1056 89 985 38T820 -14Q746 -14 685 22T586 121Q567 89 540 64T481 22T414 -5T341 -14Q252 -14 180 30T68 154Q54 183 46 215T38 279Q38 339 61 392T125 484T219 546T333 569Q410 569 476 537T585 439Q623 504 683 536T819 569Q881 569 933 547T1024 485T1085 393T1107 278ZM1003 305Q995 383 947 428T820 473Q742 473 694 427T636 305H1003ZM531 275Q531 318 516 354T475 417T413 459T334 474Q294 474 259 459T198 417T157 355T142 279Q142 239 157 203T198 140T259 97T334 81Q374 81 410 96T473 137T515 198T531 275Z"  />
<glyph unicode="&#x160;" horiz-adv-x="499" d="M473 210Q473 160 456 119T409 49T337 3T246 -14Q195 -14 153 3T81 52T35 126T18 219H126Q126 192 134 168T157 125T194 96T246 85Q302 85 333 120T365 210Q365 240 355 259T329 291T291 313T246 331Q203 347 165 363T99 404T55 463T39 553Q39 596 55 633T100 697T166 739T246 754Q292 754 331 740T398 698T442 633T458 548H350Q350 596 322 625T246 655Q226 655 208 647T177 625T155 593T147 554Q147 515 171 494T231 458T310 429T388 389T449 322T473 210ZM170 937L268 863L367 937H476L304 793H231L61 937H170Z"  />
<glyph unicode="&#x161;" horiz-adv-x="424" d="M402 163Q402 122 388 90T349 34T290 -1T216 -14Q182 -14 145 -1Q83 21 52 68T20 182H124Q127 139 149 110T218 81Q253 81 275 101T298 157Q298 186 280 202T233 230T172 253T111 282T64 330T45 409Q45 445 59 474T98 525T153 557T219 569Q255 569 285 557T339 524T375 473T389 407H285Q281 437 264 455T214 474Q188 474 169 459T149 415Q149 397 157 385T177 365T205 352T235 343Q269 332 299 318T352 283T388 233T402 163ZM133 776L231 702L330 776H439L267 632H194L24 776H133Z"  />
<glyph unicode="&#x178;" horiz-adv-x="593" d="M351 267V0H243V267L13 740H134L297 393L459 740H579L351 267ZM322 802V924H426V802H322ZM167 802V924H271V802H167Z"  />
<glyph unicode="&#x17D;" horiz-adv-x="462" d="M4 0V99L325 641H21V740H446V641L127 99H459V0H4ZM172 937L270 863L369 937H478L306 793H233L63 937H172Z"  />
<glyph unicode="&#x17E;" horiz-adv-x="407" d="M3 0V81L269 459H29V554H383V453L132 95H404V0H3ZM144 776L242 702L341 776H450L278 632H205L35 776H144Z"  />
<glyph unicode="&#x192;" horiz-adv-x="555" d="M504 737Q469 736 449 723T416 690T397 643T384 590H479L464 495H367L296 104Q287 52 273 5T234 -78T169 -135T65 -157Q52 -157 40 -156T15 -151L30 -64H41Q71 -64 93 -60T132 -44T161 -13T182 35Q190 61 195 88T206 142L269 495H173L189 590H286L292 623Q299 664 316 701T359 766T421 812T502 829Q507 829 511 829T520 827L504 737Z"  />
<glyph unicode="&#x2C6;" horiz-adv-x="555" d="M347 631L278 700L206 631H87L226 766H326L466 631H347Z"  />
<glyph unicode="&#x2DC;" horiz-adv-x="555" d="M459 682Q436 663 409 650T350 636Q335 636 317 640T279 649T241 658T209 662Q189 662 173 656T139 640L92 705Q115 720 140 732T195 744Q209 744 227 740T265 731T303 721T336 717Q358 717 377 726T416 745L459 682H459Z"  />
<glyph unicode="&#x2013;" horiz-adv-x="500" d="M35 237V341H465V237H35Z"  />
<glyph unicode="&#x2014;" horiz-adv-x="1000" d="M35 237V341H965V237H35Z"  />
<glyph unicode="&#x2018;" horiz-adv-x="277" d="M86 490V601Q86 656 109 692T190 740V677Q165 669 159 653T153 612H190V490H86Z"  />
<glyph unicode="&#x2019;" horiz-adv-x="277" d="M191 629Q191 574 168 538T87 490V553Q112 561 118 577T124 618H87V740H191V629H191Z"  />
<glyph unicode="&#x201A;" horiz-adv-x="277" d="M191 11Q191 -44 168 -80T87 -128V-65Q112 -57 118 -41T124 0H87V122H191V11H191Z"  />
<glyph unicode="&#x201C;" horiz-adv-x="425" d="M239 490V601Q239 656 262 692T343 740V677Q318 669 312 653T306 612H343V490H239ZM83 490V601Q83 656 106 692T187 740V677Q162 669 156 653T150 612H187V490H83Z"  />
<glyph unicode="&#x201D;" horiz-adv-x="425" d="M342 629Q342 574 319 538T238 490V553Q263 561 269 577T275 618H238V740H342V629ZM186 629Q186 574 163 538T82 490V553Q107 561 113 577T119 618H82V740H186V629Z"  />
<glyph unicode="&#x201E;" horiz-adv-x="425" d="M342 11Q342 -44 319 -80T238 -128V-65Q263 -57 269 -41T275 0H238V122H342V11ZM186 11Q186 -44 163 -80T82 -128V-65Q107 -57 113 -41T119 0H82V122H186V11Z"  />
<glyph unicode="&#x2020;" horiz-adv-x="573" d="M339 452V-222H235V452H65V547H235V740H339V547H509V452H339Z"  />
<glyph unicode="&#x2021;" horiz-adv-x="573" d="M339 30V-222H235V30H65V125H235V483H65V578H235V740H339V578H509V483H339V125H509V30H339Z"  />
<glyph unicode="&#x2022;" horiz-adv-x="606" d="M455 377Q455 345 443 317T411 268T363 235T303 222Q271 222 243 234T195 268T162 317T150 377Q150 409 162 437T195 486T244 519T304 532Q336 532 363 520T411 486T443 436T455 377Z"  />
<glyph unicode="&#x2026;" horiz-adv-x="1000" d="M781 0V122H885V0H781ZM448 0V122H552V0H448ZM115 0V122H219V0H115Z"  />
<glyph unicode="&#x2030;" horiz-adv-x="1228" d="M1175 166Q1175 129 1161 97T1122 40T1064 1T994 -13Q957 -13 924 1T867 39T828 96T813 166Q813 203 827 235T866 292T924 331T994 345Q1031 345 1064 331T1121 293T1160 236T1175 166ZM414 572Q414 535 400 503T361 446T303 407T233 393Q196 393 163 407T106 445T67 502T52 572Q52 609 66 641T105 698T163 737T233 751Q270 751 303 737T360 699T399 642T414 572ZM236 0H169L593 740H660L236 0ZM784 166Q784 129 770 97T731 40T673 1T603 -13Q566 -13 533 1T476 39T437 96T422 166Q422 203 436 235T475 292T533 331T603 345Q640 345 673 331T730 293T769 236T784 166ZM1085 166Q1085 185 1078 202T1059 231T1030 251T994 259Q975 259 959 252T930 232T910 202T903 166Q903 147 910 130T929 101T958 81T994 73Q1013 73 1029 80T1058 100T1078 130T1085 166ZM324 572Q324 591 317 608T298 637T269 657T233 665Q214 665 198 658T169 638T149 608T142 572Q142 553 149 536T168 507T197 487T233 479Q252 479 268 486T297 506T317 536T324 572ZM694 166Q694 185 687 202T668 231T639 251T603 259Q584 259 568 252T539 232T519 202T512 166Q512 147 519 130T538 101T567 81T603 73Q622 73 638 80T667 100T687 130T694 166Z"  />
<glyph unicode="&#x2039;" horiz-adv-x="205" d="M34 236V339L171 475V362L96 288L171 214V102L34 236Z"  />
<glyph unicode="&#x203A;" horiz-adv-x="205" d="M34 102V214L109 288L34 362V475L171 339V236L34 102Z"  />
<glyph unicode="&#x20AC;" horiz-adv-x="555" d="M544 197Q536 95 481 41T323 -14Q261 -14 220 10T151 74T111 164T91 267H1L15 343H86Q86 360 86 375T87 408H1L15 484H92Q98 537 113 586T155 673T224 733T327 756Q372 756 409 741T474 699T519 635T541 555H444Q435 600 406 630T328 661Q292 661 269 645T231 602T209 545T199 484H439L425 408H193V371V343H414L400 267H199Q202 238 209 206T231 145T270 99T330 81Q386 81 411 112T445 197H544H544Z"  />
<glyph unicode="&#x2122;" horiz-adv-x="973" d="M805 328V620H803L699 328H624L520 620H518V328H420V740H563L662 480L760 740H903V328H805ZM218 661V328H120V661H0V740H338V661H218Z"  />

</font>
</defs>
</svg>
